<ttFont>
          <CharString index="0">
            40.6999969482 32.9900054932 32.9900054932 40.6999969482 40.6999969482 -32.9900054932 32.9900054932 -40.6999969482 -40.6999969482 -32.9900054932 -32.9900054932 -40.6999969482 -40.6999969482 32.9900054932 -32.9900054932 40.6999969482 hvcurveto
            return
          </CharString>
          <CharString index="1">
            -8.89999389648 hlineto
            -104.36000061 -24.8399963379 -74.0899963379 -59.2599945068 -76.7799987793 hhcurveto
            -96.5299987793 226.029998779 76.7799987793 hlineto
            59.4799957275 -49 callgsubr
            40.0700073242 -42.9100036621 -58.7799987793 vvcurveto
            -3.41999816895 10 257.699996948 -10 -2.35000610352 vlineto
            -58.7799987793 -40.0700073242 -42.9100036621 -59.4799957275 -23 callgsubr
            -76.7799987793 234.660003662 103.179992676 hlineto
            75.5 -1.03999328613 41.7100067139 -44.7899932861 -76.7799987793 vvcurveto
            -5.38999938965 10 189.490005493 vlineto
            -5.99000549316 -14.8699951172 -48.7400054932 -9.08999633789 -35.8399963379 hhcurveto
            -389.759994507 -10 10.8500061035 hlineto
            27.7799987793 24.0800018311 -22.2299957275 -30.2599945068 hvcurveto
            -475.039993286 vlineto
            -30.2599945068 -24.0800018311 -22.1300048828 -27.7799987793 vhcurveto
            -10.8500061035 -10 return
          </CharString>
          <CharString index="2">
            rmoveto
            -7.85000610352 hlineto
            -3.71000671387 -29.5700073242 -36.7100067139 -78.0599975586 -11.5500030518 -25.3899993896 -205.759994507 -444.86000061 rcurveline
            -35.3399963379 -18 -33.0299987793 -13.1900024414 -25 hhcurveto
            -8 -10 206.449996948 9.91000366211 -7.80000305176 hlineto
            -22.3500061035 -25.1799926758 16.6100006104 31.9299926758 12.4199981689 hvcurveto
            29.9600067139 68.6499938965 rlineto
            185.770004272 hlineto
            28.9199981689 -66.2299957275 rlineto
            -33.5099945068 14.6600036621 -25.6600036621 -17.4499969482 -22.9100036621 hhcurveto
            -7.80000305176 -9.91000366211 351.130004883 10 -7.41999816895 hlineto
            -27.1499938965 -32.0399932861 13.7899932861 37.1799926758 -18.6900024414 hvcurveto
            -419 111.520004272 rmoveto
            73.0500030518 167.36000061 73.0800018311 -167.36000061 rlineto
            endchar
          </CharString>
          <CharString index="3">
            -79 callgsubr
            269.630004883 110.300003052 hlineto
            62.7899932861 -1.7799987793 44.4900054932 -45.0800018311 -0.210006713867 -62.3800048828 rrcurveto
            -4.72999572754 vlineto
            9.77000427246 -0.119995117188 rlineto
            278.259994507 vlineto
            -9.77000427246 -0.130004882812 rlineto
            -4.72999572754 vlineto
            0.220001220703 -62.8000030518 -45.0500030518 -45.2700042725 -63.5500030518 -1.19999694824 rrcurveto
            -109 279.160003662 144.979995728 hlineto
            78.7700042725 -2.88000488281 46.3099975586 -47.9600067139 -0.190002441406 -78.6699981689 rrcurveto
            -53 callsubr
            vlineto
            10.0800018311 -0.149993896484 rlineto
            206.270004272 vlineto
            -18.5599975586 -53 callsubr
            -57.5800018311 -9.96000671387 -43.1000061035 -0.410003662109 rrcurveto
            return
          </CharString>
          <CharString index="4">
            rmoveto
            -42.9799957275 17.6600036621 -43.1300048828 17.7400054932 4.78999328613 44.5599975586 rrcurveto
            40.5399932861 4.36000061035 35.5500030518 25.9199981689 62.5 hhcurveto
            80.3200073242 49.6600036621 -44.0800018311 -64.0899963379 hvcurveto
            6.58000183105 hlineto
            24.0399932861 145.580001831 rlineto
            -67.2400054932 hlineto
            5.14999389648 -54.0099945068 -71.2899932861 3.91000366211 -25.3200073242 hhcurveto
            -107.789993286 -67.6300048828 -50.5500030518 -104.380004883 -14.7299957275 hvcurveto
            -12.7400054932 -90.3099975586 41.7799987793 -72.5599975586 85.7599945068 -36.6100006104 105.130004883 -48.5800018311 rcurveline
            71.2700042725 -30.7899932861 28.2100067139 -29.5 -36.6600036621 vvcurveto
            -38.6199951172 -29.5 -39.9199981689 -74.9100036621 0.550003051758 vhcurveto
            -118.88999939 0.869995117188 -66.3899993896 89.8800048828 return
          </CharString>
          <CharString index="5">
            -89 callsubr
            554.949996948 vlineto
            34.5399932861 0.979995727539 28.2700042725 27.7200012207 34.7899932861 -82 callgsubr
            12.6499938965 hlineto
            34.8600006104 28.3099975586 -27.8300018311 -34.6399993896 0.869995117188 hvcurveto
            -87 callsubr
            return
          </CharString>
          <CharString index="6">
            rmoveto
            -9.91000366211 8.78999328613 vlineto
            27.8200073242 20.7799987793 -22.2400054932 -40.0200042725 -10.6000061035 hvcurveto
            -79.1399993896 -280.759994507 -199.13999939 368.25 -9.30999755859 0.320007324219 -172.949996948 -359.779998779 -109.490005493 272.520004272 rlineto
            39.4700012207 -13.9100036621 26.0299987793 22.2299957275 25.6300048828 hhcurveto
            8.78999328613 9.91000366211 -359.11000061 -10 8 hlineto
            30 36.5500030518 -16.3800048828 -40.3300018311 19.1100006104 hvcurveto
            247.059997559 -655.289993286 rlineto
            9.44000244141 hlineto
            0.649993896484 55.1499938965 26.3200073242 56.0099945068 0 vvcurveto
            158.270004272 323.649993896 230.729995728 -434.800003052 rlineto
            9.44000244141 hlineto
            -5.49000549316 49.7899932861 20.3500061035 61.3699951172 0 vvcurveto
            169.380004883 544.240005493 rlineto
            40.2400054932 15.9799957275 40.5899963379 16.3600006104 29.25 hhcurveto
            8.78999328613 10 hlineto
            endchar
          </CharString>
          <CharString index="7">
            rmoveto
            -10.0200042725 12.6000061035 vlineto
            27.2299957275 23.4199981689 -33.5599975586 -28.3600006104 -15.5899963379 hvcurveto
            -142.080001831 -247.320007324 -137.460006714 247.380004883 rlineto
            28.3500061035 -14.5399932861 20.4299926758 33.5500030518 29.2100067139 hhcurveto
            12.6000061035 9.9700012207 -386.339996338 -9.9700012207 14 hlineto
            40.9199981689 38.8800048828 -27.0099945068 -30.2400054932 19.6199951172 hvcurveto
            190.160003662 -310.5 rlineto
            -250.009994507 vlineto
            -34.5599975586 -0.960006713867 -28.2700042725 -27.7400054932 -34.8099975586 hhcurveto
            -12.6499938965 -80 callgsubr
            -10 rlineto
            358.75 -75 callsubr
            248.88999939 vlineto
            196.240005493 309.470001221 rlineto
            30.8699951172 20.2899932861 38.5200042725 27.8999938965 42 hhcurveto
            14 10.0200042725 hlineto
            endchar
          </CharString>
          <CharString index="8">
            rmoveto
            -257.990005493 -157.449996948 -135.199996948 -228.800003052 -228.789993286 157.449996948 -135.199996948 257.990005493 257.990005493 157.449996948 135.199996948 228.789993286 228.800003052 -157.449996948 135.199996948 -257.990005493 hvcurveto
            -678.080001831 vmoveto
            -122.419998169 -72.3399963379 116.649993896 197.410003662 197.419998169 72.3399963379 116.660003662 122.419998169 122.419998169 72.3399963379 -116.660003662 -197.419998169 -197.410003662 -72.3399963379 -116.649993896 -122.419998169 hvcurveto
            endchar
          </CharString>
          <CharString index="9">
            rmoveto
            21.9900054932 -48.5200042725 -38 -107 -100.679992676 0.360000610352 -62.3300018311 0.220001220703 -34 43.4100036621 -64.9799957275 10.4499969482 -44.4499969482 7.13999938965 -38.5700073242 -36.5899963379 -8.9700012207 -21.6699981689 rrcurveto
            -12.3500061035 hlineto
            -14.6799926758 53.6699981689 34 108 97.8500061035 0.110000610352 58.1499938965 0.0700073242188 31 -43.1799926758 72.8899993896 -9.9700012207 44.6900024414 -6.11000061035 39.4199981689 33.0800018311 6.66000366211 16.5200042725 rrcurveto
            return
          </CharString>
          <CharString index="10">
            rmoveto
            -34 callgsubr
            12.8399963379 hlineto
            34.8099975586 0.0800018310547 28.3999938965 -28.0500030518 0.660003662109 -34.8300018311 rrcurveto
            -554.809997559 vlineto
            -34.6100006104 -0.880004882812 -28.3000030518 -27.7899932861 -34.8399963379 hhcurveto
            -12.6499938965 -80 callgsubr
            -10 rlineto
            359.460006714 -51 callsubr
            -12.3399963379 hlineto
            -35.3099975586 -53 callgsubr
            575.13999939 44.3699951172 vlineto
            60 49 -33 -99 5 hvcurveto
            1 -19 -2 -11 -1 -11 rrcurveto
            -86 -11 -41 -37.1999969482 -55 hhcurveto
            -16.1000061035 -9.46000671387 hlineto
            19.1000061035 -7.33999633789 19 -12 14 -48 13 -43 3 -57 36 -61 rrcurveto
            -104 61 93 -10 119.960006714 hhcurveto
            124.86000061 10.0299987793 hlineto
            -47.8200073242 0.970001220703 -23 13 -45 62 -37 50 -43 77 -5 8 -24 40 -42 44 -55.6900024414 16.3899993896 rrcurveto
            124.690002441 18.6100006104 35 95 76 vvcurveto
            154 -144 35 -121.279998779 vhcurveto
            return
          </CharString>
          <CharString index="11">
            rmoveto
            0.149993896484 -10 rlineto
            18.4499969482 hlineto
            33.7400054932 27.3600006104 -27.0399932861 -33.5700073242 0.630004882812 hvcurveto
            -340.13999939 vlineto
            -477.679992676 424.779998779 -0.889999389648 0.929992675781 rlineto
            -9.86000061035 hlineto
            0 13.2100067139 -46.6600036621 -78.2700042725 vvcurveto
            -519.529998779 vlineto
            -33.5500030518 -0.649993896484 -27.3600006104 -27.0099945068 -33.7200012207 hhcurveto
            -18.4600067139 -80 callgsubr
            -10 rlineto
            365.990005493 hlineto
            -0.149993896484 10 rlineto
            -10 callsubr
            -33.7299957275 -27.3699951172 27.0399932861 33.5700073242 -0.639999389648 hvcurveto
            341.309997559 vlineto
            479.38999939 -425.899993896 rlineto
            9.08000183105 hlineto
            0 -13.1199951172 return
          </CharString>
          <CharString index="12">
            rmoveto
            -12.0200042725 hlineto
            -168.979995728 175.520004272 7.21000671387 8 168.339996338 -64.4299926758 157.539993286 64.3300018311 7.21000671387 -8 rlineto
            return
          </CharString>
          <CharString index="13">
            rmoveto
            10 -335.869995117 -10 15.7700042725 vlineto
            32.2799987793 0.0500030517578 19.4799957275 -16.4100036621 -0.320007324219 -29.1999969482 -1.50999450684 -137.190002441 rcurveline
            -69.6600036621 -66.5700073242 -37 -65.1199951172 vhcurveto
            -132.880004883 -0.149993896484 -59 117.220001221 189 vvcurveto
            205 70 117 159.710006714 vhcurveto
            90.2899932861 -0.0700073242188 97 -37 42.3800048828 -149.740005493 rrcurveto
            8.32000732422 hlineto
            9.82000732422 191.240005493 rlineto
            24.8200073242 -58.75 -128.660003662 20.7100067139 -109.990005493 hhcurveto
            -251.130004883 -149 -136 -226 -230 154 -136 236.350006104 166.649993896 144 68 60.8099975586 48 hvcurveto
            165.190002441 vlineto
            29.1000061035 -0.850006103516 18.1900024414 16.3099975586 32.3300018311 hhcurveto
            return
          </CharString>
          <CharString index="14">
            rmoveto
            -79 callgsubr
            576.600006104 hlineto
            34.8300018311 0.690002441406 28.3999938965 28.0500030518 35 hhcurveto
            12.6499938965 -9 callsubr
            10 rlineto
            -358.800003052 hlineto
            -46 callgsubr
            35 28.3999938965 -28.0500030518 -34.8300018311 0.660003662109 hvcurveto
            -554.330001831 -98 callgsubr
            584.559997559 -70 callgsubr
            return
          </CharString>
          <CharString index="15">
            rmoveto
            11.8999938965 hlineto
            178.440002441 -175.520004272 -7.13999938965 -8 -177.809997559 64.4299926758 -167.119995117 -64.3300018311 -7.13999938965 8 rlineto
            return
          </CharString>
          <CharString index="16">
            -59 callgsubr
            40.2899932861 40.2899932861 -46 callsubr
            -40.2899932861 40.2899932861 -45 callgsubr
            -40.2899932861 -40.2899932861 -45 callgsubr
            40.2899932861 -40.2899932861 -59 callgsubr
            hvcurveto
            return
          </CharString>
          <CharString index="17">
            hlineto
            -34 callgsubr
            12.6499938965 hlineto
            34.9400024414 28.3600006104 -27.9499969482 -34.75 0.75 hvcurveto
            -554.509994507 -98 callgsubr
            return
          </CharString>
          <CharString index="18">
            -56 callgsubr
            -35 -28.3999938965 28.0500030518 34.8300018311 -0.649993896484 hvcurveto
            return
          </CharString>
          <CharString index="19">
            rmoveto
            -10 10.3999938965 vlineto
            23.8800048828 19.8399963379 -27.3200073242 -24.0500030518 -13.5200042725 hvcurveto
            -121.449996948 -209.710006714 -123.960006714 209.679992676 rlineto
            24.1900024414 -13.5299987793 18.8300018311 27.2299957275 24.9400024414 hhcurveto
            10.3999938965 10 -350.330001831 -10 12 hlineto
            35 32.8200073242 -21.6699981689 -25.3300018311 16.8800048828 hvcurveto
            172.669998169 -265.479995728 rlineto
            -215.320007324 vlineto
            -30.1999969482 -0.789993286133 -24.9700012207 -22.0700073242 -29.0899963379 hhcurveto
            -11.4600067139 -10 327.75 10 -10.9299926758 hlineto
            -30.1900024414 -23.9299926758 22.1300048828 30.2599945068 -1.05999755859 hvcurveto
            216.369995117 vlineto
            168.800003052 263.949996948 rlineto
            25.7700042725 17.8300018311 31.9199981689 21.5899963379 35.9900054932 hhcurveto
            12.5 10 hlineto
            endchar
          </CharString>
          <CharString index="20">
            -554.740005493 -98 callgsubr
            return
          </CharString>
          <CharString index="21">
            5.08999633789 -10 36.2400054932 15 66.3000030518 -11 -5.14999389648 -42 rlinecurve
            -55 -6.69999694824 -55.3600006104 -21 -41.7299957275 hhcurveto
            -0.740005493164 -10 83.0899963379 -29 99.0200042725 44 6.41000366211 70 rlinecurve
            6.35000610352 69 -89.6000061035 6 -35.5899963379 -12 return
          </CharString>
          <CharString index="22">
            -18 callsubr
            -34.7299957275 -28.2299957275 27.6199951172 34.4600067139 -1.07000732422 hvcurveto
            578.960006714 98.2400054932 vlineto
            80.8399963379 -1.61000061035 47.6499938965 -48.1999969482 -0.190002441406 -79.8000030518 -36 callsubr
            205.740005493 vlineto
            -18.3300018311 -7.72999572754 -56.4100036621 -9.80999755859 -42.9199981689 -0.630004882812 rrcurveto
            return
          </CharString>
          <CharString index="23">
            0 callsubr
            -9.91000366211 -57 callgsubr
            33.0800018311 30.6199951172 -25.0599975586 -32.1600036621 hvcurveto
            -560.13999939 vlineto
            -34.7700042725 -0.729995727539 -28.3699951172 -27.9799957275 -34.9600067139 hhcurveto
            -12.6499938965 -80 callgsubr
            -10 rlineto
            378.539993286 hlineto
            250.88999939 148.25 129.929992676 219.779998779 220.169998169 -148.25 130.100006104 -250.88999939 hvcurveto
            -96.5500030518 -50.0399932861 rmoveto
            76.5500030518 hlineto
            125.179992676 73.9700012207 -111.520004272 -188.720001221 -188.11000061 -73.9700012207 -111.160003662 -125.179992676 hvcurveto
            -76.5500030518 hlineto
            endchar
          </CharString>
          <CharString index="24">
            64.5899963379 -27.0700073242 103.630004883 hhcurveto
            165.210006714 96.6699981689 65.4199981689 128.580001831 -21 callsubr
            hvcurveto
            7.64999389648 92.2200012207 -47.0599975586 57.1499938965 -66.8099975586 28.3999938965 rrcurveto
            return
          </CharString>
          <CharString index="25">
            rmoveto
            -91 callsubr
            return
          </CharString>
          <CharString index="26">
            -73.5500030518 -59.2700042725 -76.7799987793 hhcurveto
            -96.5299987793 491.25 hlineto
            -62 callgsubr
            22.8500061035 -51 callgsubr
            28.8699951172 hhcurveto
            11 10 -322.559997559 -10 return
          </CharString>
          <CharString index="27">
            rmoveto
            -10 hlineto
            -8 callgsubr
            -24.8300018311 -81 callsubr
            11 hlineto
            27.5899963379 -4 callgsubr
            -5 callsubr
            -29.9499969482 -4 callsubr
            hvcurveto
            -475.869995117 -47 callgsubr
            509.800003052 hlineto
            1.91999816895 hlineto
            return
          </CharString>
          <CharString index="28">
            rmoveto
            5.39999389648 hlineto
            -1.63000488281 77.8399963379 12.9100036621 34.2799987793 42.4799957275 6.05000305176 27.1300048828 3.86000061035 34.1300048828 -8.58000183105 4.74000549316 -43.2799987793 5.44999694824 -49.7200012207 -38.9199981689 -44.8000030518 -50.4600067139 2.47999572754 -0.990005493164 -5.39999389648 rcurveline
            39.1399993896 -0.960006713867 56.7799987793 -22.8099975586 -67.7899932861 vvcurveto
            -79.3699951172 -78.2200012207 -40.6300048828 -89.6699981689 2 vhcurveto
            -1.08000183105 -5 rlineto
            123.779998779 -68 192.190002441 35 145 vvcurveto
            72.9299926758 -48.6799926758 26.2599945068 -40.3300018311 8.19000244141 vhcurveto
            35.9900054932 1.30000305176 34.8800048828 22.3000030518 50.5200042725 vvcurveto
            63.7400054932 -55.5700073242 32.4499969482 -94.2899932861 1.32000732422 vhcurveto
            -64.7599945068 0.899993896484 -58.5299987793 -14.75 -31.7100067139 -24.0299987793 rrcurveto
            return
          </CharString>
          <CharString index="29">
            219 873 10 rmoveto
            -13.5299987793 hlineto
            -28.6699981689 -24.8899993896 16.2799987793 30.9100036621 -7.80999755859 hvcurveto
            -80.3399963379 554.759994507 rlineto
            -8.32000732422 hlineto
            -267.009994507 -375.080001831 -298.929992676 375.059997559 rlineto
            -7.25999450684 hlineto
            -77.75 -549.699996948 rlineto
            -34.1799926758 -5.2200012207 -27.0599975586 -18.0500030518 -32.1999969482 hhcurveto
            -13 -10 193.990005493 10 -13.5399932861 hlineto
            -26.0200042725 -8.19000244141 27.0500030518 10.9299926758 0.880004882812 hvcurveto
            27.1799926758 210.160003662 224.690002441 -280.13999939 rlineto
            8.32000732422 hlineto
            -3.28999328613 47.0599975586 39.8000030518 54.0099945068 0 vvcurveto
            138.419998169 192.449996948 32.8699951172 -224.009994507 rlineto
            -12.1100006104 1.05000305176 -6.85000610352 -25.3999938965 -27.5899963379 hhcurveto
            -13.5399932861 -10 323.809997559 hlineto
            endchar
          </CharString>
          <CharString index="30">
            -114.179992676 -31.0899963379 -80.4700012207 return
          </CharString>
          <CharString index="31">
            rmoveto
            125.429992676 -23.9900054932 103.660003662 148.119995117 -56.7200012207 123.080001831 -26.0800018311 57.3699951172 -75.1000061035 19.8200073242 -46.9400024414 -34.4199981689 -40.6799926758 -29.1999969482 -6.33999633789 -72.1399993896 37.6300048828 -42.6000061035 55.2799987793 -62.5800018311 -36.5099945068 -53.1999969482 -37.6499938965 -16.6900024414 rrcurveto
            return
          </CharString>
          <CharString index="32">
            hlineto
            -0.160003662109 10 rlineto
            -89 callsubr
            return
          </CharString>
          <CharString index="33">
            29.9600067139 -0.550003051758 hvcurveto
            176.479995728 324.660003662 rmoveto
            133.990005493 168.059997559 21.4299926758 22.3800048828 31.2899932861 14.1100006104 34.2799987793 0.0899963378906 rlinecurve
            3.63999938965 8.77000427246 -204.119995117 -8.55999755859 8.0299987793 hlineto
            23.4100036621 10.1100006104 -20.4600067139 -19.5399932861 -13.75 hvcurveto
            -199.309997559 -283.449996948 rlineto
            -2.19999694824 65.5399932861 -133.100006104 31.3699951172 -43.2200012207 vhcurveto
            70.4600067139 -97 137.820007324 7.13000488281 22.9199981689 -0.0200042724609 rrcurveto
            102.479995728 8.32000732422 hlineto
            -32.5200042725 0.869995117188 -30.3999938965 23.7299957275 -27.9799957275 44.6000061035 rrcurveto
            return
          </CharString>
          <CharString index="34">
            -10.1600036621 -84.8500061035 -24.7299957275 -50.1699981689 -31.6900024414 -0.0599975585938 -25.5099945068 0.0800018310547 -7.94999694824 50.5500030518 12.0599975586 85.4600067139 rrcurveto
            86.1100006104 12.0299987793 23.5200042725 50.8899993896 27.7799987793 hhcurveto
            25.8600006104 9.14999389648 -51.2599945068 -86.7400054932 return
          </CharString>
          <CharString index="35">
            0.160003662109 return
          </CharString>
          <CharString index="36">
            -77 callsubr
            -66.7700042725 -95.9600067139 hhcurveto
            return
          </CharString>
          <CharString index="37">
            187 311.919998169 627.820007324 rmoveto
            34.5399932861 0.979995727539 28.2700042725 27.7200012207 34.7899932861 -82 callgsubr
            12.8200073242 hlineto
            34.6900024414 0.0800018310547 28.3099975586 -27.8300018311 0.869995117188 -34.6399993896 rrcurveto
            -39 callsubr
            -12.6300048828 hlineto
            -35.0299987793 -58 callgsubr
            return
          </CharString>
          <CharString index="38">
            -1 callsubr
            30.7400054932 24.4600067139 -21.6399993896 -29.5099945068 1.67999267578 hvcurveto
            -474.679992676 vlineto
            -30.2100067139 -25.6900024414 -24.0299987793 -25 callsubr
            vhcurveto
            -11.8600006104 -10 340.289993286 hlineto
            225.820007324 131.88999939 -30 callgsubr
            -131.88999939 110.720001221 -225.820007324 hvcurveto
            -76.5200042725 -45.3699951172 rmoveto
            -66 callsubr
          </CharString>
          <CharString index="39">
            rmoveto
            20.4600067139 100 rlineto
            -6 hlineto
            -17.2899932861 -7.19999694824 -11.3399963379 -10.4299926758 -22.1000061035 hhcurveto
            -26.1000061035 244 -5.61999511719 hlineto
            -332.630004883 -310.289993286 rlineto
            -6 194.240005493 -54.9900054932 vlineto
            -17.9499969482 -0.669998168945 -14.7700042725 -13.1699981689 -17.6699981689 hhcurveto
            -6.53999328613 -6 223.479995728 6 -6.53999328613 hlineto
            -17.8099975586 -15.0599975586 14.1699981689 17.8000030518 -0.240005493164 hvcurveto
            54.1499938965 vlineto
            -219.419998169 72.2899932861 rmoveto
            75.4199981689 66.4799957275 rlineto
            -66.4799957275 vlineto
            endchar
          </CharString>
          <CharString index="40">
            hlineto
            77.6600036621 -1.03999328613 41.6999969482 -45.8699951172 -76.7799987793 vvcurveto
            -5.39999389648 10 190.570007324 vlineto
            -5.99000549316 -14.8600006104 -48.6999969482 -9.08999633789 return
          </CharString>
          <CharString index="41">
            56.6900024414 hlineto
            107.63999939 65.3000030518 -94.25 -160.929992676 -159.899993896 -66.3399963379 -93.1999969482 -106.600006104 hvcurveto
            -56.6900024414 hlineto
            endchar
          </CharString>
          <CharString index="42">
            rmoveto
            -8 callgsubr
            -24.8300018311 -81 callsubr
            11 hlineto
            27.5800018311 23.7799987793 -21.8099975586 -29.9199981689 0.309997558594 hvcurveto
            -475.919998169 -47 callgsubr
            511.720001221 hlineto
            28.7899932861 210.050003052 rlineto
            return
          </CharString>
          <CharString index="43">
            rmoveto
            -32 callsubr
            -10.0700073242 rlineto
            -21 callsubr
            hlineto
            29.5 23.9400024414 -24.3999938965 -30.3000030518 0.550003051758 hvcurveto
            -481.38999939 vlineto
            0.0599975585938 -84.9199981689 -7.92999267578 -91 -85.3699951172 -41 rrcurveto
            -9 vlineto
            144.100006104 -20 145.380004883 87 155.679992676 vvcurveto
            486.330001831 vlineto
            29.5 1.41000366211 23.5800018311 23.4900054932 28.9400024414 hhcurveto
            -21 callsubr
            -15 callsubr
            10.0899963379 rlineto
            endchar
          </CharString>
          <CharString index="44">
            -49.7100067139 return
          </CharString>
          <CharString index="45">
            rmoveto
            117.410003662 35.3399963379 29.3699951172 127.119995117 -3.14999389648 51.5399932861 -131.199996948 -14 rcurveline
            10.1399993896 -72.6699981689 -4.63000488281 -34.4199981689 -34.8399963379 -87.6699981689 rrcurveto
            return
          </CharString>
          <CharString index="46">
            -27.3800048828 60.2400054932 -78.8600006104 20.8099975586 -49.2899932861 -36.1399993896 -42.7100067139 -30.6699981689 -6.64999389648 -75.75 39.5099945068 -44.7299957275 58.0500030518 return
          </CharString>
          <CharString index="47">
            10 -10.4900054932 hlineto
            -28.9499969482 -22.9199981689 4 callsubr
            -1.03999328613 hvcurveto
            215.75 194.960006714 -215.75 -48 callsubr
            -1.03999328613 -22.9199981689 -22.1399993896 -28.9499969482 hhcurveto
            -10.4900054932 -10 321.309997559 10 -11.0200042725 hlineto
            -28.7700042725 -22.8099975586 21.8699951172 29.9900054932 -0.229995727539 hvcurveto
            return
          </CharString>
          <CharString index="48">
            rmoveto
            32.8600006104 32.3200073242 17.5800018311 19.9100036621 33.4199981689 -2.91000366211 46 -4 60 -48 58 -8 74 -10 46 53 26.8200073242 26.8000030518 -45.5299987793 43.3800048828 rcurveline
            -27.2899932861 -22.1799926758 -31.5299987793 -27.9700012207 -34.4700012207 1.9700012207 -35 2 -69 52 -61 6 -83 9 -50 -71 -5.66999816895 -8.96000671387 rrcurveto
            return
          </CharString>
          <CharString index="49">
            -19.6399993896 -139 214.63999939 -34 9.05000305176 136 return
          </CharString>
          <CharString index="50">
            16.3000030518 return
          </CharString>
          <CharString index="51">
            29.0399932861 hhcurveto
            10.2200012207 0.100006103516 -32 callsubr
            9.89999389648 rlineto
            -323.440002441 hlineto
            0.130004882812 -9.89999389648 10.5700073242 -34 callsubr
            rlineto
            28.6999969482 23.5800018311 -22.1399993896 -29.6300048828 0.880004882812 hvcurveto
            -476.380004883 vlineto
            -29.9600067139 -0.550003051758 -23.5200042725 return
          </CharString>
          <CharString index="52">
            vlineto
            76.7599945068 45 -52 -81 3 hvcurveto
            1 -17 -2 -23 -5 -20 -28 -115 -93 -2 1.0299987793 -1.13000488281 0.119995117188 -9.44999694824 rcurveline
            153.779998779 -111.419998169 197.369995117 106 -10.2400054932 185.410003662 rrcurveto
            102.440002441 -5.66000366211 -14 callsubr
            88.1600036621 -199.070007324 hhcurveto
            endchar
          </CharString>
          <CharString index="53">
            -5.94000244141 -54.0700073242 -8.99000549316 -35.9700012207 -0.149993896484 rrcurveto
            return
          </CharString>
          <CharString index="54">
            -7.82000732422 return
          </CharString>
          <CharString index="55">
            700.059997559 rmoveto
            -46 callgsubr
            35 28.3999938965 -28.0500030518 -34.8300018311 0.660003662109 hvcurveto
            -574.270004272 0 callgsubr
            -95.9199981689 -19.5 -104 -97.4600067139 -44 rrcurveto
            -9 vlineto
            162.559997559 -21 159.61000061 101 170.100006104 vvcurveto
            return
          </CharString>
          <CharString index="56">
            -80 callgsubr
            10 rlineto
            return
          </CharString>
          <CharString index="57">
            -91 callsubr
            endchar
          </CharString>
          <CharString index="58">
            rmoveto
            85.4600067139 -17 70.3600006104 101 -38.3800048828 84 -17.7700042725 39 -51.1699981689 13.7200012207 -31.9799957275 -23.7200012207 -27.7200012207 -20 -4.32000732422 -49 25.6399993896 -29 37.6699981689 -42 -24.8699951172 -37 -25.6499938965 -11 rrcurveto
            return
          </CharString>
          <CharString index="59">
            vlineto
            -30.2700042725 return
          </CharString>
          <CharString index="60">
            -70 callgsubr
            endchar
          </CharString>
          <CharString index="61">
            -59 callgsubr
            -59 callgsubr
            return
          </CharString>
          <CharString index="62">
            -52 callgsubr
            -123.419998169 return
          </CharString>
          <CharString index="63">
            28.3999938965 28.0500030518 35 -82 callgsubr
            12.6499938965 hlineto
            34.5800018311 28.1300048828 -27.3800048828 -34.25 1.30999755859 hvcurveto
            return
          </CharString>
          <CharString index="64">
            rmoveto
            8 -5 -77.8000030518 -192.960006714 78.8000030518 -197.039993286 -9 -7 -224.800003052 204.039993286 rlineto
            return
          </CharString>
          <CharString index="65">
            -9 callgsubr
            22.4700012207 -43 23 4 48 return
          </CharString>
          <CharString index="66">
            401.720001221 65 -401.720001221 hlineto
            return
          </CharString>
          <CharString index="67" raw="1">
            ff00e78a 3d153e0a 0b 
          </CharString>
          <CharString index="68">
            -87 callsubr
            358.789993286 -51 callsubr
            return
          </CharString>
          <CharString index="69">
            28.5299987793 -0.0299987792969 rrcurveto
            108.190002441 9.94000244141 hlineto
            -40.6499938965 1.0299987793 -33.7599945068 25.7599945068 -32.3800048828 48.8200073242 rrcurveto
            return
          </CharString>
          <CharString index="70">
            733.990005493 590.070007324 rmoveto
            10 -322.38999939 -10 10.4900054932 vlineto
            28.9400024414 22.9100036621 -22.1300048828 -30.2599945068 1.05000305176 hvcurveto
            return
          </CharString>
          <CharString index="71">
            rrcurveto
            -53 callsubr
            -14 callgsubr
            -0.149993896484 rlineto
            return
          </CharString>
          <CharString index="72">
            -25.8200073242 return
          </CharString>
          <CharString index="73">
            -0.100006103516 return
          </CharString>
          <CharString index="74">
            vlineto
            -62 callgsubr
            22.9199981689 -51 callgsubr
            28.9499969482 hhcurveto
            10.4799957275 10 -322.380004883 -10 11.0200042725 hlineto
            return
          </CharString>
          <CharString index="75">
            0.139999389648 return
          </CharString>
          <CharString index="76">
            hhcurveto
            -57 callsubr
            10 return
          </CharString>
          <CharString index="77">
            vlineto
            34.7299957275 0.770004272461 28.3500061035 27.9299926758 34.9199981689 hhcurveto
            12.6499938965 -9 callsubr
            10 rlineto
            return
          </CharString>
          <CharString index="78">
            rlinecurve
            -33 -22 -29 -15 -8 -47 -23 -136 220 -37 7.39999389648 136 -6 6 rcurveline
            -48.3999938965 -40 -59 22 -5 60 -3 31 14 30 53 12 73 return
          </CharString>
          <CharString index="79">
            168.36000061 -65 -168.36000061 -168.36000061 -65 168.36000061 -168.36000061 65 168.36000061 168.36000061 return
          </CharString>
          <CharString index="80">
            -255 30 291.899993896 rmoveto
            10 -40.8999938965 rlineto
            300 hlineto
            10 40.8999938965 -10 40.1000061035 rlineto
            -300 hlineto
            endchar
          </CharString>
          <CharString index="81">
            rmoveto
            -71 vlineto
            308.669998169 -145.270004272 -308.669998169 -145.720001221 rlineto
            -71 vlineto
            401.720001221 187 rlineto
            59 vlineto
            return
          </CharString>
          <CharString index="82">
            -30.0800018311 return
          </CharString>
          <CharString index="83" raw="1">
            ffffe438 521effff f5266681 ff01ffb8
            52060b   
          </CharString>
          <CharString index="84">
            -0.110000610352 return
          </CharString>
          <CharString index="85">
            10 -21 callgsubr
            return
          </CharString>
          <CharString index="86">
            10.6600036621 return
          </CharString>
          <CharString index="87">
            hlineto
            29.4799957275 23.6600036621 -24.6699981689 -29.5200042725 0.550003051758 hvcurveto
            return
          </CharString>
          <CharString index="88">
            vlineto
            28.8000030518 1.36999511719 23.3300018311 23.7700042725 28.9400024414 hhcurveto
            return
          </CharString>
          <CharString index="89">
            -51 callsubr
            -56 callgsubr
            return
          </CharString>
          <CharString index="90">
            35.8200073242 203.119995117 rlineto
            -62 hlineto
            -35.8200073242 -203.119995117 rlineto
            return
          </CharString>
          <CharString index="91">
            -58 callsubr
            rrcurveto
            endchar
          </CharString>
          <CharString index="92">
            hlineto
            -32 callsubr
            return
          </CharString>
          <CharString index="93">
            -71.4700012207 return
          </CharString>
          <CharString index="94">
            65.3699951172 40.0800018311 -40.1199951172 -62.3200073242 return
          </CharString>
          <CharString index="95">
            37.9700012207 51.2799987793 51.2799987793 37.9700012207 return
          </CharString>
          <CharString index="96">
            112.300003052 return
          </CharString>
          <CharString index="97">
            -18.4600067139 hlineto
            return
          </CharString>
          <CharString index="98">
            hlineto
            -72 callsubr
            return
          </CharString>
          <CharString index="99">
            71.4700012207 return
          </CharString>
          <CharString index="100">
            -119.050003052 5 callgsubr
            return
          </CharString>
          <CharString index="101">
            -0.169998168945 return
          </CharString>
          <CharString index="102">
            -21.8399963379 return
          </CharString>
          <CharString index="103">
            0.279998779297 return
          </CharString>
          <CharString index="104">
            -0.460006713867 return
          </CharString>
          <CharString index="105">
            50.5299987793 return
          </CharString>
          <CharString index="106">
            rmoveto
            -10.0099945068 11.8300018311 vlineto
            return
          </CharString>
          <CharString index="107">
            rmoveto
            -72 callsubr
            return
          </CharString>
          <CharString index="108">
            -37.0700073242 -0.350006103516 rrcurveto
            return
          </CharString>
          <CharString index="109">
            rmoveto
            -43.3099975586 34.7599945068 return
          </CharString>
          <CharString index="110">
            -51.2799987793 return
          </CharString>
          <CharString index="111">
            -51 callgsubr
            30.2700042725 return
          </CharString>
        <CharString name=".notdef">
          -385 endchar
        </CharString>
        <CharString name="A">
          85 351.410003662 724 -103 callgsubr
        </CharString>
        <CharString name="AE">
          382 991.419998169 -52 callgsubr
          -113.300003052 266.630004883 103.899993896 hlineto
          60.8200073242 -3.41999816895 42.7400054932 -44.5200042725 -0.210006713867 -61.1399993896 rrcurveto
          -4.72999572754 vlineto
          9.77000427246 -0.119995117188 rlineto
          277.960006714 vlineto
          -9.77000427246 -0.130004882812 rlineto
          -4.72999572754 vlineto
          0.220001220703 -61.6499938965 -43.4199981689 -44.7599945068 -61.7200012207 -2.75 rrcurveto
          -102.350006104 282.190002441 134.86000061 hlineto
          78.7700042725 -2.88000488281 46.3099975586 -47.9600067139 -0.190002441406 -78.6699981689 rrcurveto
          -53 callsubr
          vlineto
          10.1199951172 -0.149993896484 rlineto
          206.270004272 vlineto
          -18.5599975586 -53 callsubr
          -57.6300048828 -9.96000671387 -43.1000061035 -0.410003662109 rrcurveto
          -394.600006104 -10 5 hlineto
          25.2299957275 14.2899932861 -22.0899963379 -27.1199951172 -17.8399963379 hvcurveto
          -391.039993286 -569.800003052 rlineto
          -43.0899963379 -30.5899963379 -26.1300048828 -17.8999938965 -29.4600067139 hhcurveto
          -9 -10 237.970001221 9.91000366211 -8.78999328613 hlineto
          -35 callsubr
          -37.1799926758 22.7599945068 40.0200042725 24.6000061035 hvcurveto
          151.470001221 244.539993286 rlineto
          156.300003052 -258.86000061 hlineto
          -26.8000030518 -0.509994506836 -5 callsubr
          -21.5800018311 -26.9199981689 hhcurveto
          -9.72999572754 hlineto
          -0.119995117188 -10 rlineto
          556.710006714 -70 callgsubr
          -661.179992676 135.679992676 rmoveto
          125.320007324 202.259994507 rlineto
          -202.259994507 vlineto
          endchar
        </CharString>
        <CharString name="Aacute">
          85 331.809997559 761 -107 callgsubr
          26.6000061035 -44 -103 callgsubr
        </CharString>
        <CharString name="Abreve">
          85 475.61000061 927.649993896 -81 callgsubr
          -136.899993896 -203.649993896 -103 callgsubr
        </CharString>
        <CharString name="Acircumflex">
          85 341.570007324 931.759994507 -92 callsubr
          178.720001221 -32.3399963379 -103 callgsubr
        </CharString>
        <CharString name="Adieresis">
          85 213.970001221 755.490005493 -105 callgsubr
          -125.149993896 -31.4900054932 -103 callgsubr
        </CharString>
        <CharString name="Agrave">
          85 375.720001221 770.910003662 -99 callgsubr
          -17.3000030518 -39.9100036621 -103 callgsubr
        </CharString>
        <CharString name="Amacron">
          85 206.630004883 795.36000061 -40 callgsubr
          144.779998779 -156.36000061 -103 callgsubr
        </CharString>
        <CharString name="Aogonek">
          85 351.410003662 714 rmoveto
          -9.00999450684 hlineto
          -4 -33.7200012207 -41.3000030518 -90.3600006104 -11.75 -25.0599975586 -228.830001831 -492.199996948 rcurveline
          -44.3000030518 -21.2400054932 -36.3000030518 -42 callgsubr
          41.4499969482 -97.0099945068 14.1399993896 -37.2799987793 -2.55999755859 -18.1900024414 -20.2799987793 -13.5200042725 -29 callsubr
          17 160 -16 26.2599945068 -1 rrcurveto
          10.3800048828 vlineto
          -8.36000061035 1.61999511719 -30.6499938965 6 -35.0099945068 10.4600067139 -22.2100067139 44.5500030518 rlinecurve
          -464.309997559 142.990005493 -11 callgsubr
        </CharString>
        <CharString name="Aring">
          85 361.13999939 694.070007324 rmoveto
          47.1600036621 4.83000183105 37.5599975586 30.1300048828 -2 callgsubr
          40.3099975586 -0.449996948242 45.0599975586 -44.1000061035 28.6699981689 -53.8800048828 0.25 -54.1699981689 -0.25 -45.1999969482 -29.7700042725 0.270004272461 -44.8699951172 -0.25 -41.7799987793 40.9299926758 -29.7899932861 48.3899993896 -3.17999267578 -12.0099945068 -40.9499969482 -30.5899963379 -66.8500061035 -9.85000610352 -21 -228.820007324 -492.179992676 rcurveline
          -44.3099975586 -21.2299957275 -36.3099975586 -42 callgsubr
          40.2400054932 -94.1799926758 rlineto
          -39.4799957275 15.8300018311 -28.6999969482 -22.4299926758 -25.6300048828 hhcurveto
          -8.78999328613 -9.91000366211 379.059997559 10 -8.36000061035 hlineto
          -30.6499938965 -35.0099945068 18.4600067139 44.5500030518 -22.2100067139 hvcurveto
          -359.470001221 695.339996338 rmoveto
          0.110000610352 30.1999969482 18.1699981689 22.4100036621 24.1100006104 -0.320007324219 25.0500030518 0.339996337891 18.6399993896 -22.4100036621 -0.199996948242 -30.2200012207 0.190002441406 -29.6799926758 -18.6399993896 -22.4100036621 -25.0500030518 -0.199996948242 -24.1199951172 0.190002441406 -18.1699981689 22.4100036621 -23 callsubr
          29.6900024414 rrcurveto
          -104.839996338 -552.350006104 -11 callgsubr
        </CharString>
        <CharString name="Atilde">
          85 556.199996948 919.279998779 -98 callsubr
          -192.440002441 -195.289993286 -103 callgsubr
        </CharString>
        <CharString name="B">
          96 30 700 rmoveto
          -34 callgsubr
          12.8399963379 hlineto
          34.5500030518 0.0800018310547 28.2299957275 -27.6199951172 1.07000732422 -34.4600067139 rrcurveto
          -555.789993286 vlineto
          -34.5299987793 -1 -28.2599945068 -27.6999969482 -34.7799987793 hhcurveto
          -12.6499938965 -80 callgsubr
          -10 rlineto
          363.649993896 hlineto
          182.350006104 131 61 138.869995117 -0.440002441406 hvcurveto
          0.440002441406 111.130004883 -84 65 -97.8000030518 4.85000610352 66.8000030518 2.14999389648 64 47 0.0399932861328 96.1000061035 rrcurveto
          136.899993896 -129 37 -148.550003052 vhcurveto
          -66.4799957275 -648.529998779 rmoveto
          598.36000061 12.8600006104 vlineto
          65.1699981689 0.179992675781 51 -33 0.0399932861328 -106.929992676 -0.0399932861328 -83.0700073242 -31 -48 -64.3300018311 0.220001220703 -3 callgsubr
          -9.41000366211 rcurveline
          84.1000061035 0.190002441406 42 -59 -0.440002441406 -95.6100006104 0.440002441406 -121.38999939 -67 -43 -80.1699981689 0.470001220703 rrcurveto
          endchar
        </CharString>
        <CharString name="C">
          158 721.009994507 291.850006104 -89 callgsubr
        </CharString>
        <CharString name="Cacute">
          158 419 761 -107 callgsubr
          309.009994507 -476.149993896 -89 callgsubr
        </CharString>
        <CharString name="Ccaron">
          158 442.830001831 763.970001221 -95 callsubr
          118.880004883 -647.550003052 -89 callgsubr
        </CharString>
        <CharString name="Ccedilla">
          158 729.330001831 291.88999939 rmoveto
          -8.32000732422 hlineto
          -191.339996338 -36.5700073242 -50.7599945068 -64.5800018311 -161.550003052 hhcurveto
          -136.479995728 3.94000244141 -80.6499938965 118.13999939 195.990005493 vvcurveto
          194.839996338 87.1600036621 115.169998169 147.5 vhcurveto
          103.330001831 -0.0700073242188 78 -46 40.3800048828 -140.740005493 rrcurveto
          8.32000732422 hlineto
          9.82000732422 191.240005493 rlineto
          23.5299987793 -55.5299987793 -89 22 -112 hhcurveto
          -276 -162 -135 -228 -212.089996338 139.190002441 -127.570007324 227.949996948 -22.3399963379 hvcurveto
          -47.1999969482 -60 -86 callsubr
          37.8000030518 43 rcurveline
          3.88999938965 3.91000366211 0 3.92999267578 hhcurveto
          158.86000061 82.4499969482 57.8000030518 66.1399993896 39.6999969482 hvcurveto
          endchar
        </CharString>
        <CharString name="Cdotaccent">
          158 436 764 rmoveto
          -107 callsubr
          285.009994507 -472.149993896 -89 callgsubr
        </CharString>
        <CharString name="D">
          207 30.3500061035 699.970001221 -84 callsubr
        </CharString>
        <CharString name="Dcaron">
          207 428.059997559 763.970001221 -95 callsubr
          -557.020004272 -239.419998169 -84 callsubr
        </CharString>
        <CharString name="Dcroat">
          207 279.059997559 795.36000061 -40 callgsubr
          -248.710006714 -180.38999939 -84 callsubr
        </CharString>
        <CharString name="Delta">
          17 321 714 rmoveto
          -316 -704.419998169 rlineto
          -9.58000183105 642 10 vlineto
          -316 704 rlineto
          166.789993286 -664.419998169 rmoveto
          -419.259994507 hlineto
          211.679992676 481.970001221 rlineto
          endchar
        </CharString>
        <CharString name="E">
          32 642.839996338 231.539993286 rmoveto
          -104 callsubr
          -442.570007324 -90 callsubr
          584.559997559 -47 callsubr
        </CharString>
        <CharString name="Eacute">
          32 322.039993286 761 -107 callgsubr
          327.809997559 -536.460006714 rmoveto
          -106 callgsubr
          584.559997559 -47 callsubr
        </CharString>
        <CharString name="Ecaron">
          32 345.86000061 763.970001221 -95 callsubr
          137.679992676 -707.850006104 rmoveto
          -106 callgsubr
          584.559997559 -47 callsubr
        </CharString>
        <CharString name="Ecircumflex">
          32 331.789993286 931.759994507 -92 callsubr
          479.919998169 -524.789993286 rmoveto
          -106 callgsubr
          584.559997559 -47 callsubr
        </CharString>
        <CharString name="Edieresis">
          32 204.199996948 755.490005493 -105 callgsubr
          176.050003052 -523.940002441 rmoveto
          -106 callgsubr
          584.559997559 -47 callsubr
        </CharString>
        <CharString name="Edotaccent">
          32 339.039993286 764 rmoveto
          -107 callsubr
          303.809997559 -532.460006714 rmoveto
          -106 callgsubr
          584.559997559 -47 callsubr
        </CharString>
        <CharString name="Egrave">
          32 392.830001831 770.910003662 rmoveto
          -25.9499969482 65.8899993896 -79.3899993896 81.8899993896 -42.9299926758 37.8800048828 -49.0899963379 -20.2400054932 -24.5399932861 -33.2400054932 -14.9900054932 -46.2400054932 61.8300018311 -41.9799957275 94.8300018311 -41.9799957275 72.9799957275 -8.97999572754 rrcurveto
          257.259994507 -532.36000061 rmoveto
          -106 callgsubr
          584.559997559 -47 callsubr
        </CharString>
        <CharString name="Emacron">
          32 196.86000061 795.36000061 -40 callgsubr
          445.990005493 -648.820007324 rmoveto
          -106 callgsubr
          584.559997559 -47 callsubr
        </CharString>
        <CharString name="Eng">
          256 505.229995728 700.020004272 rmoveto
          0.149993896484 -10 rlineto
          18.4499969482 hlineto
          33.7400054932 27.3600006104 -27.0399932861 -33.5700073242 0.630004882812 hvcurveto
          -349.029998779 vlineto
          -487.919998169 433.880004883 -10.5200042725 0.710006713867 rlineto
          0 13.2100067139 -46.6600036621 -78.2700042725 vvcurveto
          -519.529998779 vlineto
          -33.5500030518 -0.649993896484 -27.3600006104 -27.0099945068 -33.7200012207 hhcurveto
          -18.4600067139 -80 callgsubr
          -10 rlineto
          355.990005493 hlineto
          -0.149993896484 10 rlineto
          -10 callsubr
          -33.7299957275 -27.3699951172 27.0399932861 33.5700073242 -0.639999389648 hvcurveto
          350.199996948 vlineto
          290.009994507 -257.830001831 rlineto
          -120.949996948 -19 callgsubr
          144.240005493 -35 131.429992676 78 5.80000305176 142 rrcurveto
          1 vlineto
          648.350006104 vlineto
          30.7799987793 26.1000061035 23.9199981689 31.7299957275 vhcurveto
          18.4600067139 hlineto
          0.149993896484 10 rlineto
          endchar
        </CharString>
        <CharString name="Eogonek">
          32 661.039993286 -120 rmoveto
          -35 callgsubr
          -3 34 12.9700012207 31 54.4600067139 13 rrcurveto
          1.13000488281 -70 callgsubr
          -10 hlineto
          -106 callgsubr
          521.399993896 hlineto
          -41.8399963379 -9 -39.0399932861 -27 -7.5299987793 -53 -16 callsubr
        </CharString>
        <CharString name="Eth">
          207 30.3500061035 699.970001221 0 callsubr
          -9.91000366211 -57 callgsubr
          33.0800018311 30.6199951172 -25.0599975586 -32.1600036621 hvcurveto
          -257.850006104 -76.8600006104 -50 76.8600006104 -252.289993286 vlineto
          -34.7700042725 -0.729995727539 -28.3699951172 -27.9799957275 -34.9600067139 hhcurveto
          -12.6499938965 -80 callgsubr
          -10 rlineto
          378.539993286 hlineto
          250.88999939 148.25 129.929992676 219.779998779 220.169998169 -148.25 130.100006104 -250.88999939 hvcurveto
          -96.5500030518 -374.960006714 rmoveto
          108.020004272 50 -108.020004272 274.919998169 76.5500030518 hlineto
          125.75 78.3999938965 -111.520004272 -188.720001221 -188.11000061 -78.3999938965 -111.160003662 -125.75 hvcurveto
          -76.5500030518 hlineto
          endchar
        </CharString>
        <CharString name="Euro">
          58 667.479995728 213.979995728 rmoveto
          -115.979995728 -32.4799957275 -54 -61 -100 hhcurveto
          -117.089996338 -58.8999938965 82.3099975586 144.300003052 -15.8500061035 hvcurveto
          254.410003662 hlineto
          16.5800018311 50 rlineto
          -274.679992676 hlineto
          -0.5 12.1100006104 -0.259994506836 12.4700012207 -0.0200042724609 12.8099975586 rrcurveto
          32.6100006104 298.669998169 vlineto
          17.5800018311 50 rlineto
          -312.199996948 hlineto
          145.800003052 15.1199951172 57.7200012207 84.5800018311 105.429992676 hhcurveto
          70 81 -37 -127 -4.52000427246 hvcurveto
          10 hlineto
          52.5800018311 154.699996948 rlineto
          42.3099975586 -33.0599975586 -117 17 -76 hhcurveto
          -197.960006714 -138.699996948 -115.570007324 -164.820007324 -35 hvcurveto
          -100.339996338 hlineto
          -18 -50 rlineto
          111.070007324 hlineto
          -0.899993896484 -11.0399932861 -3 callsubr
          -11.2100067139 -0.0200042724609 -11.3600006104 0.0800018310547 -12.3300018311 0.600006103516 -12.1399993896 1.10000610352 -11.9199981689 rrcurveto
          -92.4600067139 hlineto
          -19 -50 rlineto
          119.279998779 hlineto
          -164.279998779 36.7100067139 139.070007324 -112.339996338 191.940002441 hhcurveto
          77 110 18 44.0700073242 42.3099975586 hvcurveto
          164.919998169 vlineto
          endchar
        </CharString>
        <CharString name="F">
          -4 591.850006104 718.190002441 rmoveto
          -18.5899963379 -36 callgsubr
          -442.570007324 -9 callsubr
          -9.92999267578 -57 callgsubr
          34.9199981689 28.3500061035 -27.9299926758 -34.7299957275 0.770004272461 hvcurveto
          -554.570007324 -98 callgsubr
          358.800003052 -75 callsubr
          247.350006104 110.259994507 vlineto
          62.7899932861 -1.7799987793 44.4900054932 -45.0800018311 -0.210006713867 -62.3800048828 rrcurveto
          -4.72999572754 vlineto
          9.77000427246 -0.119995117188 rlineto
          278.259994507 vlineto
          -9.77000427246 -0.130004882812 rlineto
          -4.72999572754 vlineto
          0.220001220703 -62.8000030518 -45.0500030518 -45.2700042725 -63.5500030518 -1.19999694824 rrcurveto
          -109 279.160003662 144.979995728 hlineto
          78.7700042725 -2.88000488281 46.3099975586 -47.9600067139 -0.190002441406 -78.6699981689 -36 callsubr
          endchar
        </CharString>
        <CharString name="G">
          226 848.740005493 325.38999939 -94 callsubr
          endchar
        </CharString>
        <CharString name="Gbreve">
          226 552.789993286 927.649993896 -81 callgsubr
          283.240005493 -602.259994507 -94 callsubr
          endchar
        </CharString>
        <CharString name="Gcommaaccent">
          226 848.740005493 325.38999939 -94 callsubr
          -447.990005493 -598.410003662 -97 callgsubr
        </CharString>
        <CharString name="Gdotaccent">
          226 426 764 rmoveto
          -107 callsubr
          422.740005493 -438.61000061 -94 callsubr
          endchar
        </CharString>
        <CharString name="H">
          -27 callgsubr
          554.330001831 vlineto
          34.8300018311 0.639999389648 -44 callsubr
          -253.460006714 -269.220001221 252.820007324 -66 callgsubr
          252.13999939 269.220001221 -252.899993896 vlineto
          -34.4799957275 -49 callgsubr
          -28.2400054932 -27.6399993896 -34.7400054932 hhcurveto
          -12.6499938965 -80 callgsubr
          -10 rlineto
          358.789993286 hlineto
          endchar
        </CharString>
        <CharString name="Hbar">
          -27 callgsubr
          415.25 66.7899932861 50 -66.8200073242 89.0899963379 vlineto
          34.8300018311 0.669998168945 -44 callsubr
          -90.3500061035 -269.220001221 89.7100067139 vlineto
          34.5399932861 0.979995727539 28.2700042725 27.7200012207 34.7899932861 -82 callgsubr
          12.6499938965 hlineto
          34.8600006104 28.3099975586 -27.8300018311 -34.6399993896 0.869995117188 hvcurveto
          -89.5 -64.6100006104 -50 64.6100006104 -415.25 -98 callgsubr
          358.789993286 -75 callsubr
          252.13999939 269.220001221 -252.899993896 vlineto
          -34.4799957275 -49 callgsubr
          -28.2400054932 -27.6399993896 -34.7400054932 hhcurveto
          -12.6499938965 -80 callgsubr
          -10 rlineto
          358.789993286 hlineto
          -551.160003662 375 rmoveto
          113.11000061 269.220001221 -113.11000061 vlineto
          endchar
        </CharString>
        <CharString name="I">
          -217 388.630004883 10 rmoveto
          -102 callsubr
          358.789993286 hlineto
          endchar
        </CharString>
        <CharString name="IJ">
          207 453.080001831 -52 callsubr
          577.320007324 -30 callsubr
          -423.399993896 -690.059997559 rmoveto
          -102 callsubr
          358.789993286 hlineto
          endchar
        </CharString>
        <CharString name="Iacute">
          -217 191.309997559 761 -107 callgsubr
          204.320007324 -758 rmoveto
          -102 callsubr
          358.789993286 hlineto
          endchar
        </CharString>
        <CharString name="Icircumflex">
          -217 201.059997559 931.759994507 -92 callsubr
          356.429992676 -746.339996338 rmoveto
          -102 callsubr
          358.789993286 hlineto
          endchar
        </CharString>
        <CharString name="Idieresis">
          -217 73.4600067139 755.479995728 -33 callgsubr
          -32.7700042725 -32.9900054932 -40.6999969482 -40.6999969482 32.7700042725 -55 callgsubr
          52.5599975586 -745.479995728 rmoveto
          -102 callsubr
          358.789993286 hlineto
          endchar
        </CharString>
        <CharString name="Idotaccent">
          -217 208.309997559 764 rmoveto
          -107 callsubr
          180.320007324 -754 rmoveto
          -102 callsubr
          358.789993286 hlineto
          endchar
        </CharString>
        <CharString name="Igrave">
          -217 245.210006714 770.910003662 -99 callgsubr
          150.410003662 -753.910003662 rmoveto
          -102 callsubr
          358.789993286 hlineto
          endchar
        </CharString>
        <CharString name="Imacron">
          -217 66.1300048828 795.36000061 -40 callgsubr
          322.5 -870.36000061 rmoveto
          -102 callsubr
          358.789993286 hlineto
          endchar
        </CharString>
        <CharString name="Iogonek">
          -217 250.350006104 hmoveto
          138.429992676 hlineto
          -0.160003662109 10 rlineto
          -102 callsubr
          172.070007324 hlineto
          -44.9400024414 -7 -43.9700012207 -27 -8.03999328613 -57 -58 callsubr
          -6 6 rcurveline
          -35 callgsubr
          -3 34 13 32 54.5800018311 12 rrcurveto
          endchar
        </CharString>
        <CharString name="J">
          -211 35.0800018311 -52 callsubr
          577.330001831 -30 callsubr
          endchar
        </CharString>
        <CharString name="K">
          -70 callsubr
          34.8300018311 -64 callgsubr
          6.16999816895 -38 callsubr
          endchar
        </CharString>
        <CharString name="Kcommaaccent">
          -70 callsubr
          34.8399963379 -64 callgsubr
          6.16000366211 -38 callsubr
          -329.61000061 -294.690002441 -50 callgsubr
        </CharString>
        <CharString name="L">
          17 642.839996338 231.539993286 -67 callgsubr
        </CharString>
        <CharString name="Lacute">
          17 193 761 -107 callgsubr
          456.850006104 -536.460006714 -67 callgsubr
        </CharString>
        <CharString name="Lcaron">
          17 434.330001831 500.270004272 -49 callsubr
          211.240005493 -277.720001221 -67 callgsubr
        </CharString>
        <CharString name="Lcommaaccent">
          17 642.839996338 231.539993286 -93 callsubr
          -357.710006714 -504.539993286 -97 callgsubr
        </CharString>
        <CharString name="Ldot">
          17 642.839996338 231.539993286 -93 callsubr
          -184.080001831 95.9700012207 rmoveto
          -107 callsubr
          endchar
        </CharString>
        <CharString name="Lslash">
          17 642.839996338 -45 callsubr
          332.300003052 hlineto
          103.529998779 59.8899993896 -26.0200042725 45.9700012207 -77.5099945068 -44.8399963379 rlineto
          183.279998779 vlineto
          34.8300018311 0.690002441406 28.3999938965 28.0500030518 35 hhcurveto
          12.6499938965 -9 callsubr
          10 rlineto
          -358.800003052 hlineto
          -46 callgsubr
          35 28.3999938965 -28.0500030518 -34.8300018311 0.660003662109 hvcurveto
          -301.88999939 vlineto
          -89.1300048828 -51.5599975586 4 callgsubr
          63.1100006104 36.5099945068 rlineto
          -191.419998169 -98 callgsubr
          584.559997559 -47 callsubr
        </CharString>
        <CharString name="M">
          333 814.440002441 713.699996948 rmoveto
          -9.13999938965 hlineto
          -308.529998779 -458.949996948 -335.369995117 459.25 rlineto
          -9.2799987793 hlineto
          -87.7899932861 -641.350006104 rlineto
          -39.5299987793 -5.25999450684 -32 -23.1199951172 -36.0800018311 hhcurveto
          -16 -10 219.589996338 9.44000244141 -15.5800018311 hlineto
          -21.5399932861 -17.4400024414 21.1000061035 21.5599975586 hvcurveto
          35.0399932861 283.029998779 259.770004272 -359.169998169 rlineto
          9.42999267578 hlineto
          -1.94000244141 53.3899993896 43.2599945068 62.7200012207 0 vvcurveto
          170 252.289993286 38.3600006104 -292.259994507 rlineto
          -21.5599975586 -17.4400024414 -21.1000061035 -21.5399932861 vhcurveto
          -15.5800018311 -9.44000244141 354.210006714 10 -15.9199981689 hlineto
          -35.75 -30 23.1199951172 39.5299987793 -7.13000488281 hvcurveto
          endchar
        </CharString>
        <CharString name="N">
          246 495.229995728 700.020004272 -96 callsubr
          45.1699981689 -71 callgsubr
          endchar
        </CharString>
        <CharString name="Nacute">
          246 394.800003052 761 -107 callgsubr
          107.429992676 -67.9799957275 -96 callsubr
          45.1600036621 -71 callgsubr
          endchar
        </CharString>
        <CharString name="Ncaron">
          246 418.630004883 763.970001221 -95 callsubr
          -82.6999969482 -239.380004883 -96 callsubr
          45.1600036621 -71 callgsubr
          endchar
        </CharString>
        <CharString name="Ncommaaccent">
          246 495.229995728 700.020004272 -96 callsubr
          45.1600036621 -71 callgsubr
          -412.190002441 -973.020004272 -97 callgsubr
        </CharString>
        <CharString name="Ntilde">
          246 619.199996948 919.279998779 -98 callsubr
          -111.61000061 -219.259994507 -96 callsubr
          45.1600036621 -71 callgsubr
          endchar
        </CharString>
        <CharString name="O">
          270 450.429992676 714 -99 callsubr
        </CharString>
        <CharString name="OE">
          507 1117.83999634 -45 callsubr
          269.630004883 110.300003052 hlineto
          62.7899932861 -1.7799987793 44.5 -45.0800018311 -0.210006713867 -62.3800048828 rrcurveto
          -4.72999572754 vlineto
          9.77000427246 -0.119995117188 rlineto
          278.259994507 vlineto
          -9.77000427246 -0.130004882812 rlineto
          -4.72999572754 vlineto
          0.220001220703 -62.8000030518 -45.0500030518 -45.2700042725 -63.5500030518 -1.19999694824 rrcurveto
          -109 279.160003662 144.979995728 hlineto
          78.7700042725 -2.88000488281 46.3099975586 -47.9600067139 -0.190002441406 -78.6699981689 -36 callsubr
          206.270004272 vlineto
          -18.6000061035 -36 callgsubr
          -307.580001831 hlineto
          -23 -23 2 3 -22 hvcurveto
          5 -37 -30 4 -46 hhcurveto
          -266 -158 -135 -227 -231 163 -135 249 61 29 8 4 50 hvcurveto
          2 26.5800018311 15.9199981689 0 10.6399993896 hhcurveto
          449.429992676 hlineto
          38.2799987793 231.539993286 rlineto
          -546.440002441 -127.339996338 rmoveto
          -29.1999969482 -0.399993896484 -45 -39 -75 hhcurveto
          -128 -87 116 198 1 hvcurveto
          207 1 92 107 122 hhcurveto
          76 43 -41 -27.4499969482 0.399993896484 hvcurveto
          endchar
        </CharString>
        <CharString name="Oacute">
          270 433.429992676 775 -107 callgsubr
          24 -68 -99 callsubr
        </CharString>
        <CharString name="Ocircumflex">
          270 443.179992676 945.759994507 -92 callsubr
          176.119995117 -56.3399963379 -99 callsubr
        </CharString>
        <CharString name="Odieresis">
          270 315.589996338 769.490005493 -105 callgsubr
          -127.759994507 -55.4900054932 -99 callsubr
        </CharString>
        <CharString name="Ograve">
          270 477.339996338 784.910003662 -99 callgsubr
          -19.9100036621 -63.9100036621 rmoveto
          -257.990005493 -157.449996948 -135.199996948 -228.800003052 -228.789993286 157.449996948 -135.199996948 257.990005493 257.990005493 157.449996948 135.199996948 228.789993286 228.800003052 -157.449996948 135.199996948 -257.990005493 hvcurveto
          -678.080001831 vmoveto
          -128.710006714 -71.0599975586 116.649993896 197.410003662 -13 callgsubr
          128.710006714 71.0599975586 -116.660003662 -197.419998169 -197.410003662 -71.0599975586 -116.649993896 -128.710006714 hvcurveto
          endchar
        </CharString>
        <CharString name="Ohungarumlaut">
          270 325.949996948 778 -107 callgsubr
          217 -7 -107 callgsubr
          -78.5200042725 -71 -99 callsubr
        </CharString>
        <CharString name="Omacron">
          270 308.25 809.36000061 -40 callgsubr
          142.179992676 -180.36000061 -99 callsubr
        </CharString>
        <CharString name="Omega">
          244 849.559997559 259.800003052 rmoveto
          -63.3800048828 -35.1799926758 -22.5099945068 -21.3999938965 -59.4299926758 hhcurveto
          -189.949996948 hlineto
          169.179992676 141.449996948 93 160.600006104 163.080001831 -175.619995117 122.309997559 -236.830001831 -236.570007324 -178.429992676 -117.970001221 -167.429992676 -158.199996948 145 -95.3999938965 163.929992676 hvcurveto
          -187.490005493 hlineto
          -59.4299926758 0.0200042724609 -22.5099945068 21.3999938965 -35.1799926758 63.3800048828 rrcurveto
          -10 hlineto
          47.7200012207 -259.800003052 rlineto
          327.149993896 hlineto
          20 175 -108.190002441 33 -71 79 0.110000610352 137.850006104 rlinecurve
          136.660003662 0.110000610352 88.0200042725 102.490005493 117.759994507 hhcurveto
          115.259994507 85.7599945068 -100.869995117 -134.5 0.429992675781 hvcurveto
          -0.449996948242 -143.630004883 -73 -74 -107.589996338 -36 20 -175 rcurveline
          329.759994507 hlineto
          47.7200012207 259.800003052 rlineto
          endchar
        </CharString>
        <CharString name="Oslash">
          270 765.699996948 691.580001831 2 callsubr
          -48.4900054932 -56.3800048828 rlineto
          28.8399963379 -61.75 -75.1999969482 15.1999969482 -86.5099945068 hhcurveto
          -257.990005493 -157.449996948 -135.199996948 -228.800003052 -121.190002441 44.1699981689 -94.9299926758 79.8899993896 -62.4900054932 hvcurveto
          -50.2200012207 -58.3899993896 44.0099945068 -36 54.1199951172 63.1000061035 rlineto
          -35.3500061035 65.25 82.1300048828 -18.75 96.0800018311 hhcurveto
          257.990005493 157.449996948 135.199996948 228.789993286 130.270004272 -51.0299987793 99.9299926758 -91.5700073242 61.9100036621 hvcurveto
          -454.759994507 -443.470001221 rmoveto
          -11.7799987793 42.9799957275 -6.05999755859 50.75 57.6399993896 vvcurveto
          -13 callgsubr
          64.0500030518 49.7700042725 -28.8899993896 -53.3500061035 33.8399963379 vhcurveto
          26.3000030518 -55.0200042725 rmoveto
          17.0099945068 -47.8999938965 8.80000305176 -59.4600067139 -69.4600067139 vvcurveto
          -197.410003662 -71.0599975586 -116.649993896 -128.710006714 -71.7299957275 -53.8200073242 36.2299957275 66.25 -33.6000061035 vhcurveto
          endchar
        </CharString>
        <CharString name="Otilde">
          270 657.820007324 933.279998779 -98 callsubr
          -195.039993286 -219.289993286 -99 callsubr
        </CharString>
        <CharString name="P">
          72 35.3500061035 700 rmoveto
          -34 callgsubr
          12.4900054932 hlineto
          33.3800048828 0.0800018310547 27.2799987793 -25.2700042725 3.25 -32.3600006104 rrcurveto
          -559.589996338 vlineto
          -34.8300018311 -0.690002441406 -28.3999938965 -28.0500030518 -35 hhcurveto
          -12.6499938965 -80 callgsubr
          -10 rlineto
          358.899993896 -51 callsubr
          -12.7400054932 hlineto
          -34.9199981689 -53 callgsubr
          577.13999939 35.2799987793 -55 callsubr
        </CharString>
        <CharString name="Q">
          277 1368.92999268 -64 rmoveto
          -102.929992676 -74 -145 -11 -200 73 -131.970001221 48 -62.4600067139 23 -97.2700042725 15.7400054932 rrcurveto
          153.050003052 48.7700042725 88.5200042725 118.929992676 171.550003052 vvcurveto
          228.800003052 -157.449996948 135.199996948 -257.990005493 -257.990005493 -157.449996948 -135.199996948 -228.800003052 -228.080001831 156.460006714 -134.910003662 256.550003052 -1 vhcurveto
          120.990005493 -4 86 -116 164 -90 306 -167 246 108 -0.25 216 rrcurveto
          -1115.08000183 416.990005493 rmoveto
          197.419998169 72.3399963379 116.660003662 122.419998169 122.419998169 72.3399963379 -116.660003662 -197.419998169 -197.410003662 -72.3399963379 -116.649993896 -122.419998169 -122.419998169 -72.3399963379 116.649993896 197.410003662 vhcurveto
          endchar
        </CharString>
        <CharString name="R">
          158 35 700 -97 callsubr
          endchar
        </CharString>
        <CharString name="Racute">
          158 374 761 -107 callgsubr
          -332 -68 -97 callsubr
          endchar
        </CharString>
        <CharString name="Rcaron">
          158 397.830001831 763.970001221 -95 callsubr
          -522.130004883 -239.399993896 -97 callsubr
          endchar
        </CharString>
        <CharString name="Rcommaaccent">
          158 35 700 -97 callsubr
          -4.38999938965 -973 -97 callgsubr
        </CharString>
        <CharString name="S">
          10 302.740005493 -15 callgsubr
          49 4 50 35 82 hhcurveto
          99 60 -50 -72.9700012207 -2 callgsubr
          hvcurveto
          -92 callgsubr
          rrcurveto
          -35.6399993896 34.6499938965 86 -29 116 hhcurveto
          189 115 77 143 10 hvcurveto
          -41 callgsubr
          endchar
        </CharString>
        <CharString name="Sacute">
          10 303.039993286 761 -107 callgsubr
          6.69999694824 -281.470001221 -42 callsubr
          rrcurveto
          49 4 50 35 82 hhcurveto
          99 60 -50 -72.9700012207 -2 callgsubr
          hvcurveto
          -92 callgsubr
          rrcurveto
          -35.6399993896 34.6499938965 86 -29 116 hhcurveto
          189 115 77 143 10 hvcurveto
          -41 callgsubr
          endchar
        </CharString>
        <CharString name="Scaron">
          10 326.86000061 763.970001221 -95 callsubr
          -183.429992676 -452.869995117 -42 callsubr
          rrcurveto
          49 4 50 35 82 hhcurveto
          99 60 -50 -72.9700012207 -2 callgsubr
          hvcurveto
          -92 callgsubr
          rrcurveto
          -35.6399993896 34.6499938965 86 -29 116 hhcurveto
          189 115 77 143 10 hvcurveto
          -41 callgsubr
          endchar
        </CharString>
        <CharString name="Scedilla">
          10 302.740005493 -15 callgsubr
          49 4 50 35 82 hhcurveto
          99 60 -50 -72.9700012207 -2 callgsubr
          hvcurveto
          -92 callgsubr
          32.6300048828 -33.5599975586 78.1600036621 -28.0800018311 105.86000061 -3 -47.6000061035 -61 rcurveline
          -86 callsubr
          42 48 rcurveline
          163.929992676 11 98.7899932861 75.9299926758 9.22999572754 132.070007324 -41 callgsubr
          endchar
        </CharString>
        <CharString name="Scommaaccent">
          -20 292.740005493 -15 callgsubr
          48.9900054932 4.08000183105 49.9199981689 35.0099945068 82 hhcurveto
          43.3800048828 35.8899993896 -9.60000610352 -16.9299926758 26.6699981689 hvcurveto
          34.1900024414 -21.6999969482 19.0399932861 -33.7400054932 -3 callgsubr
          -40.9900054932 rrcurveto
          -92 callgsubr
          rrcurveto
          -35.6399993896 34.6499938965 86 -29 116 hhcurveto
          189 115 77 143 10 hvcurveto
          -41 callgsubr
          -234.5 -673.220001221 -97 callgsubr
        </CharString>
        <CharString name="T">
          -78 callgsubr
          endchar
        </CharString>
        <CharString name="Tbar">
          63 127.649993896 701 -83 callgsubr
          -247.660003662 -150.460006714 -50 150.460006714 -282.119995117 -65 callgsubr
          358.919998169 -18 callsubr
          -34.7299957275 -28.2299957275 27.6199951172 34.4600067139 -1.07000732422 hvcurveto
          281.289993286 150.020004272 50 -150.020004272 247.660003662 98.2400054932 vlineto
          80.8399963379 -1.61000061035 47.6499938965 -48.1999969482 -0.190002441406 -79.8000030518 -36 callsubr
          205.740005493 vlineto
          -18.3300018311 -7.72999572754 -56.4100036621 -9.80999755859 -42.9199981689 -0.630004882812 rrcurveto
          endchar
        </CharString>
        <CharString name="Tcaron">
          63 356.830001831 763.970001221 -95 callsubr
          -388.479995728 -238.399993896 -83 callgsubr
          -579.789993286 -68 callgsubr
          endchar
        </CharString>
        <CharString name="Tcedilla">
          63 127.649993896 701 -83 callgsubr
          -579.789993286 -65 callgsubr
          137.86000061 hlineto
          -48.1499938965 -62 -86 callsubr
          41.6999969482 48 rcurveline
          159.869995117 -85 callsubr
          endchar
        </CharString>
        <CharString name="Thorn">
          72 324.61000061 558.029998779 rmoveto
          69.7799987793 -66 callgsubr
          435.169998169 27.6900024414 -55 callsubr
        </CharString>
        <CharString name="U">
          210 600.179992676 700 rmoveto
          -10 -57 callsubr
          vlineto
          28.4199981689 23.1499938965 -20.1000061035 -28.0399932861 1.25 hvcurveto
          -394.479995728 vlineto
          -131.940002441 -0.309997558594 -67.8399963379 -77.9600067139 -114.729995728 hhcurveto
          -114.61000061 -67.7200012207 82.75 140.039993286 hvcurveto
          381.699996948 vlineto
          27.9799957275 1.2200012207 23.1199951172 20.0500030518 28.3899993896 -31 callsubr
          -343.11000061 -26 callgsubr
          28.8899993896 23.4400024414 -20.7599945068 -28.7599945068 0.539993286133 hvcurveto
          -384.899993896 vlineto
          -168.009994507 -34 callsubr
          -11 callsubr
          -101.589996338 245.059997559 hhcurveto
          191.690002441 107.850006104 102.13999939 169.210006714 hvcurveto
          385.449996948 vlineto
          27.5599975586 1.74000549316 22.9499969482 19.6699981689 28.1100006104 -31 callsubr
          hlineto
          endchar
        </CharString>
        <CharString name="Uacute">
          210 465.990005493 761 -107 callgsubr
          141.190002441 -68 -102 callgsubr
        </CharString>
        <CharString name="Ucircumflex">
          210 475.75 931.759994507 -92 callsubr
          293.300003052 -56.3399963379 -102 callgsubr
        </CharString>
        <CharString name="Udieresis">
          210 348.149993896 755.479995728 -105 callgsubr
          -10.5700073242 -55.4900054932 -102 callgsubr
        </CharString>
        <CharString name="Ugrave">
          210 509.899993896 770.910003662 -99 callgsubr
          97.2799987793 -63.9100036621 -102 callgsubr
        </CharString>
        <CharString name="Uhungarumlaut">
          210 358.509994507 764 -107 callgsubr
          217 -7 -107 callgsubr
          38.6699981689 -71 -102 callgsubr
        </CharString>
        <CharString name="Umacron">
          210 340.809997559 795.36000061 -40 callgsubr
          259.369995117 -180.36000061 -102 callgsubr
        </CharString>
        <CharString name="Uogonek">
          210 825.070007324 700 rmoveto
          -224.88999939 -26 callgsubr
          28.4199981689 23.1499938965 -20.1000061035 -28.0399932861 1.25 hvcurveto
          -394.479995728 vlineto
          -131.940002441 -0.309997558594 -67.8399963379 -77.9600067139 -114.729995728 hhcurveto
          -114.61000061 -67.7200012207 82.75 140.039993286 hvcurveto
          381.699996948 vlineto
          27.9799957275 1.2200012207 23.1199951172 20.0500030518 28.3800048828 -31 callsubr
          -343.11000061 -26 callgsubr
          28.8899993896 23.4400024414 -20.7599945068 -28.7599945068 0.539993286133 hvcurveto
          -384.899993896 vlineto
          -0.0899963378906 -160.350006104 102.289993286 -100.240005493 222.380004883 -8 -40.6300048828 -10 -37.2799987793 -27 -7.33999633789 -52 -58 callsubr
          -6 6 rcurveline
          -35 callgsubr
          -2.96000671387 33 12.6300048828 32 52.8200073242 13 172.550003052 10 96.4199981689 100.350006104 -10 callgsubr
          159.990005493 rrcurveto
          385.449996948 vlineto
          27.5599975586 1.74000549316 22.9499969482 19.6699981689 28.1100006104 hhcurveto
          -57 callsubr
          hlineto
          endchar
        </CharString>
        <CharString name="Uring">
          210 482.850006104 941.630004883 -88 callgsubr
          118.440002441 -211.86000061 -102 callgsubr
        </CharString>
        <CharString name="V">
          85 537.100006104 700 rmoveto
          -9.91000366211 8.78999328613 vlineto
          25.8200073242 30.1799926758 -22.7599945068 -40.0200042725 -17.6000061035 hvcurveto
          -149.149993896 -343.330001831 -143.5 343.330001831 rlineto
          40.0200042725 -14 26.9299926758 22.75 25.8200073242 hhcurveto
          8.78999328613 9.91000366211 -379.169998169 -10 8 hlineto
          29 32.8800048828 -16.2899932861 -38.8899993896 22.2799987793 hvcurveto
          316.809997559 -658.830001831 rlineto
          9.00999450684 hlineto
          4 33.7200012207 41.3000030518 90.3600006104 11.75 25.0599975586 233.339996338 510.839996338 rcurveline
          38.0599975586 21.6199951172 33.5099945068 15.9700012207 27.8999938965 hhcurveto
          9 10 hlineto
          endchar
        </CharString>
        <CharString name="W">
          329 785.800003052 700 -101 callsubr
        </CharString>
        <CharString name="Wacute">
          329 526.309997559 761 -107 callgsubr
          266.490005493 -68 -101 callsubr
        </CharString>
        <CharString name="Wcircumflex">
          329 536.059997559 931.759994507 -92 callsubr
          418.61000061 -56.3399963379 -101 callsubr
        </CharString>
        <CharString name="Wdieresis">
          329 408.470001221 755.479995728 -105 callgsubr
          114.740005493 -55.4900054932 -101 callsubr
        </CharString>
        <CharString name="Wgrave">
          329 570.220001221 770.910003662 -99 callgsubr
          222.589996338 -63.8999938965 -101 callsubr
        </CharString>
        <CharString name="X">
          138 810.080001831 10 rmoveto
          -13.6300048828 hlineto
          -42 -39 27.4499969482 30.8699951172 -20.8200073242 hvcurveto
          -205.729995728 314.529998779 166.729995728 248.759994507 rlineto
          30.7200012207 21.7700042725 35.9100036621 27.6699981689 41.8200073242 hhcurveto
          14 hlineto
          -6 callsubr
          10.0200042725 rlineto
          -258.550003052 hlineto
          0.169998168945 -10.0200042725 rlineto
          12.6000061035 hlineto
          27.2100067139 25.0599975586 -33.5200042725 -28.3399963379 -17.0099945068 hvcurveto
          -113.789993286 -177.619995117 -116.169998169 177.61000061 rlineto
          28.3500061035 -17.0200042725 23.8300018311 33.5599975586 27.2200012207 hhcurveto
          12.6000061035 hlineto
          -6 callsubr
          9.9700012207 rlineto
          -401.929992676 -9.9700012207 14 hlineto
          41.5099945068 38.6799926758 -27.7599945068 -30.7400054932 20.8699951172 hvcurveto
          190.669998169 -292.789993286 -199.089996338 -271.820007324 rlineto
          -30.1199951172 -23.6799926758 -33.8800048828 -26.7799987793 -41.0800018311 hhcurveto
          -14 -10.0200042725 260.039993286 hlineto
          -6 callsubr
          10.0200042725 rlineto
          -12.6000061035 hlineto
          -27.2700042725 -27.1100006104 33.6699981689 28.3899993896 19.2400054932 hvcurveto
          142.289993286 201.119995117 131.300003052 -201.619995117 rlineto
          -28.3899993896 17.2200012207 -23.8800048828 -33.1900024414 -27.2700042725 hhcurveto
          -12.6000061035 hlineto
          0.169998168945 -10 rlineto
          403.899993896 hlineto
          endchar
        </CharString>
        <CharString name="Y">
          94 525.509994507 700.020004272 -100 callsubr
        </CharString>
        <CharString name="Yacute">
          94 418.009994507 761 -107 callgsubr
          114.509994507 -67.9799957275 -100 callsubr
        </CharString>
        <CharString name="Ycircumflex">
          94 427.759994507 931.759994507 -92 callsubr
          266.619995117 -56.3200073242 -100 callsubr
        </CharString>
        <CharString name="Ydieresis">
          94 300.169998169 755.490005493 -105 callgsubr
          -37.25 -55.4700012207 -100 callsubr
        </CharString>
        <CharString name="Ygrave">
          94 461.910003662 770.910003662 -99 callgsubr
          70.6000061035 -63.8899993896 -100 callsubr
        </CharString>
        <CharString name="Z">
          33 633.839996338 231.539993286 -90 callgsubr
        </CharString>
        <CharString name="Zacute">
          33 318 761 -107 callgsubr
          322.850006104 -536.460006714 -90 callgsubr
        </CharString>
        <CharString name="Zcaron">
          33 341.830001831 763.970001221 -95 callsubr
          132.710006714 -707.850006104 -90 callgsubr
        </CharString>
        <CharString name="Zdotaccent">
          33 335 764 rmoveto
          -107 callsubr
          298.850006104 -532.460006714 -90 callgsubr
        </CharString>
        <CharString name="a">
          -3 307.61000061 636.410003662 -105 callsubr
        </CharString>
        <CharString name="aacute">
          -3 287.520004272 661 -107 callgsubr
          27.0899963379 -31.5899963379 -105 callsubr
        </CharString>
        <CharString name="abreve">
          -3 431.309997559 827.649993896 -81 callgsubr
          -136.410003662 -191.240005493 -105 callsubr
        </CharString>
        <CharString name="acircumflex">
          -3 297.270004272 831.759994507 -92 callsubr
          179.210006714 -19.9299926758 -105 callsubr
        </CharString>
        <CharString name="acute">
          -35 210.669998169 742.970001221 -107 callgsubr
          endchar
        </CharString>
        <CharString name="adieresis">
          -3 169.679992676 655.490005493 -105 callgsubr
          -124.660003662 -19.0800018311 -105 callsubr
        </CharString>
        <CharString name="ae">
          250 867.919998169 208.850006104 rmoveto
          -103.619995117 -27.25 -72.6399993896 -59.6399993896 -84.2299957275 hhcurveto
          -92.1900024414 225.020004272 82.25 hlineto
          56.0099945068 -3.19000244141 39.1000061035 -40.7400054932 -0.199996948242 -56.2799987793 rrcurveto
          -2.94999694824 vlineto
          8.38000488281 -23 callsubr
          rlineto
          251.660003662 vlineto
          -8.38000488281 -23 callsubr
          rlineto
          -2.94000244141 vlineto
          0.210006713867 -56.7299957275 -39.6699981689 -40.9400024414 -56.7899932861 -2.61000061035 rrcurveto
          -80.9100036621 237.800003052 107.779998779 hlineto
          73.2799987793 -2.72999572754 42.4799957275 -44.0500030518 -0.190002441406 -73.2200012207 rrcurveto
          -5.92999267578 vlineto
          8.69999694824 -0.130004882812 rlineto
          187.240005493 vlineto
          -16 -6.69999694824 -49.5200042725 -8.53999328613 1 callsubr
          -355.559997559 -8.57000732422 4.41000366211 hlineto
          22.3899993896 12.6600036621 -19.4700012207 -24.3500061035 -16.4100036621 hvcurveto
          -336.679992676 -483.88999939 rlineto
          -39.6300048828 -28.1300048828 -21.3999938965 -13.1399993896 -25.3300018311 hhcurveto
          -8 -10 208.899993896 9.89999389648 -7.49000549316 hlineto
          -21.25 0.190002441406 -33.4799957275 16.4700012207 19.0399932861 33.9600067139 131.699996948 210.089996338 rcurveline
          133.820007324 -220.589996338 hlineto
          -22.9700012207 -0.440002441406 -18.7899932861 -17.0700073242 -23.1499938965 hhcurveto
          -8.36999511719 hlineto
          -23 callsubr
          -10 rlineto
          496.089996338 hlineto
          31.0599975586 208.839996338 rlineto
          -581.86000061 106.839996338 rmoveto
          105.570007324 168.399993896 rlineto
          -168.399993896 vlineto
          endchar
        </CharString>
        <CharString name="agrave">
          -3 331.429992676 670.910003662 -99 callgsubr
          -16.8099975586 -27.5 -105 callsubr
        </CharString>
        <CharString name="amacron">
          -3 162.339996338 695.36000061 -40 callgsubr
          145.270004272 -143.949996948 -105 callsubr
        </CharString>
        <CharString name="ampersand">
          276 920 11 rmoveto
          -45.6300048828 22.0500030518 -56.6100006104 45.7599945068 -84.3099975586 73.4299926758 32.8899993896 61.9199981689 12.6699981689 72.6199951172 5.99000549316 70.2299957275 3 35 0 23 31.4199981689 -0.410003662109 rrcurveto
          13.7599945068 10 -255.830001831 -10 14.3999938965 hlineto
          22.2400054932 -2 callgsubr
          21 -12 16 -34 19.2400054932 -41.1300048828 3.44000244141 -56.9299926758 -12.7899932861 -54.9600067139 -133.88999939 115.020004272 rcurveline
          -114 98 -62 60 73.6000061035 vvcurveto
          59.3999938965 41 42 61 94 21 -98 -86.0500030518 1 vhcurveto
          9.13000488281 hlineto
          47.25 163.199996948 rlineto
          50.8500061035 -33.3800048828 -97 20 -85 hhcurveto
          -126 -143 -44 -138.960006714 -46.6000061035 16.1600036621 -44.8200073242 26.5500030518 -42.9799957275 hvcurveto
          -74.1199951172 -20.3600006104 -84.5899963379 -55.1300048828 -110.13999939 vvcurveto
          -190 250 -31 126 83.5800018311 65.2799987793 13.7100067139 23.4600067139 51.0800018311 vhcurveto
          104.149993896 3 callsubr
          120.160003662 13.2799987793 95.4700012207 10.8399963379 rrcurveto
          -682.720001221 244 rmoveto
          -2.25 30.1300048828 3.46000671387 23.9499969482 6.13000488281 18.9799957275 36.0299987793 -39.1100006104 42.2700042725 -37.3699951172 43.3699951172 -35.5800018311 26.5500030518 -21.2400054932 98.6199951172 -83.1300048828 56.2899932861 -41.0099945068 rrcurveto
          -12.4299926758 -24.6300048828 -28.4700012207 -7.19000244141 -32.3600006104 hhcurveto
          -92 -122 59 145 -11 hvcurveto
          endchar
        </CharString>
        <CharString name="aogonek">
          -3 308.009994507 625.449996948 rmoveto
          -53 callsubr
          hlineto
          -3.57000732422 -29.3099975586 -36.1600036621 -77.9600067139 -10.7299957275 -23.4400024414 -202 -435.089996338 rcurveline
          -36.0599975586 -18.6900024414 -32.0299987793 -13.5899963379 -25 hhcurveto
          -8 -10 196.220001221 9.91000366211 -7.69000244141 hlineto
          -21.9900054932 -25.6399993896 16.9100036621 32.2599945068 12.8600006104 hvcurveto
          32.9199981689 73.8500061035 rlineto
          190.11000061 hlineto
          28.9799957275 -67.2599945068 15.7799987793 -39.8999938965 -2.02000427246 -18.9700012207 -20.9700012207 -13.8099975586 -29 callsubr
          16.8300018311 124.429992676 -11.8300018311 26.2599945068 -1 rrcurveto
          10 vlineto
          0 -57.6699981689 7.22999572754 -23.2100067139 44.5500030518 vhcurveto
          -414.990005493 118.369995117 rmoveto
          76.9700012207 172.649993896 74.3800048828 -172.649993896 rlineto
          endchar
        </CharString>
        <CharString name="approxequal">
          -153 67.8000030518 329.679992676 -59 callsubr
          47.8000030518 -213.36000061 -59 callsubr
          endchar
        </CharString>
        <CharString name="aring">
          -3 304.369995117 841.630004883 -88 callgsubr
          4.33999633789 -175.460006714 -105 callsubr
        </CharString>
        <CharString name="asciicircum">
          -63 253.339996338 380.63999939 rmoveto
          68.0500030518 hlineto
          216.300003052 -208.75 rlineto
          -88.75 hlineto
          -161.630004883 153.25 -163.440002441 -153.25 rlineto
          -88.8800048828 hlineto
          endchar
        </CharString>
        <CharString name="asciitilde">
          -141 393.38999939 362.649993896 rmoveto
          27.7700042725 -60.8800048828 -35.8300018311 -34.2899932861 -39.3399963379 1.2200012207 -47.3399963379 1.46000671387 -83.6100006104 98.8999938965 -74.9199981689 -1.41999816895 -67.3999938965 -1.2799987793 -64 -53.2200012207 23.1199951172 -104.449996948 rrcurveto
          65.4100036621 hlineto
          -16.0399932861 69.9799957275 25.3300018311 25.5500030518 33.3099975586 -1.57000732422 rrcurveto
          -2.58000183105 54.8800048828 76.9299926758 -96.3800048828 74.0299987793 hhcurveto
          71.3000030518 73.9499969482 50.3800048828 108.570007324 -30.1300048828 hvcurveto
          endchar
        </CharString>
        <CharString name="asterisk">
          -245 202.270004272 605.220001221 rmoveto
          72.1799926758 -14.2100067139 81.2400054932 13.1499938965 -3.05999755859 54.7299957275 -29.6900024414 46.0800018311 -73.2100067139 -37.8699951172 -49.8500061035 -53.6300048828 35.6300048828 64.0399932861 12.6000061035 81.3300018311 -53 14 -53 -14 13.3999938965 -81.3300018311 35.5800018311 -63.9400024414 -49.8800048828 53.6399993896 -73.4499969482 37.1199951172 -29.6900024414 -46.0800018311 -3.05999755859 -54.7299957275 81.4900054932 -12.3899993896 71.8600006104 14.0899963379 -66.5 -30.8500061035 -58 -58.3899993896 34.6499938965 -42.4799957275 51.1100006104 -19.8300018311 36.9600067139 73.6699981689 rlineto
          8.83000183105 72.8800048828 8.82000732422 -72.9600067139 37.6100006104 -73.1999969482 51.1100006104 19.8300018311 34.6499938965 42.4799957275 -58.6399993896 57.9199981689 rlineto
          endchar
        </CharString>
        <CharString name="at">
          363 507.309997559 189.960006714 rmoveto
          8.10000610352 -53.0200042725 rlineto
          -29.8600006104 4.58999633789 -29.4400024414 -16.9700012207 -16.6000061035 hhcurveto
          -6.96000671387 hlineto
          -1.30000305176 -7.38999938965 rlineto
          238.669998169 hlineto
          1.32000732422 7.46000671387 rlineto
          -5.11000061035 hlineto
          -19.7100067139 -13.4499969482 13.7799987793 33.2400054932 -6.77000427246 hvcurveto
          -83.4100036621 403.699996948 rlineto
          -6.7200012207 hlineto
          -8.38000488281 -19.5200042725 -46.3500061035 -57.3399963379 0 vvcurveto
          -127.039993286 -173.050003052 -50.9400024414 -64 -60 -112 -73 3 rlinecurve
          -80 3 16 141 61 128 103 218 181 66 139 -32 135 -31 69 -118 -10 -172 -18 -310 -261 -201 -335.970001221 137 4 -10 rcurveline
          454.970001221 -184 303 254 8 307 5 189 -110 152 -238 33 -257 35 -243 -125 -84 -203 -75.8000030518 -183 95.8000030518 -146 138 7 61.5200042725 3.08000183105 42.0099945068 32.6499938965 62.9100036621 81.2400054932 rrcurveto
          112.229995728 155.990005493 rmoveto
          18.4799957275 -120.86000061 rlineto
          -104.330001831 hlineto
          endchar
        </CharString>
        <CharString name="atilde">
          -3 511.910003662 819.279998779 -98 callsubr
          -191.949996948 -182.880004883 -105 callsubr
        </CharString>
        <CharString name="b">
          -9 23 -6 callgsubr
          -10 10.9499969482 vlineto
          28.7100067139 22.8500061035 -22.3000030518 -30.1499938965 hvcurveto
          -475.179992676 -48 callsubr
          -22.8500061035 -22.1699981689 -28.7100067139 vhcurveto
          -10.9499969482 -10 317.580001831 hlineto
          158.11000061 -11 callsubr
          50.9799957275 121.669998169 97.5200042725 -70.9499969482 53.9600067139 -78.9900054932 2.64999389648 hvcurveto
          56.0299987793 -0.559997558594 53.8999938965 39.9700012207 84.6399993896 vvcurveto
          120.509994507 -110.559997559 28.7299957275 -126.88999939 vhcurveto
          -55.2100067139 -44.9900054932 rmoveto
          2.47999572754 hlineto
          47.8300018311 41.4400024414 -26.8600006104 -93.1699981689 -64.7200012207 -11.0599975586 -45.6900024414 -52.8999938965 hvcurveto
          -7.99000549316 vlineto
          65.6999969482 1.05000305176 18.2899932861 -55.8699951172 -74.4700012207 vvcurveto
          -103.279998779 -52.2799987793 -35.9799957275 -59.4900054932 -1.99000549316 vhcurveto
          endchar
        </CharString>
        <CharString name="backslash">
          -196 10 696.5 rmoveto
          360.940002441 -710.5 58.6600036621 28.0800018311 -360.509994507 708.919998169 rlineto
          endchar
        </CharString>
        <CharString name="bar">
          2 callgsubr
          -180 rmoveto
          65 880 -65 hlineto
          endchar
        </CharString>
        <CharString name="braceleft">
          -228 85 314.470001221 rmoveto
          16 -1.4700012207 18 -5 6 -16 rrcurveto
          11 -29 -32 -77 -77 vvcurveto
          -108 62 -101 199.880004883 vhcurveto
          1.67999267578 8 -93.5700073242 24 35 81 0.460006713867 97.2200012207 rlinecurve
          -3 callsubr
          164.779998779 -62 19 -76.4299926758 22.3899993896 76.4299926758 23.6100006104 62 -6 0.460006713867 202.210006714 -3 callsubr
          91.7899932861 -13 73 91.5700073242 23.7799987793 -1.67999267578 8 rcurveline
          -199.880004883 0.220001220703 -82 -100 -112 vvcurveto
          -72 34 -84 -10.25 -25.1600036621 vhcurveto
          -7.58000183105 -15.1199951172 -17.5800018311 -0.119995117188 -17.5800018311 -0.119995117188 rrcurveto
          endchar
        </CharString>
        <CharString name="braceright">
          -228 20 724.779998779 rmoveto
          91.5700073242 -23.7799987793 -13 -73 -3 callsubr
          -91.7899932861 0.460006713867 -202.210006714 62 6 76.4299926758 -23.6100006104 -76.4299926758 -22.3899993896 -62 -19 -3 callsubr
          -164.779998779 0.460006713867 -97.2200012207 35 -81 -93.5700073242 -24 1.67999267578 -8 rcurveline
          199.880004883 62 101 108 77 -32 77 11 29 hvcurveto
          6 16 18 5 16 1.4700012207 rrcurveto
          10 vlineto
          -17.5800018311 0.119995117188 -17.5800018311 0.119995117188 -7.58000183105 15.1199951172 rrcurveto
          -10.25 25.1600036621 34 84 72 vvcurveto
          112 -82 100 -199.880004883 -0.220001220703 vhcurveto
          endchar
        </CharString>
        <CharString name="bracketleft">
          -163 120 -90 rmoveto
          312.490005493 10 hlineto
          -107.490005493 50 rlineto
          692 vlineto
          104.179992676 50 rlineto
          10 -309.179992676 vlineto
          endchar
        </CharString>
        <CharString name="bracketright">
          -163 43.3099975586 722 rmoveto
          -10 vlineto
          104.179992676 -50 rlineto
          -692 vlineto
          -107.490005493 -50 rlineto
          -10 312.490005493 812 vlineto
          endchar
        </CharString>
        <CharString name="breve">
          -35 346.990005493 873.729995728 -81 callgsubr
          endchar
        </CharString>
        <CharString name="brokenbar">
          2 callgsubr
          350 rmoveto
          65 350 -65 hlineto
          -880 vmoveto
          65 350 -65 hlineto
          endchar
        </CharString>
        <CharString name="bullet">
          -246 214.710006714 191.589996338 rmoveto
          84.2700042725 28.0500030518 8.39999389648 7.83000183105 27.6499938965 82.7400054932 5.41000366211 16.3200073242 0.220001220703 11.7299957275 -4.78999328613 14.5200042725 -28.3200073242 85.0700073242 -7.7200012207 7.71000671387 -85.1100006104 28.3300018311 -14.3500061035 4.80999755859 -11.2700042725 0 -14.3999938965 -4.83000183105 -85.0700073242 -28.3200073242 -7.71000671387 -7.7200012207 -28.3300018311 -85.1100006104 -4.7799987793 -14.4799957275 -10 callgsubr
          -11.0299987793 4.78999328613 -14.5200042725 28.3200073242 -85.0700073242 7.7200012207 -7.71000671387 85.1100006104 -28.3300018311 rrcurveto
          14.3500061035 -4.80999755859 11.25 0 14.3500061035 4.80999755859 rrcurveto
          endchar
        </CharString>
        <CharString name="c">
          33 605.529998779 249.949996948 rmoveto
          -91 callgsubr
          -201.13999939 144.880004883 -110.380004883 235.520004272 -1 hvcurveto
          137.830001831 66.6999969482 49.4700012207 52.6799926758 30.6999969482 hvcurveto
          -26.2100067139 159.789993286 rlineto
          endchar
        </CharString>
        <CharString name="cacute">
          33 360.070007324 676.270004272 -107 callgsubr
          252.460006714 -433.330001831 rmoveto
          -91 callgsubr
          -201.13999939 144.880004883 -110.380004883 235.520004272 -1 hvcurveto
          137.830001831 66.6999969482 49.4700012207 52.6799926758 30.6999969482 hvcurveto
          -26.2100067139 159.789993286 rlineto
          endchar
        </CharString>
        <CharString name="caron">
          -35 291.770004272 670.550003052 -95 callsubr
          endchar
        </CharString>
        <CharString name="ccaron">
          33 383.899993896 679.25 -95 callsubr
          3 callgsubr
          -604.729995728 rmoveto
          -91 callgsubr
          -201.13999939 144.880004883 -110.380004883 235.520004272 -1 hvcurveto
          137.830001831 66.6999969482 49.4700012207 52.6799926758 30.6999969482 hvcurveto
          -26.2100067139 159.800003052 rlineto
          endchar
        </CharString>
        <CharString name="ccedilla">
          33 612.61000061 249.940002441 rmoveto
          -7.07000732422 hlineto
          -91 callgsubr
          -183.869995117 121.080001831 -108.029998779 200.710006714 -17.6199951172 hvcurveto
          -47.7599945068 -62 -86 callsubr
          38.9499969482 45 rcurveline
          137.679992676 66.6499938965 49.5 52.6499938965 30.6900024414 hvcurveto
          endchar
        </CharString>
        <CharString name="cdotaccent">
          33 377.070007324 679.270004272 rmoveto
          -107 callsubr
          228.460006714 -429.330001831 rmoveto
          -91 callgsubr
          -201.13999939 144.880004883 -110.380004883 235.520004272 -1 hvcurveto
          137.830001831 66.6999969482 49.4700012207 52.6799926758 30.6999969482 hvcurveto
          -26.2100067139 159.789993286 rlineto
          endchar
        </CharString>
        <CharString name="cedilla">
          -35 216.520004272 -62 rmoveto
          -86 callsubr
          42.3800048828 48.7799987793 rcurveline
          -61.2700042725 hlineto
          endchar
        </CharString>
        <CharString name="cent">
          -57 534.169998169 304.229995728 rmoveto
          -6.11000061035 hlineto
          -27.9700012207 -134.449996948 -24.7700042725 -44.9400024414 -107.580001831 -3.52000427246 36.9700012207 449.580001831 rcurveline
          50.8600006104 -9.07000732422 43.3000030518 -33.1900024414 25.8000030518 -89.6499938965 rrcurveto
          6.11000061035 hlineto
          11.0899963379 147.100006104 -28.4700012207 11.5099945068 -47.0299987793 12.1600036621 -58.0700073242 4.91000366211 rlinecurve
          6.99000549316 85 -47.5200042725 1.05000305176 -6.72999572754 -83.8300018311 rlineto
          -112.800003052 1.11000061035 -233.229995728 -36.0899963379 -233.910003662 vvcurveto
          -160.059997559 115.25 -97.1199951172 187.600006104 -11.6799926758 vhcurveto
          -6.83999633789 -85.1399993896 46.0200042725 -3 7.16000366211 87.0700073242 111.929992676 2.46000671387 54.9799957275 41.5299987793 25.7299957275 44.1399993896 rlinecurve
          -235.259994507 -40.8800048828 rmoveto
          -80.2599945068 18.9100036621 -40.2299957275 79.7400054932 0.419998168945 127.509994507 -3 callsubr
          135.910003662 45.8300018311 81.1699981689 110.699996948 4.92999267578 rrcurveto
          endchar
        </CharString>
        <CharString name="circumflex">
          -35 270.179992676 844.070007324 -92 callsubr
          endchar
        </CharString>
        <CharString name="colon">
          -385 125 368.509994507 -82 callsubr
          -382.509994507 vmoveto
          -50 callsubr
        </CharString>
        <CharString name="comma">
          -375 44.6900024414 -129 -38 callgsubr
        </CharString>
        <CharString name="commaaccentcomb">
          -635 36.8800048828 -209 -50 callgsubr
        </CharString>
        <CharString name="copyright">
          213 424 714 rmoveto
          -201.029998779 -162.970001221 -162.970001221 -201.029998779 -201.029998779 162.970001221 -162.970001221 201.029998779 201.029998779 162.970001221 162.970001221 201.029998779 201.029998779 -162.970001221 162.970001221 -201.029998779 hvcurveto
          -52.1699981689 vmoveto
          172 0.169998168945 140 -140 -6 callsubr
          -172 0.169998168945 -172 -140 -140 -172 0.169998168945 -172 -6 callsubr
          -140 140 0.169998168945 172 -6 callsubr
          172 140 140 172 -6 callsubr
          rrcurveto
          186.080001831 -336.050003052 rmoveto
          -101.779998779 -16.0800018311 -60 -55 -89 hhcurveto
          -78.0099945068 -45.9900054932 67.2200012207 113.75 0.179992675781 hvcurveto
          -0.179992675781 114.240005493 44.7799987793 67.5700073242 75.9600067139 0.110000610352 79.2599945068 0.110000610352 51 -45 33.4400024414 -77.2200012207 rrcurveto
          5.91000366211 hlineto
          5.66000366211 120.369995117 -49.0200042725 27.8600006104 -74 15 -57.9700012207 0.149993896484 rlinecurve
          -145.029998779 -0.149993896484 -106 -95 -10 callgsubr
          -127.570007324 -0.00999450683594 -126.429992676 105 -96 143.960006714 -1.14999389648 rrcurveto
          88.8999938965 68.0899963379 34.8200073242 56.8099975586 48.5099945068 hvcurveto
          -23.4700012207 107.330001831 rlineto
          endchar
        </CharString>
        <CharString name="currency">
          -94 491.699996948 153.649993896 rmoveto
          -60.2700042725 60.2700042725 68.1799926758 79.8500061035 -0.380004882812 118.320007324 -68.9400024414 79.4199981689 rlinecurve
          61.4100036621 61.4100036621 -21.2100067139 21.2100067139 -61.3899993896 -61.3899993896 -79.4299926758 69.2400054932 -118.539993286 0.479995727539 -79.9600067139 -68.2799987793 rlinecurve
          -59.9499969482 59.9499969482 -21.2100067139 -21.2100067139 59.7599945068 -59.7599945068 -70.8699951172 -79.9799957275 -0.380004882812 -120.509994507 70.1000061035 -80.4199981689 rlinecurve
          -58.6100006104 -58.6100006104 21.2100067139 -21.2100067139 58.6300048828 58.6300048828 80.4199981689 -69.8099975586 120.289993286 0.479995727539 79.8600006104 70.7700042725 rlinecurve
          60.0800018311 -60.0800018311 rlineto
          -330.580001831 90.2100067139 rmoveto
          -14 callsubr
          -8 callsubr
          0 115.869995117 -8 callsubr
          -8 callsubr
          -8 callsubr
          -8 callsubr
          115.869995117 0 -8 callsubr
          -14 callsubr
          -8 callsubr
          -14 callsubr
          0 -115.869995117 -14 callsubr
          -14 callsubr
          -14 callsubr
          -14 callsubr
          -115.869995117 0 -14 callsubr
          -8 callsubr
          rrcurveto
          endchar
        </CharString>
        <CharString name="d">
          106 18 600.070007324 -1 callsubr
          30.7400054932 24.4600067139 -21.6399993896 -29.5099945068 1.67999267578 hvcurveto
          -474.679992676 vlineto
          -30.2100067139 -25.6900024414 -24.0299987793 -25 callsubr
          vhcurveto
          -11.8600006104 -10 340.289993286 hlineto
          225.820007324 131.899993896 -30 callgsubr
          -131.899993896 110.720001221 -225.820007324 hvcurveto
          -76.5200042725 -45.3699951172 rmoveto
          -66 callsubr
        </CharString>
        <CharString name="dagger">
          -158 458 438.410003662 rmoveto
          -60 callgsubr
          -13 callsubr
          -42.6600036621 -216.130004883 82.4700012207 -335.080001831 rlineto
          10 hlineto
          82.5299987793 335.080001831 -42.3399963379 216.130004883 -22 callgsubr
          rlineto
          endchar
        </CharString>
        <CharString name="daggerdbl">
          -157 434.63999939 182.320007324 rmoveto
          -124.630004883 -42.3800048828 -65.3699951172 -40.0800018311 40.1199951172 62.3200073242 42.0599975586 104.520004272 -42.9400024414 104.520004272 -22 callgsubr
          24 87.3399963379 -60 callgsubr
          rlineto
          -13 callsubr
          -42.0599975586 -104.520004272 42.9400024414 -104.520004272 40.4900054932 -62.4799957275 -64.8600006104 40.1799926758 -125.75 42.4400024414 -24 -87.3399963379 24 -87.6600036621 125.75 42.5599975586 64.5599975586 39.9900054932 -40.1900024414 -61.9199981689 -42.3099975586 -184.949996948 86.3600006104 -24 88.6399993896 24 -42.6900024414 184.949996948 -39.8099975586 61.8999938965 65.0599975586 -39.9199981689 124.630004883 -42.6199951172 24 87.6600036621 rlineto
          endchar
        </CharString>
        <CharString name="dcaron">
          106 366.119995117 664.919998169 -95 callsubr
          -507.410003662 -240.270004272 -69 callsubr
        </CharString>
        <CharString name="dcroat">
          106 217.11000061 696.300003052 -40 callgsubr
          -199.100006104 -181.229995728 -69 callsubr
        </CharString>
        <CharString name="degree">
          -398 118.539993286 664.350006104 rmoveto
          -54.4199981689 -44.1199951172 -44.1199951172 -54.4199981689 -54.4199981689 44.1199951172 -44.1199951172 54.4199981689 54.4199981689 44.1199951172 44.1199951172 54.4199981689 54.4199981689 -44.1199951172 44.1199951172 -54.4199981689 hvcurveto
          -58.4600067139 vmoveto
          22.4400024414 17.6300048828 -12 callgsubr
          -12 callgsubr
          17.6300048828 22.4400024414 22.4400024414 17.6300048828 17.6300048828 22.4400024414 hvcurveto
          endchar
        </CharString>
        <CharString name="dieresis">
          -35 149.199996948 665.490005493 -105 callgsubr
          endchar
        </CharString>
        <CharString name="divide">
          -154 240.5 416.070007324 -48 callgsubr
          -200.5 -138.820007324 rmoveto
          -41 callsubr
          200.5 -242.229995728 -48 callgsubr
          endchar
        </CharString>
        <CharString name="dollar">
          -20 357.020004272 456.850006104 rmoveto
          15.7799987793 205.190002441 79.3200073242 -9.91000366211 46.9600067139 -46.5599975586 0.360000610352 -64.5200042725 rlinecurve
          9.63000488281 hlineto
          21.5800018311 162.710006714 rlineto
          -77.8099975586 hlineto
          -23.8999938965 2.38000488281 -26.7400054932 2.16000366211 -25.6999969482 1.7200012207 5.91000366211 76.9400024414 rcurveline
          -48.5200042725 1.05000305176 -5.75 -75.2299957275 rlineto
          0.800003051758 -17.4100036621 -15.2799987793 0.449996948242 -11.3999938965 hhcurveto
          -134 -85 -63 -116 -14 hvcurveto
          -12 -95 43 -78 91.5700073242 -42.3899993896 120.240005493 -55.5399932861 rcurveline
          -17.3399963379 -226.929992676 -124.589996338 11.2400054932 -73.4499969482 93.1799926758 6.2799987793 98.4900054932 rlinecurve
          -8.78999328613 hlineto
          -33.2299957275 -42.8399963379 -20.7799987793 -97.6999969482 22.4499969482 -48.8699951172 33.8000030518 -34.7700042725 82.6799926758 -28.8699951172 111.720001221 -1 -6.5 -85 rcurveline
          47.9700012207 -3 6.86000061035 89 165.220001221 10 99.6199951172 76.3500061035 9.2799987793 132.649993896 rlinecurve
          -41 callgsubr
          -186.899993896 86.3099975586 -42 callsubr
          3.74000549316 45.8000030518 43.9199981689 33.5700073242 72.6699981689 4.19000244141 -14.1499938965 -185.100006104 rcurveline
          30.3200073242 -235.990005493 rmoveto
          73.5099945068 -34.6100006104 28.9799957275 -32.5800018311 -34 callsubr
          -40.8099975586 0.0899963378906 -47.2299957275 -37.8800048828 -43.4600067139 -80.4100036621 -6.85000610352 rrcurveto
          endchar
        </CharString>
        <CharString name="dotaccent">
          -35 293.919998169 665.490005493 rmoveto
          -107 callsubr
          endchar
        </CharString>
        <CharString name="dotlessi">
          -273 279.059997559 537.660003662 -94 callgsubr
        </CharString>
        <CharString name="e">
          -60 561 210.029998779 rmoveto
          -106 callsubr
          511.720001221 hlineto
          endchar
        </CharString>
        <CharString name="eacute">
          -60 270.690002441 661.440002441 -107 callgsubr
          297.309997559 -458.410003662 rmoveto
          -106 callsubr
          511.720001221 hlineto
          endchar
        </CharString>
        <CharString name="ecaron">
          -60 294.509994507 664.410003662 -95 callsubr
          107.179992676 -629.800003052 rmoveto
          -106 callsubr
          511.720001221 hlineto
          endchar
        </CharString>
        <CharString name="ecircumflex">
          -60 280.440002441 832.199996948 -92 callsubr
          449.429992676 -446.740005493 rmoveto
          -106 callsubr
          511.720001221 hlineto
          endchar
        </CharString>
        <CharString name="edieresis">
          -60 152.850006104 655.919998169 -105 callgsubr
          145.550003052 -445.88999939 rmoveto
          -106 callsubr
          511.720001221 hlineto
          endchar
        </CharString>
        <CharString name="edotaccent">
          -60 287.690002441 664.440002441 rmoveto
          -107 callsubr
          273.309997559 -454.410003662 rmoveto
          -106 callsubr
          511.720001221 hlineto
          endchar
        </CharString>
        <CharString name="egrave">
          -60 314.589996338 671.339996338 -99 callgsubr
          253.399993896 -454.309997559 rmoveto
          -106 callsubr
          511.720001221 hlineto
          endchar
        </CharString>
        <CharString name="eight">
          1 429.850006104 410.419998169 rmoveto
          70.1499938965 16.5200042725 61.8300018311 44.4299926758 72.7400054932 vvcurveto
          101.490005493 -116.320007324 68.3899993896 -131.5 -139.240005493 -106.600006104 -76.3699951172 -132.86000061 -84.2299957275 42.5399932861 -55.4700012207 49.6499938965 -38.8099975586 vhcurveto
          -63.75 -22.2599945068 -71.4299926758 -47.5099945068 -97.1199951172 vvcurveto
          -141.160003662 147.61000061 -32.1999969482 125.520004272 188.070007324 124.449996948 73.4499969482 140.86000061 110.690002441 -76.6100006104 44.8300018311 -8 callgsubr
          54.6000061035 vhcurveto
          -118.850006104 252.570007324 rmoveto
          55.0299987793 -3 27.4900054932 -44 2.47999572754 -55 1.50999450684 -33.4499969482 -6.52000427246 -51.5 -18.6799926758 -35.4199981689 rrcurveto
          -107.25 57.3899993896 -32.5399932861 26.6999969482 54.1399993896 vvcurveto
          49.5700073242 28.9100036621 37.2700042725 49.5700073242 -2.69999694824 vhcurveto
          -5 -627 rmoveto
          -69.7899932861 6.77000427246 -42.3000030518 53.0299987793 93.2799987793 vvcurveto
          41.1199951172 8.36000061035 33.1499938965 14.5599975586 25.9100036621 vhcurveto
          18.8899993896 -10.6000061035 18.0200042725 -8.86999511719 15.2599945068 -7.78999328613 rrcurveto
          122.13999939 -62.3899993896 35.3800048828 -35.8999938965 -43.2400054932 vvcurveto
          -53.6999969482 -55.7599945068 -37.0500030518 -64.75 6.2799987793 vhcurveto
          endchar
        </CharString>
        <CharString name="ellipsis">
          105 125 -14 -82 callsubr
          245 hmoveto
          -91 callsubr
          245 hmoveto
          -50 callsubr
        </CharString>
        <CharString name="emacron">
          -60 145.509994507 695.800003052 -40 callgsubr
          415.490005493 -570.770004272 rmoveto
          -106 callsubr
          511.720001221 hlineto
          endchar
        </CharString>
        <CharString name="emdash">
          165 261 60 hstem
          0 800 vstem
          261 vmoveto
          800 60 -800 hlineto
          endchar
        </CharString>
        <CharString name="endash">
          -135 261 60 hstem
          0 500 vstem
          261 vmoveto
          500 60 -500 hlineto
          endchar
        </CharString>
        <CharString name="eng">
          454.789993286 600.020004272 rmoveto
          -10 17.1499938965 vlineto
          29.5099945068 23.3200073242 -20.3699951172 -28.4499969482 0.839996337891 hvcurveto
          -303.539993286 vlineto
          -445.880004883 375.270004272 rlineto
          -8.61999511719 hlineto
          0 11.7400054932 -38.1199951172 -67.5099945068 vvcurveto
          -446.919998169 vlineto
          -29.2599945068 -24.6699981689 -21.1199951172 -30.0399932861 vhcurveto
          -16.1000061035 -10 330.38999939 10 -16.6300048828 hlineto
          -30.0399932861 -23.6300048828 21.1199951172 29.2599945068 -1.05999755859 hvcurveto
          287.190002441 vlineto
          254.619995117 -213.779998779 rlineto
          -71.7899932861 -19 callgsubr
          147.539993286 -36 124.13999939 83 148 vvcurveto
          523.63999939 vlineto
          27.1399993896 17.1999969482 23.25 33.9100036621 vhcurveto
          17.1499938965 10 hlineto
          endchar
        </CharString>
        <CharString name="eogonek">
          -60 580.059997559 -120 rmoveto
          -35 callgsubr
          -2.9700012207 34 12.6999969482 31 53.1600036621 13 rrcurveto
          1.85000610352 hlineto
          28.25 210.029998779 rlineto
          -106 callsubr
          447.789993286 hlineto
          -41.2299957275 -10 -38.1399993896 -26 -7.42999267578 -53 -16 callsubr
        </CharString>
        <CharString name="equal">
          -154 40 353.88999939 rmoveto
          -41 callsubr
          -240 vmoveto
          -41 callsubr
          endchar
        </CharString>
        <CharString name="eth">
          106 18 600.070007324 -1 callsubr
          30.8000030518 25.5299987793 -21.6699981689 -29.6399993896 0.589996337891 hvcurveto
          -215.720001221 -66.7200012207 -45 66.7200012207 -215.669998169 -48 callsubr
          -25.7200012207 -22.1000061035 -30.1199951172 vhcurveto
          -11.8600006104 -10 340.289993286 hlineto
          225.820007324 131.899993896 -30 callgsubr
          -131.899993896 110.720001221 -225.820007324 hvcurveto
          -76.5200042725 -322.039993286 rmoveto
          105.229995728 45 -105.229995728 231.669998169 -66 callsubr
        </CharString>
        <CharString name="exclam">
          -340 227.490005493 362.960006714 rmoveto
          22.5099945068 338.63999939 rlineto
          -205 hlineto
          22.4900054932 -338.63999939 44.6399993896 -132.960006714 rlineto
          70 hlineto
          -36.8999938965 -244 rmoveto
          -50 callsubr
        </CharString>
        <CharString name="exclamdown">
          -340 149.770004272 715.600006104 -9 callgsubr
          -40.2899932861 -40.2899932861 -45 callgsubr
          40.2899932861 -40.2899932861 -46 callsubr
          40.2899932861 40.2899932861 -46 callsubr
          -40.2899932861 40.2899932861 -63 callsubr
          hvcurveto
          -82.2599945068 -376.960006714 rmoveto
          -22.5099945068 -338.63999939 rlineto
          205 hlineto
          -22.4900054932 338.63999939 -44.6399993896 132.960006714 rlineto
          -70 hlineto
          endchar
        </CharString>
        <CharString name="f">
          -93 21 599.940002441 rmoveto
          -10 10.8399963379 vlineto
          27.7599945068 24.0700073242 -22.2299957275 -30.2599945068 hvcurveto
          -475.039993286 vlineto
          -30.2599945068 -24.0700073242 -22.1300048828 -27.7599945068 vhcurveto
          -10.8399963379 -10 322.460006714 10 -10.8399963379 hlineto
          -28.8399963379 -22.9799957275 22.1300048828 30.2599945068 -1.03999328613 hvcurveto
          210.039993286 76.6300048828 vlineto
          59.4700012207 -49 callgsubr
          40.0599975586 -42.9100036621 -58.7799987793 vvcurveto
          -3.41999816895 10 257.699996948 -10 -2.35000610352 vlineto
          -58.7799987793 -40.0599975586 -42.9100036621 -59.4700012207 -23 callgsubr
          -76.6300048828 234.660003662 100.830001831 -67 callsubr
          -35.8200073242 hhcurveto
          endchar
        </CharString>
        <CharString name="fi">
          270 -77 callgsubr
          410.429992676 -62.2799987793 rmoveto
          30.2700042725 1.0299987793 -72 callgsubr
          10.8699951172 hlineto
          27.1799926758 23.4700012207 -21.7799987793 -29.8899993896 0.330001831055 hvcurveto
          -476.36000061 vlineto
          -25 callsubr
          -0.130004882812 -23.5599975586 -21.9600067139 -27.3000030518 hhcurveto
          -10.8699951172 -10 320.949996948 10 -10.8699951172 hlineto
          -28.5 -22.5500030518 4 callsubr
          -1.0299987793 hvcurveto
          endchar
        </CharString>
        <CharString name="five">
          -44 520.320007324 739 rmoveto
          -10 hlineto
          -29.8999938965 -15.3399963379 -22.3600006104 -20.1000061035 -41.6999969482 hhcurveto
          -297.490005493 -25 -83.4499969482 -384.300003052 9 -6 150.740005493 62.3000030518 118.979995728 -46.4700012207 -6.71000671387 -113.529998779 rlinecurve
          -8.7799987793 -148.630004883 -216.220001221 -51.3699951172 -85 3 -2 -10 rcurveline
          185 -98 334.699996948 75 11.3099975586 248 7.77000427246 170.320007324 -139.88999939 120.679992676 -256.789993286 -61.0700073242 19.0500030518 83.0700073242 rcurveline
          306.770004272 25 rlineto
          endchar
        </CharString>
        <CharString name="fl">
          464 -77 callgsubr
          692.929992676 -389.880004883 rmoveto
          -10 hlineto
          -8 callgsubr
          -24.8399963379 -81 callsubr
          10.9900054932 hlineto
          27.5899963379 -4 callgsubr
          -5 callsubr
          -29.9499969482 -4 callsubr
          hvcurveto
          -475.869995117 -47 callgsubr
          509.800003052 hlineto
          1.91999816895 hlineto
          endchar
        </CharString>
        <CharString name="florin">
          -57 58.6399993896 599.940002441 rmoveto
          -7.92999267578 10.8399963379 vlineto
          27.4400024414 23.8300018311 -23.7400054932 -29.7799987793 0.5 hvcurveto
          -488.479995728 vlineto
          -0.210006713867 -102 -17.0399932861 -69 -83.7599945068 -47 rrcurveto
          -10 vlineto
          143.880004883 161.160003662 49 209 hvcurveto
          192.429992676 68.7899932861 vlineto
          59.4700012207 -49 callgsubr
          40.0700073242 -42.9100036621 -10 callgsubr
          -58.7799987793 rrcurveto
          -5.41999816895 9.97999572754 261.699996948 -9.97999572754 -4.35000610352 vlineto
          -0.0200042724609 -58.7799987793 -40.0599975586 -42.9100036621 -59.4700012207 -49 callgsubr
          rrcurveto
          -68.7899932861 234.660003662 92.9900054932 -67 callsubr
          -35.8099975586 hhcurveto
          endchar
        </CharString>
        <CharString name="four">
          8 597.800003052 188.759994507 rmoveto
          31 145 rlineto
          -10 hlineto
          -25.2899932861 -12 -15.8099975586 -14.7100067139 -36.8399963379 hhcurveto
          -43.5099945068 420.240005493 -9.36000061035 hlineto
          -516.279998779 -515.240005493 rlineto
          -10 320.649993896 -126.899993896 vlineto
          -29.9100036621 -1.11999511719 -24.6100006104 -21.9499969482 -29.4499969482 hhcurveto
          -10.8999938965 hlineto
          -0.139999389648 -10 rlineto
          337.460006714 hlineto
          -0.139999389648 10 rlineto
          -10.8999938965 hlineto
          -29.7100067139 -25.1300048828 23.6600036621 29.6999969482 -0.360000610352 hvcurveto
          125.399993896 vlineto
          -356.699996948 105 rmoveto
          151.699996948 147.660003662 rlineto
          -147.660003662 vlineto
          endchar
        </CharString>
        <CharString name="fraction">
          -35 498.350006104 -54 callgsubr
          endchar
        </CharString>
        <CharString name="g">
          88 664.399993896 240.320007324 -95 callgsubr
          endchar
        </CharString>
        <CharString name="gbreve">
          88 491.789993286 839.580001831 -81 callgsubr
          159.899993896 -599.259994507 -95 callgsubr
          endchar
        </CharString>
        <CharString name="gcommaaccent">
          88 664.399993896 240.320007324 -95 callgsubr
          -352.190002441 -370.699996948 -97 callgsubr
        </CharString>
        <CharString name="gdotaccent">
          88 365 675.929992676 rmoveto
          -107 callsubr
          299.410003662 -435.61000061 -95 callgsubr
          endchar
        </CharString>
        <CharString name="germandbls">
          463 -85 callgsubr
          419.539993286 59.2599945068 -103 callsubr
          3.75999450684 -75 callgsubr
          rrcurveto
          -25 callsubr
          23.8300018311 -83 callsubr
          endchar
        </CharString>
        <CharString name="grave">
          -35 293.669998169 749.970001221 -99 callgsubr
          endchar
        </CharString>
        <CharString name="greater">
          -154 40 526.25 -26 callsubr
          endchar
        </CharString>
        <CharString name="greaterequal">
          -35 40 586.25 -26 callsubr
          -401.720001221 -366 rmoveto
          -41 callsubr
          endchar
        </CharString>
        <CharString name="guillemotleft">
          -94 264.800003052 489.710006714 -43 callsubr
          432.86000061 197.960006714 -43 callsubr
          endchar
        </CharString>
        <CharString name="guillemotright">
          -94 69 87.7100067139 -43 callgsubr
          -16.7400054932 -204.039993286 -43 callgsubr
          endchar
        </CharString>
        <CharString name="guilsinglleft">
          -302 264.800003052 489.710006714 -43 callsubr
          endchar
        </CharString>
        <CharString name="guilsinglright">
          -302 69 87.7100067139 -43 callgsubr
          endchar
        </CharString>
        <CharString name="h">
          119 -37 callsubr
          -214.149993896 -194.960006714 214.119995117 -33 callsubr
          27.6699981689 23.8600006104 -21.8300018311 -29.9499969482 -4 callsubr
          hvcurveto
          -475.869995117 -17 callgsubr
          322.38999939 -60 callsubr
          475.800003052 vlineto
          31.2700042725 24.4799957275 21.1399993896 28.4199981689 vhcurveto
          endchar
        </CharString>
        <CharString name="hbar">
          118 -37 callsubr
          -75.7400054932 -194.960006714 75.7100067139 -33 callsubr
          27.6999969482 23.8800048828 -21.8800048828 -30 0.240005493164 hvcurveto
          -76.25 -59.1900024414 -45 59.1900024414 -354.539993286 -17 callgsubr
          322.399993896 -60 callsubr
          355.089996338 60.3500061035 45 -60.3500061035 75.7100067139 vlineto
          29.7100067139 24.4799957275 22.6999969482 28.4199981689 vhcurveto
          -247.979995728 -266.539993286 rmoveto
          -194.960006714 93.4100036621 194.960006714 hlineto
          endchar
        </CharString>
        <CharString name="hungarumlaut">
          -35 140.669998169 742.970001221 -107 callgsubr
          217 -7 -107 callgsubr
          endchar
        </CharString>
        <CharString name="hyphen">
          -27 callsubr
        </CharString>
        <CharString name="i">
          -272 279.059997559 537.660003662 -69 callgsubr
          10.8699951172 hlineto
          27.1799926758 23.4700012207 -21.7799987793 -29.8899993896 0.330001831055 hvcurveto
          -476.36000061 vlineto
          -25 callsubr
          -0.130004882812 -23.5599975586 -21.9600067139 -27.3000030518 hhcurveto
          -10.8699951172 -10 320.949996948 10 -10.8600006104 hlineto
          -28.5 -22.5500030518 4 callsubr
          -1.0299987793 hvcurveto
          endchar
        </CharString>
        <CharString name="iacute">
          -273 161.960006714 661.5 -107 callgsubr
          124.100006104 -130.839996338 -94 callgsubr
        </CharString>
        <CharString name="icircumflex">
          -273 171.710006714 832.259994507 -92 callsubr
          276.220001221 -119.179992676 -94 callgsubr
        </CharString>
        <CharString name="idieresis">
          -273 44.1100006104 655.990005493 -33 callgsubr
          -33.4199981689 -32.9900054932 -40.6999969482 -40.6999969482 33.4199981689 -55 callgsubr
          -27.6499938965 -118.330001831 -94 callgsubr
        </CharString>
        <CharString name="igrave">
          -273 205.86000061 671.410003662 rmoveto
          -28.25 65.8899993896 -82.25 81.8899993896 -44.25 37.8800048828 -48.3800048828 -20.2400054932 -23.7299957275 -33.2400054932 -13 -46.2400054932 63.2599945068 -41.9799957275 96.3000030518 -41.9799957275 73.3000030518 -8.97999572754 rrcurveto
          80.1999969482 -126.75 -94 callgsubr
        </CharString>
        <CharString name="ij">
          89 279.059997559 537.660003662 -69 callgsubr
          10.8699951172 hlineto
          27.1799926758 23.4700012207 -21.7799987793 -29.8899993896 0.330001831055 hvcurveto
          -476.36000061 vlineto
          -25 callsubr
          -0.130004882812 -23.5599975586 -21.9600067139 -27.3000030518 hhcurveto
          -10.8699951172 -10 320.949996948 10 -10.8600006104 hlineto
          -28.5 -22.5500030518 4 callsubr
          -1.0299987793 hvcurveto
          99.3899993896 537.660003662 -64 callsubr
        </CharString>
        <CharString name="imacron">
          -273 36.7799987793 695.86000061 -40 callgsubr
          242.279998779 -243.210006714 -94 callgsubr
        </CharString>
        <CharString name="infinity">
          -2 316.300003052 244.630004883 rmoveto
          -46.7599945068 33.4299926758 57.3399963379 -43.3300018311 64.2400054932 hhcurveto
          74.6499938965 58.2200012207 62.5099945068 79.6999969482 -0.970001220703 hvcurveto
          80.0099945068 -0.979995727539 -58.1000061035 62.7100067139 -72.8099975586 hhcurveto
          -58.3600006104 -57.8600006104 -42.5700073242 -46.8000030518 -38.1499938965 hvcurveto
          47.6300048828 -39.2899932861 -57.5599975586 41.7299957275 -58.1699981689 hhcurveto
          -72.8099975586 -58.1000061035 -62.7100067139 -80.0099945068 -0.979995727539 hvcurveto
          -79.6999969482 -0.970001220703 58.2200012207 -62.5099945068 74.6499938965 hhcurveto
          62.5800018311 57.6499938965 41.4199981689 48.6799926758 34.1699981689 hvcurveto
          -154.399993896 -27.0899963379 rmoveto
          -34.8699951172 -32.0299987793 35.9199981689 43.1600036621 43.6499938965 32.0500030518 36.1900024414 34.8399963379 44.8600006104 39.7299957275 -39.3999938965 -39.8000030518 30.7100067139 hvcurveto
          -40.3099975586 -27.7899932861 -42.5 -39.4100036621 -45.0099945068 hhcurveto
          309.410003662 hmoveto
          -45.2400054932 -40.4600067139 36.4499969482 43.25 -29.6000061035 hvcurveto
          37.3000030518 28.8999938965 41.7299957275 41.9100036621 44.6799926758 hhcurveto
          34.8399963379 32.0500030518 -36.1900024414 -43.6499938965 -43.1600036621 -32.0299987793 -35.9199981689 -34.8699951172 hvcurveto
          endchar
        </CharString>
        <CharString name="integral">
          6 436.5 792 rmoveto
          -87 -9 -111 -50 -9 -174 -4 -83 -13.8899993896 -230.949996948 -17.1100006104 -308.050003052 -3 -54 -8.05999755859 -15 -17.9299926758 -1 -31.0599975586 -2 4.05999755859 37 -20 28 -22 30 -46.0399932861 12 -32.9600067139 -34 -32.5 -34 18.5 -45 27 -21 46 -36 83 3 40 4 rrcurveto
          93 9 100 39 13 185 2 22 8 139 26 461 3 61 13.0299987793 7.94000244141 15.9700012207 1.05999755859 30 2 -5.80999755859 -35.9900054932 21.8099975586 -27 21 -26 45.9400024414 -17.0599975586 34.0599975586 31.0599975586 34 31 -10 47 -37 26 -54 37 -99 -8 -18 -2 rrcurveto
          endchar
        </CharString>
        <CharString name="iogonek">
          -273 341.979995728 hmoveto
          9.00999450684 vlineto
          -10.8600006104 -1.08000183105 rlineto
          -28.5 -22.5500030518 24.1999969482 30.2700042725 -1.0299987793 hvcurveto
          475.240005493 vlineto
          -62 callgsubr
          22.5500030518 24.2100067139 28.5 hhcurveto
          9.77000427246 hlineto
          1.08000183105 7.92999267578 rlineto
          -320.949996948 -7.92999267578 10.8600006104 hlineto
          27.1699981689 23.4600067139 -23.7899932861 -29.8999938965 0.350006103516 hvcurveto
          -476.029998779 -48 callsubr
          -23.6399993896 -24.1999969482 -27.4100036621 vhcurveto
          -10.8600006104 1.08000183105 rlineto
          -9.00999450684 158.149993896 vlineto
          -41.1999969482 -10 -38.0899963379 -26 -7.42999267578 -53 -58 callsubr
          -6 6 rcurveline
          -35 callgsubr
          -2.9700012207 34 12.6999969482 31 53.1499938965 13 rrcurveto
          endchar
        </CharString>
        <CharString name="j">
          -274 15.4499969482 600.070007324 -64 callsubr
        </CharString>
        <CharString name="k">
          -20 callgsubr
          22.3999938965 -56 callsubr
          -22.4799957275 -24 callgsubr
          22.4799957275 -74 callsubr
          endchar
        </CharString>
        <CharString name="kcommaaccent">
          -20 callgsubr
          22.4100036621 -56 callsubr
          -22.4700012207 -24 callgsubr
          22.4700012207 -74 callsubr
          -318.979995728 -351.630004883 -97 callgsubr
        </CharString>
        <CharString name="l">
          -78 561.550003052 210.050003052 -80 callsubr
          endchar
        </CharString>
        <CharString name="lacute">
          -78 168.539993286 661 -107 callgsubr
          400.009994507 -457.949996948 -80 callsubr
          endchar
        </CharString>
        <CharString name="lcaron">
          -78 394.330001831 390.270004272 -49 callsubr
          159.949996948 -189.210006714 -65 callsubr
          endchar
        </CharString>
        <CharString name="lcommaaccent">
          -78 561.550003052 210.050003052 -80 callsubr
          -314.880004883 -274 -97 callgsubr
        </CharString>
        <CharString name="ldot">
          -78 551.550003052 210.050003052 -65 callsubr
          -127.779998779 101.460006714 rmoveto
          -107 callsubr
          endchar
        </CharString>
        <CharString name="less">
          -134 441.720001221 526.25 -31 callgsubr
          endchar
        </CharString>
        <CharString name="lessequal">
          -134 441.720001221 586.25 -31 callgsubr
          -401.720001221 -482 rmoveto
          -41 callsubr
          endchar
        </CharString>
        <CharString name="logicalnot">
          -35 40 407.229995728 rmoveto
          -65 456.720001221 -147.660003662 65 212.660003662 vlineto
          endchar
        </CharString>
        <CharString name="lozenge">
          -125 470.970001221 349.789993286 rmoveto
          -221.820007324 -363.789993286 -209.149993896 363.789993286 209.149993896 364.210006714 rlineto
          -142.669998169 -364.199996948 rmoveto
          143.529998779 -254.990005493 154.470001221 254.990005493 -154.470001221 255.009994507 rlineto
          endchar
        </CharString>
        <CharString name="lslash">
          -35 551.550003052 210.050003052 rmoveto
          -8 callgsubr
          -24.8300018311 -73.5500030518 -59.2700042725 -76.7799987793 hhcurveto
          -96.5299987793 300.830001831 hlineto
          105.580001831 55.5399932861 -26.0200042725 45.9700012207 -79.5599975586 -41.8500061035 rlineto
          130.759994507 vlineto
          -62 callgsubr
          22.8500061035 -51 callgsubr
          28.8699951172 hhcurveto
          11 10 -322.559997559 -10 11 hlineto
          27.5800018311 23.7799987793 -21.8099975586 -29.9199981689 0.309997558594 hvcurveto
          -234.630004883 vlineto
          -75.9499969482 -39.9499969482 4 callgsubr
          49.9199981689 26.2599945068 rlineto
          -181.630004883 -47 callgsubr
          511.720001221 hlineto
          28.7899932861 210.050003052 rlineto
          endchar
        </CharString>
        <CharString name="m">
          -78 callsubr
        </CharString>
        <CharString name="macron">
          -35 150.229995728 702.940002441 -40 callgsubr
          endchar
        </CharString>
        <CharString name="minus">
          -154 40 277.25 rmoveto
          -41 callsubr
          endchar
        </CharString>
        <CharString name="mu">
          -78 callsubr
        </CharString>
        <CharString name="multiply">
          -225 370.020004272 428.800003052 rmoveto
          -45.9600067139 45.9600067139 -7 callsubr
          -1 callgsubr
          -45.9600067139 -45.9600067139 -1 callgsubr
          -7 callsubr
          45.9600067139 -45.9600067139 -1 callgsubr
          -1 callgsubr
          -1 callgsubr
          -7 callgsubr
          45.9600067139 45.9600067139 -7 callgsubr
          -1 callgsubr
          rlineto
          endchar
        </CharString>
        <CharString name="n">
          428.089996338 599.949996948 -96 callgsubr
          endchar
        </CharString>
        <CharString name="nacute">
          345.160003662 661 -107 callgsubr
          89.9299926758 -68.0500030518 -96 callgsubr
          endchar
        </CharString>
        <CharString name="ncaron">
          368.979995728 663.979995728 -95 callsubr
          -100.199996948 -239.449996948 -96 callgsubr
          endchar
        </CharString>
        <CharString name="ncommaaccent">
          428.089996338 599.949996948 -96 callgsubr
          -366.490005493 -873.949996948 -97 callgsubr
        </CharString>
        <CharString name="nine">
          40 369.929992676 330.710006714 rmoveto
          -16.6600036621 -10.7100067139 -28.6799926758 -12.1799926758 -29.5899963379 12.1799926758 -28.7100067139 11.8200073242 -21.3899993896 32.1799926758 0.100006103516 114 rrcurveto
          91 5.53999328613 81 73.9799957275 73.6300048828 11.7700042725 -82 -166 -221 -12.8300018311 -124 -284.899993896 -88 vhcurveto
          3.60000610352 -7 rlineto
          348.320007324 -42 170.809997559 176 285 vvcurveto
          229 -108.020004272 103.979995728 -195.979995728 -2.97999572754 vhcurveto
          -198.669998169 -3.02000427246 -88.3999938965 -106.970001221 -3.92999267578 -134.009994507 -7.67999267578 -261.990005493 289.449996948 -8.00999450684 55.5200042725 125.710006714 rrcurveto
          endchar
        </CharString>
        <CharString name="notequal">
          -154 441.720001221 353.88999939 rmoveto
          65 -90.5 vlineto
          39.3200073242 82.1100006104 -59.9400024414 27.5599975586 -52.8300018311 -109.669998169 rlineto
          -237.770004272 -65 206.460006714 hlineto
          -52.9900054932 -110 rlineto
          -153.470001221 -65 122.160003662 hlineto
          -45.1100006104 -93.6499938965 61.2100067139 -27.5800018311 58.0500030518 121.229995728 rlineto
          205.419998169 65 -174.289993286 hlineto
          52.6699981689 110 rlineto
          endchar
        </CharString>
        <CharString name="ntilde">
          569.550003052 819.289993286 -98 callsubr
          -129.11000061 -219.330001831 -96 callgsubr
          endchar
        </CharString>
        <CharString name="numbersign">
          -35 546 436.880004883 rmoveto
          60 -107.339996338 vlineto
          -17 callsubr
          -138 hlineto
          -17 callsubr
          -112.660003662 -60 102.080001831 hlineto
          -28.2100067139 -160 rlineto
          -117.869995117 -60 107.289993286 -18 callgsubr
          138 -18 callgsubr
          112.710006714 60 -102.130004883 hlineto
          28.2100067139 160 rlineto
          -90.2100067139 -160 rmoveto
          -138 hlineto
          28.2100067139 160 rlineto
          138 hlineto
          endchar
        </CharString>
        <CharString name="o">
          388.970001221 611.929992676 -101 callgsubr
        </CharString>
        <CharString name="oacute">
          372.970001221 661.929992676 -107 callgsubr
          23 -57 -101 callgsubr
        </CharString>
        <CharString name="ocircumflex">
          382.720001221 832.690002441 -92 callsubr
          175.119995117 -45.3399963379 -101 callgsubr
        </CharString>
        <CharString name="odieresis">
          255.130004883 656.419998169 -105 callgsubr
          -128.759994507 -44.4900054932 -101 callgsubr
        </CharString>
        <CharString name="oe">
          362 978.550003052 206.649993896 rmoveto
          -102.289993286 -26.7599945068 -72.0800018311 -58.7100067139 -81.4499969482 hhcurveto
          -103.559997559 228.649993896 88 hlineto
          57.9100036621 -1.61000061035 39.25 -41.2899932861 -0.240005493164 -57.5 rrcurveto
          -3 vlineto
          10 -23 callsubr
          rlineto
          252.199996948 vlineto
          -10 -23 callsubr
          rlineto
          -3 vlineto
          0.259994506836 -57.8699951172 -39.7100067139 -41.4499969482 -58.6000061035 -1.11000061035 rrcurveto
          -86.8600006104 236.850006104 118.080001831 hlineto
          72.8600006104 -2.58000183105 40.6399993896 -43.6000061035 -0.190002441406 -72.7200012207 rrcurveto
          -5.64999389648 vlineto
          10 -0.130004882812 rlineto
          185.990005493 vlineto
          -15.9600067139 -6.72999572754 -49.5299987793 -8.57000732422 1 callsubr
          -286.009994507 hlineto
          -17.4400024414 -4 callsubr
          -18.6999969482 1.38999938965 -17.3500061035 2.33999633789 rrcurveto
          4.32000732422 -32.1000061035 -23.4199981689 3.71000671387 -41.3500061035 hhcurveto
          -234.490005493 -137.619995117 -114.960006714 -196.13999939 -200.009994507 142.460006714 -114.919998169 218.050003052 55.1199951172 20.2599945068 6 4 46.1100006104 hvcurveto
          14.7700042725 1 rlineto
          435.990005493 hlineto
          30.7799987793 207.649993896 rlineto
          -486.11000061 -112.740005493 rmoveto
          -24.7400054932 -0.389999389648 -36.1000061035 -36.0599975586 -66.8899993896 hhcurveto
          -105.600006104 -72.3899993896 97.8600006104 170.020004272 0.940002441406 hvcurveto
          178.720001221 0.990005493164 77.2299957275 89.1600036621 99.8000030518 hhcurveto
          67.8800048828 34.1399993896 -38.4400024414 -22.5700073242 0.389999389648 hvcurveto
          endchar
        </CharString>
        <CharString name="ogonek">
          -35 425.050003052 -107 rmoveto
          -35 callgsubr
          -3 34 13 32 54.5800018311 12.4900054932 -10 3 rcurveline
          -55.5800018311 5.50999450684 -74.3000030518 -22 -10.6999969482 -76 -16 callsubr
        </CharString>
        <CharString name="ograve">
          416.880004883 671.839996338 -99 callgsubr
          -20.9100036621 -52.9100036621 -101 callgsubr
        </CharString>
        <CharString name="ohungarumlaut">
          265.490005493 664.929992676 -107 callgsubr
          217 -7 -107 callgsubr
          -79.5200042725 -60 -101 callgsubr
        </CharString>
        <CharString name="omacron">
          247.789993286 696.289993286 -40 callgsubr
          141.179992676 -169.36000061 -101 callgsubr
        </CharString>
        <CharString name="one">
          -211 37.4900054932 hmoveto
          -32 callsubr
          10 rlineto
          20.9100036621 hlineto
          30.1399993896 25.0700073242 24.1600036621 29.9900054932 hvcurveto
          506.899993896 vlineto
          52.1999969482 -25.8899993896 16.8000030518 -40.1300048828 vhcurveto
          -17.7299957275 10 hlineto
          55.0099945068 3.02000427246 151.809997559 18.6300048828 70.9799957275 42.3500061035 rrcurveto
          10 -650.550003052 hlineto
          -29.6999969482 25.2700042725 -23.8000030518 29.9199981689 vhcurveto
          20.9100036621 -15 callsubr
          -9.97999572754 rlineto
          endchar
        </CharString>
        <CharString name="onehalf">
          215 575.350006104 -54 callgsubr
          -72.9600067139 297.169998169 -63 callgsubr
          253.020004272 -56.8699951172 -73 callgsubr
        </CharString>
        <CharString name="onequarter">
          134 597.350006104 -54 callgsubr
          122.25 302.559997559 rmoveto
          -16.1600036621 -13.6499938965 12.8500061035 16.0399932861 hvcurveto
          372.300003052 -5.39999389648 vlineto
          -46.5700073242 -5 callsubr
          -109 -12.1199951172 -30.4799957275 -0.600006103516 rrcurveto
          -5.39999389648 4.42999267578 vlineto
          24.25 16.5500030518 -9.07000732422 -33.3300018311 hvcurveto
          -289.580001831 vlineto
          -16.1999969482 -13.5399932861 -13.0500030518 -16.2799987793 vhcurveto
          -11.2899932861 -5.39999389648 228.570007324 5.39999389648 hlineto
          466.630004883 -221.419998169 -68 callsubr
        </CharString>
        <CharString name="onesuperior">
          -343 34.0399932861 308.25 -63 callgsubr
          endchar
        </CharString>
        <CharString name="ordfeminine">
          -245 390.880004883 381.380004883 rmoveto
          -13.6600036621 -15.2799987793 6.63000488281 15.7400054932 -11.0200042725 hvcurveto
          -161.820007324 305.800003052 rlineto
          -4.27000427246 hlineto
          -2.16000366211 -16.2700042725 -20.4100036621 -42.2599945068 -7.13999938965 -15.9600067139 -115.410003662 -230.699996948 rcurveline
          -16.1900024414 -10.5399932861 -15.8200073242 -6.80000305176 -14.3500061035 hhcurveto
          -4 -4.38000488281 112.520004272 4.33999633789 -4.33000183105 hlineto
          -12.7100067139 -15.0800018311 9.96000671387 17.5200042725 8.86999511719 hvcurveto
          14.3200073242 30.1000061035 rlineto
          99.9900054932 hlineto
          16.1199951172 -33.3899993896 rlineto
          -15.4700012207 5.03999328613 -13.2700042725 -8.7200012207 -11.8899993896 hhcurveto
          -4.33000183105 -4.33999633789 204.740005493 4.38000488281 hlineto
          -283.839996338 83.4199981689 rmoveto
          37.5800018311 77.3300018311 37.3399963379 -77.3300018311 rlineto
          endchar
        </CharString>
        <CharString name="ordmasculine">
          -235 199.649993896 709.789993286 rmoveto
          -117.020004272 -62.6199951172 -59.5700073242 -107.270004272 -106.589996338 62.6199951172 -59.3699951172 117.020004272 117.729995728 62.6199951172 59.3699951172 106.589996338 107.270004272 -62.6199951172 59.5700073242 -117.729995728 hvcurveto
          -307.25 vmoveto
          -42.9700012207 -16.3699951172 -2 callsubr
          89.8899993896 90.5700073242 16.3699951172 -2 callsubr
          42.9700012207 43.6699981689 15.6699981689 -5 callgsubr
          -90.5700073242 -89.8899993896 -15.6699981689 -5 callgsubr
          -43.6699981689 hvcurveto
          endchar
        </CharString>
        <CharString name="oslash">
          683.839996338 607.779998779 2 callsubr
          -57.8699951172 -68.3300018311 rlineto
          24.7700042725 -54.4299926758 -65.5 12.9499969482 -73.75 hhcurveto
          -227.789993286 -136.179992676 -114.029998779 -198.460006714 -108.949996948 41.4900054932 -83.5599975586 75.4799957275 -53.0099945068 hvcurveto
          -43.1300048828 -50.9199981689 44.0099945068 -36 49.3200073242 58.4199981689 rlineto
          -24.5599975586 54.1399993896 66.1600036621 -12.8600006104 76.4900054932 hhcurveto
          228.850006104 136.179992676 114.070007324 197.380004883 109.880004883 -44.8200073242 84 -77.1499938965 53.0899963379 hvcurveto
          -389.25 -373.479995728 rmoveto
          -8.88999938965 35.9600067139 -4.50999450684 42.3800048828 48.1600036621 vvcurveto
          169.419998169 55.1499938965 97.6900024414 104.440002441 55.0399932861 41.0500030518 -26.5899963379 -49.4900054932 26.6699981689 vhcurveto
          22.6000061035 -59.7799987793 rmoveto
          9.4700012207 -36.9700012207 4.77000427246 -43.9799957275 -50.3000030518 vvcurveto
          -168.350006104 -54.0899963379 -39 callgsubr
          -105.5 -55.4299926758 -41.5500030518 27.5200042725 51 -26.7899932861 vhcurveto
          endchar
        </CharString>
        <CharString name="otilde">
          597.36000061 820.220001221 -98 callsubr
          -196.039993286 -208.289993286 -101 callgsubr
        </CharString>
        <CharString name="p">
          -28 21 -6 callgsubr
          -10 10.6399993896 vlineto
          27.8800048828 23.3000030518 -21.4400024414 -29.4299926758 0.860000610352 hvcurveto
          -476.779998779 -48 callsubr
          -22.6499938965 -22.2200012207 -28.3899993896 vhcurveto
          -10.6399993896 -9.91999816895 320.479995728 10 -10.5099945068 hlineto
          -30.5500030518 -20.6100006104 4 callsubr
          -1.0299987793 hvcurveto
          492.289993286 12.4199981689 vlineto
          58 34.1399993896 -44.0200042725 -67.6799926758 3.61999511719 hvcurveto
          0.75 -13.9199981689 -2.10000610352 -19.5899963379 -3.64999389648 -18.4799957275 rrcurveto
          -17.7200012207 -92.4700012207 -58.1900024414 -8.69000244141 0 vvcurveto
          -7.9700012207 vlineto
          128.320007324 -102.179992676 167.380004883 95.25 -10.8000030518 163.070007324 rrcurveto
          84.3099975586 -5.58000183105 -55.3600006104 77.7599945068 -173.669998169 hhcurveto
          endchar
        </CharString>
        <CharString name="paragraph">
          -95 523.369995117 742.619995117 rmoveto
          -47.1499938965 -40.9299926758 -32.9900054932 4.7200012207 -21.9499969482 hhcurveto
          -181.179992676 hlineto
          -108.080001831 -0.520004272461 -87 -69.5500030518 -1.22999572754 -112.960006714 rrcurveto
          -114.100006104 -1.24000549316 87 -69.9299926758 110.550003052 hhcurveto
          -333.13999939 vlineto
          2.91999816895 -97 -7.38999938965 -35 -56.2400054932 -58 7 -9 rcurveline
          82.4900054932 35 23.4900054932 87 77 vvcurveto
          650.190002441 83.4600067139 -505.559997559 vlineto
          -65.8699951172 1.75999450684 -34.3000030518 -28.7599945068 -49.4600067139 vhcurveto
          9 -8 rlineto
          39.1199951172 27.6100006104 28.8800048828 55.4499969482 77.0200042725 vvcurveto
          503.490005493 vlineto
          55.5 4.7799987793 36.5 46.3999938965 6.33000183105 34.8600006104 rrcurveto
          endchar
        </CharString>
        <CharString name="parenleft">
          -157 442.509994507 732 rmoveto
          -247.009994507 -26.6999969482 -105.5 -162.419998169 -209.169998169 vvcurveto
          -193.199996948 105.039993286 -181.520004272 245.679992676 -59 vhcurveto
          6 9 -98.2100067139 69 -54.6699981689 129.399993896 -3.83000183105 228.11000061 rlinecurve
          -3.49000549316 207.940002441 55.8999938965 129.899993896 106.11000061 50.6499938965 rrcurveto
          endchar
        </CharString>
        <CharString name="parenright">
          -157 37.7899932861 -100 rmoveto
          245.679992676 59 105.039993286 181.520004272 193.199996948 vvcurveto
          209.169998169 -105.5 162.419998169 -247.009994507 26.6999969482 vhcurveto
          -6 -8 106.11000061 -50.6499938965 55.8999938965 -129.899993896 -3.49000549316 -207.940002441 rlinecurve
          -3.83000183105 -228.11000061 -54.6699981689 -129.399993896 -98.2100067139 -69 rrcurveto
          endchar
        </CharString>
        <CharString name="partialdiff">
          12 74.6100006104 587.38999939 rmoveto
          70.3099975586 75.6100006104 117 -17 53 -37 48.8600006104 -33.6399993896 27.6900024414 -68.2799987793 7.0299987793 -96.7599945068 -169.850006104 80.4299926758 -137.729995728 -87.3399963379 -43.9900054932 -110.410003662 -52.9199981689 -133 67.8899993896 -189 237.029998779 15 196 12 108 127 9 208 9 206 -103 156 -189 20 -104 11 -110 -34 -49.3099975586 -97.6100006104 rrcurveto
          334.309997559 -261.38999939 rmoveto
          -5 -166 -38 -125 -58 -6 -45.3000030518 -4.69000244141 -27.6999969482 97.6900024414 20 102 17.6000061035 89.5899963379 42.5500030518 64.6300048828 93.8500061035 -22.4900054932 rrcurveto
          endchar
        </CharString>
        <CharString name="percent">
          142 -86 callgsubr
          13.4100036621 -178 rmoveto
          -73 callsubr
          -10.3699951172 hvcurveto
          endchar
        </CharString>
        <CharString name="period">
          -385 125 -14 rmoveto
          -50 callsubr
        </CharString>
        <CharString name="periodcentered">
          -385 125 265 rmoveto
          -50 callsubr
        </CharString>
        <CharString name="perthousand">
          532 -86 callgsubr
          391 hmoveto
          -113.75 -76.4900054932 -62.0299987793 -104.970001221 -15.6999969482 hvcurveto
          -116.910003662 -17.4799957275 53.0899963379 -69.0899963379 107.330001831 hhcurveto
          123.009994507 78.3899993896 65.3699951172 110.630004883 9.66000366211 hvcurveto
          111.259994507 9.71000671387 -54.9900054932 65.7400054932 -102.779998779 hhcurveto
          -377.589996338 -178 rmoveto
          -73 callsubr
          -10.3699951172 hvcurveto
          391 hmoveto
          -73 callsubr
          -10.3600006104 hvcurveto
          endchar
        </CharString>
        <CharString name="pi">
          148 758.800003052 10 rmoveto
          -32 callgsubr
          -4 callgsubr
          29.6799926758 1 callgsubr
          473.979995728 -29 callgsubr
          -733.910003662 -28 callgsubr
          -471.699996948 vlineto
          -29.9900054932 -16 callgsubr
          -24.1399993896 -44 callgsubr
          -0.139999389648 10 rlineto
          -32 callgsubr
          -4 callgsubr
          29.6799926758 1 callgsubr
          433.979995728 -19 callsubr
          85.9499969482 -20 callsubr
          -431.699996948 vlineto
          -29.9900054932 -16 callgsubr
          -24.1399993896 -44 callgsubr
          endchar
        </CharString>
        <CharString name="plus">
          -154 441.720001221 342.25 rmoveto
          -168.36000061 -28 callsubr
          hlineto
          endchar
        </CharString>
        <CharString name="plusminus">
          -154 273.36000061 412.25 rmoveto
          -28 callsubr
          65 vlineto
          -401.720001221 -362.25 rmoveto
          -41 callsubr
          endchar
        </CharString>
        <CharString name="product">
          218 818.800003052 -190 rmoveto
          -32 callgsubr
          24 29 1 callgsubr
          774.419998169 -29 callgsubr
          -783.910003662 -28 callgsubr
          -771.809997559 vlineto
          -30 -16 callgsubr
          -24 -44 callgsubr
          -0.139999389648 10 rlineto
          -32 callgsubr
          24 29 1 callgsubr
          734.429992676 -19 callsubr
          135.949996948 -20 callsubr
          -731.809997559 vlineto
          -30 -16 callgsubr
          -24 -44 callgsubr
          endchar
        </CharString>
        <CharString name="q">
          125 1137.94000244 -51 rmoveto
          -80.9700012207 -57 -107.679992676 -13 -175.289993286 65 -109.529998779 40 -43.4199981689 16.5399932861 -81.8000030518 11.8399963379 rrcurveto
          124.699996948 43.3500061035 69.8800048828 99.6699981689 144.039993286 vvcurveto
          198.460006714 -131.210006714 114.029998779 -223.660003662 -222.580001831 -131.210006714 -114.029998779 -198.460006714 -197.080001831 130.820007324 -114.36000061 221.979995728 vhcurveto
          2.58999633789 hlineto
          97.0599975586 -1 57.3500061035 -101 142.039993286 -82 258.070007324 -150 213.770004272 82 -4.66000366211 210 rrcurveto
          -913.839996338 353.440002441 rmoveto
          169.419998169 49.4700012207 97.6900024414 99.1499938965 100.229995728 49.4700012207 -39 callgsubr
          -169.419998169 -168.350006104 -49.4700012207 -39 callgsubr
          -100.229995728 -99.1499938965 -49.4700012207 97.6900024414 168.350006104 vhcurveto
          endchar
        </CharString>
        <CharString name="question">
          -142 50 510.229995728 rmoveto
          10 hlineto
          106.770004272 36 47 61 58 32 -42 -76 1 vhcurveto
          2 -126 -85 2 -9 -83 -7 -67 49 -42 58.2100067139 -15.0399932861 9 6 rcurveline
          -30.2100067139 58.0399932861 40 28 41 30 rrcurveto
          101 74 46 44 82 vvcurveto
          112 -85 65 -157 -110 -81 -37 -52.0500030518 -30 vhcurveto
          226 -638.949996948 rmoveto
          49 40 40 50 -3 callgsubr
          hvcurveto
          50 -0.229995727539 -40 40 -49 hhcurveto
          -50 -41 -40 -50 -3 callgsubr
          hvcurveto
          -50 -0.229995727539 41 -40 50 hhcurveto
          endchar
        </CharString>
        <CharString name="questiondown">
          -112 267 714 rmoveto
          -49 -40 -40 -50 -0.229995727539 hvcurveto
          -50 -3 callgsubr
          40 -40 49 hhcurveto
          50 41 40 50 -0.229995727539 hvcurveto
          50 -3 callgsubr
          -41 40 -50 hhcurveto
          176 -524.229995728 rmoveto
          -10 hlineto
          -106.770004272 -36 -47 -61 -58 -32 42 76 -1 vhcurveto
          -2 126 85 -2 9 83 7 67 -49 42 -58.2100067139 15.0399932861 -9 -6 rcurveline
          30.2100067139 -58.0399932861 -40 -28 -41 -30 rrcurveto
          -101 -74 -46 -44 -82 vvcurveto
          -112 85 -65 157 110 81 37 52.0500030518 30 vhcurveto
          endchar
        </CharString>
        <CharString name="quotedbl">
          -241 46.8999938965 500 -62 callsubr
          190.550003052 -5.25 -62 callsubr
          endchar
        </CharString>
        <CharString name="quotedblbase">
          -117 45.6100006104 -148 -25 callgsubr
          129.369995117 -61 callsubr
          -66.1300048828 -38.3300018311 -55 -39.5299987793 -18 rrcurveto
          244.309997559 -14 -25 callgsubr
          129.369995117 -61 callsubr
          -66.1300048828 -38.3300018311 -55 -39.5299987793 -18 rrcurveto
          endchar
        </CharString>
        <CharString name="quotedblleft">
          -107 232.539993286 842.710006714 -76 callgsubr
          236.789993286 14.2400054932 -76 callgsubr
          endchar
        </CharString>
        <CharString name="quotedblright">
          -137 45.1000061035 541.369995117 -76 callsubr
          234.009994507 -13.5599975586 -76 callsubr
          endchar
        </CharString>
        <CharString name="quoteleft">
          -357 232.539993286 842.710006714 -76 callgsubr
          endchar
        </CharString>
        <CharString name="quoteright">
          -367 45.1000061035 541.369995117 -76 callsubr
          endchar
        </CharString>
        <CharString name="quotesinglbase">
          -357 45.6100006104 -141 -25 callgsubr
          129.460006714 -61 callsubr
          -65.2299957275 -38.3300018311 -56 -39.5299987793 -18 rrcurveto
          endchar
        </CharString>
        <CharString name="quotesingle">
          -415 46.8999938965 500 -62 callsubr
          endchar
        </CharString>
        <CharString name="r">
          43 32 600.070007324 -93 callgsubr
          endchar
        </CharString>
        <CharString name="racute">
          43 317.669998169 661.289993286 -107 callgsubr
          -278.649993896 -68.2200012207 -93 callgsubr
          endchar
        </CharString>
        <CharString name="radical">
          -44 23 378.460006714 rmoveto
          61.3099975586 14.8899993896 173.309997559 -540.339996338 327.600006104 988.179992676 -55 2 -209.509994507 -611.130004883 -75.7700042725 257.199996948 -234.949996948 -58.8000030518 rlineto
          endchar
        </CharString>
        <CharString name="rcaron">
          43 341.490005493 664.270004272 -95 callsubr
          -468.779998779 -239.619995117 -93 callgsubr
          endchar
        </CharString>
        <CharString name="rcommaaccent">
          43 32 600.070007324 -93 callgsubr
          -13.5599975586 -874.070007324 -97 callgsubr
        </CharString>
        <CharString name="registered">
          -390 122.86000061 700.86000061 rmoveto
          -62.3300018311 -5 callgsubr
          -5 callgsubr
          -62.3300018311 -62.3300018311 -2 callsubr
          -5 callgsubr
          3 callgsubr
          3 callgsubr
          -2 callsubr
          -2 callsubr
          3 callgsubr
          3 callgsubr
          -5 callgsubr
          -2 callsubr
          -62.3300018311 hvcurveto
          -202.11000061 vmoveto
          3 callsubr
          -37.9700012207 -12 callsubr
          -12 callsubr
          -37.9700012207 3 callsubr
          3 callsubr
          -37.9700012207 -37.9700012207 3 callsubr
          hvcurveto
          -16.2599945068 150.949996948 rmoveto
          -44.0500030518 -2 2.5299987793 hlineto
          5.99000549316 4.52000427246 -4.49000549316 -5.94000244141 0.179992675781 hvcurveto
          -94.9299926758 vlineto
          -5.88000488281 -0.240005493164 -4.49000549316 -4.69000244141 -5.94000244141 hhcurveto
          -2.5299987793 -2 57.2899932861 2 -2.5299987793 hlineto
          -6.0299987793 -4.53999328613 4.83000183105 6 -23 callsubr
          hvcurveto
          97.8999938965 vlineto
          10.0200042725 -0.179992675781 14.9700012207 0.179992675781 5.30000305176 -8.88999938965 0.529998779297 -12.9700012207 rlinecurve
          -32 callsubr
          -3.38000488281 -0.800003051758 -6.2200012207 -0.550003051758 -2.88000488281 -2.16999816895 -11.4799957275 -6.38999938965 -4.2799987793 -5.63000488281 -0.279998779297 rrcurveto
          -10.5599975586 -1.85000610352 hlineto
          3.30000305176 2.89999389648 -6.7200012207 -6.75999450684 3.02000427246 hvcurveto
          -20.6799926758 9.25 6.80000305176 -24.2599945068 33.8399963379 hhcurveto
          19.6799926758 2 hlineto
          -11.5 3.92999267578 -6.53999328613 10.8300018311 -2.72999572754 4.33000183105 -7.74000549316 12.25 -13.5700073242 19.3200073242 -8.82000732422 1.97999572754 rrcurveto
          17.0200042725 1.80000305176 13.5099945068 9.16000366211 21.9499969482 vvcurveto
          20.1900024414 -19.8600006104 12.1799926758 -23.6000061035 vhcurveto
          endchar
        </CharString>
        <CharString name="ring">
          -35 301.100006104 876.600006104 -88 callgsubr
          endchar
        </CharString>
        <CharString name="s">
          -86 -85 callgsubr
          endchar
        </CharString>
        <CharString name="sacute">
          -86 269.88999939 661 -107 callgsubr
          14.6499938965 -248.970001221 -103 callsubr
          3.75 -75 callgsubr
          rrcurveto
          -25 callsubr
          23.8200073242 -83 callsubr
          endchar
        </CharString>
        <CharString name="scaron">
          -86 293.710006714 663.970001221 -95 callsubr
          -175.479995728 -420.36000061 -103 callsubr
          3.75 -75 callgsubr
          rrcurveto
          -25 callsubr
          23.8200073242 -83 callsubr
          endchar
        </CharString>
        <CharString name="scedilla">
          -116 266.320007324 419.029998779 -103 callsubr
          3.75 -75 callgsubr
          23.2799987793 -29.3999938965 62.2200012207 -26.75 99.5399932861 -1 -44.9199981689 -58 rcurveline
          5.08999633789 -10 36.2400054932 15 66.3000030518 -11 -5.13000488281 -42 rlinecurve
          -55 -6.7200012207 -55.3600006104 -21 -41.7299957275 hhcurveto
          -0.740005493164 -10 83.0899963379 -29 99.0200042725 44 6.42999267578 70 rlinecurve
          6.33000183105 69 -89.6000061035 6 -35.5899963379 -12 40.4700012207 47 rcurveline
          130.869995117 13.5099945068 76.1000061035 64.25 9.38999938965 113.240005493 7.64999389648 92.2200012207 -47.0599975586 57.1499938965 -66.8099975586 28.3999938965 rrcurveto
          endchar
        </CharString>
        <CharString name="scommaaccent">
          -86 -85 callgsubr
          -184.529998779 -632.770004272 -97 callgsubr
        </CharString>
        <CharString name="section">
          -99 330.850006104 716 rmoveto
          -260.850006104 -173 -333.919998169 -246.080001831 247.979995728 hvcurveto
          112.720001221 -111.919998169 90.4499969482 -71.0800018311 -47.1699981689 -39 -70.3099975586 -57 -104.059997559 232.009994507 -73.6300048828 -121.009994507 rrcurveto
          -68 -41.1999969482 94.4799957275 -59 114.809997559 hhcurveto
          296.86000061 95.1499938965 324.910003662 261.089996338 -228.100006104 hvcurveto
          -63 callsubr
          56.9100036621 -146.089996338 119.36000061 58.8099975586 43.7299957275 70.5899963379 52.4900054932 83.4600067139 -220.320007324 73.9600067139 113.830001831 rrcurveto
          61.5700073242 40.0099945068 -72.7799987793 61.4299926758 -112.350006104 hhcurveto
          -185.479995728 -133.080001831 rmoveto
          -0.789993286133 -127.919998169 35.0099945068 -37.6999969482 103.38999939 -111.300003052 90.75 -97.6999969482 86.3899993896 -96.3000030518 -65.6000061035 -133 17.0700073242 108 -85.3800048828 88.0399932861 -80.2299957275 81.9600067139 -86.1799926758 88.0399932861 -83.7700042725 85.9600067139 69.3399963379 151.919998169 rrcurveto
          endchar
        </CharString>
        <CharString name="semicolon">
          -375 125 397.229995728 -82 callsubr
          -80.3099975586 -526.229995728 -38 callgsubr
        </CharString>
        <CharString name="seven">
          -63 33.2200012207 698.130004883 rmoveto
          529.36000061 hlineto
          -127.61000061 -294.63999939 -41.9199981689 -97.3999938965 -70.0500030518 -216.850006104 -25.3099975586 -89.2299957275 rlinecurve
          -170 hlineto
          61.7599945068 99.5599975586 126.419998169 224.169998169 42.3500061035 90.3300018311 52.0200042725 110.949996948 rcurveline
          -320.279998779 hlineto
          -39.9799957275 -20.2200012207 -20.3399963379 -39.6600036621 -14.7599945068 hvcurveto
          -10 hlineto
          endchar
        </CharString>
        <CharString name="six">
          40 304.830001831 365.289993286 rmoveto
          16.6999969482 10.7100067139 28.8600006104 12.1600036621 29.6000061035 -12.1600036621 28.8300018311 -11.8399963379 21.25 -32.1600036621 -0.0800018310547 -114 rrcurveto
          -91 -6.61000061035 -82 -74.0500030518 -73.7100067139 -10.8600006104 83 166 221 13.0299987793 124 284.929992676 88.0200042725 vhcurveto
          -3.61000061035 7.41000366211 -348.520004272 41.5700073242 -170.660003662 -176 0.130004882812 -285 rlinecurve
          0.100006103516 -229 107.679992676 -104 196.220001221 3 198.149993896 3 88.75 106.990005493 4.10000610352 134.009994507 8.02000427246 261.990005493 -290.050003052 8.00999450684 -55.4799957275 -125.710006714 rrcurveto
          endchar
        </CharString>
        <CharString name="slash">
          -196 10 14.0800018311 rmoveto
          58.6600036621 -28.0800018311 360.940002441 710.5 -59.0800018311 26.5 rlineto
          endchar
        </CharString>
        <CharString name="softhyphen">
          -27 callsubr
        </CharString>
        <CharString name="space">
          -385 endchar
        </CharString>
        <CharString name="sterling">
          -15 605.990005493 219.399993896 rmoveto
          -60 -120.399993896 -103 -40 -103 9 -62.1799926758 5.42999267578 -46.9499969482 14.3600006104 -47.4600067139 -8.89999389648 77.6600036621 22.7400054932 56.1300048828 50.3899993896 1.33000183105 166.729995728 rrcurveto
          157.979995728 hlineto
          21.2599945068 55.8600006104 rlineto
          -180.63999939 hlineto
          -9.86999511719 174.600006104 9.72999572754 111.779998779 107.789993286 3 75.5 2.10000610352 28.2100067139 -48.7700042725 4.67999267578 -101.830001831 rrcurveto
          10 hlineto
          47.3500061035 141.199996948 -28.5200042725 36.3000030518 -71 27 -103 -6 rlinecurve
          -219.070007324 -12.8899993896 -60.1600036621 -152.289993286 3.13000488281 -174.210006714 rrcurveto
          -64.3200073242 hlineto
          -17.2599945068 -55.8600006104 rlineto
          81.5899963379 hlineto
          -5.02000427246 -173.479995728 -52.2200012207 -96.8399963379 -24.6600036621 -48.4199981689 rrcurveto
          -10 10 vlineto
          8.97999572754 10 64 23 24 1 63 2 49 -22 89 -12 53 -7 114 9 65.5700073242 30 45.4299926758 195.399993896 rcurveline
          endchar
        </CharString>
        <CharString name="summation">
          2 607.839996338 175.289993286 rmoveto
          -29.6600036621 -108.910003662 -74.5800018311 -66.0800018311 -90.1000061035 -6.30000305176 rrcurveto
          -202.399993896 hlineto
          244.589996338 350.25 -177.350006104 305.75 rlineto
          158.220001221 hlineto
          80.8099975586 -1.63000488281 47.6300048828 -48.1999969482 -0.190002441406 -79.7799987793 -36 callsubr
          205.770004272 vlineto
          -18.5599975586 -36 callgsubr
          -425.119995117 -10 hlineto
          271.759994507 -457.61000061 -277.300003052 -402.38999939 rlineto
          -11 554.559997559 vlineto
          38.2899932861 356.289993286 rlineto
          endchar
        </CharString>
        <CharString name="t">
          -22 106.949996948 600.929992676 -84 callgsubr
          -9.91000366211 -37 callgsubr
        </CharString>
        <CharString name="tbar">
          -15 106.949996948 600.929992676 rmoveto
          -35.8699951172 0.149993896484 -48.2100067139 8.99000549316 -15.8699951172 5.94000244141 rrcurveto
          -188.449996948 10 5.39999389648 vlineto
          75.6999969482 41.7700042725 44.7899932861 76.6000061035 1.03999328613 vhcurveto
          73.1000061035 -208.539993286 -120.800003052 -45 120.800003052 -238.550003052 hlineto
          -30.2599945068 -1.03999328613 -22.9199981689 -22.1300048828 -28.9600067139 hhcurveto
          -9.94999694824 -10 321.789993286 10 -9.94999694824 hlineto
          -28.9600067139 -24.0099945068 22.1300048828 30.2599945068 hvcurveto
          238.550003052 125.880004883 45 -125.88999939 208.539993286 73.1100006104 vlineto
          76.6000061035 -1.03999328613 42.4499969482 -44.7899932861 -0.679992675781 -75.6999969482 rrcurveto
          -5.39999389648 10 188.449996948 vlineto
          -9.91000366211 -37 callgsubr
        </CharString>
        <CharString name="tcaron">
          -23 316.770004272 670.550003052 rmoveto
          159.300003052 175.419998169 -7.21000671387 8 -157.539993286 -64.3300018311 -168.339996338 64.4299926758 -7.21000671387 -8 168.979995728 -175.520004272 rlineto
          -197.789993286 -69.6199951172 -84 callgsubr
          -9.91999816895 -37 callgsubr
        </CharString>
        <CharString name="tcedilla">
          -22 106.949996948 600.929992676 rmoveto
          -35.8699951172 0.149993896484 -48.2100067139 8.99000549316 -15.8699951172 5.94000244141 rrcurveto
          -188.449996948 10 5.39999389648 vlineto
          75.6999969482 41.7700042725 44.7899932861 76.6000061035 1.03999328613 vhcurveto
          73.1000061035 -492.089996338 hlineto
          -30.2599945068 -1.03999328613 -22.9199981689 -22.1300048828 -28.9600067139 hhcurveto
          -9.94999694824 -10 121.830001831 hlineto
          -47.3699951172 -61 -86 callsubr
          40.8300018311 47 rcurveline
          138.850006104 10 -9.94999694824 hlineto
          -28.9600067139 -24.0099945068 22.1300048828 30.2599945068 hvcurveto
          492.089996338 73.1000061035 vlineto
          76.6000061035 -1.03999328613 42.4499969482 -44.7899932861 -0.679992675781 -75.6999969482 rrcurveto
          -5.39999389648 10 188.449996948 vlineto
          -9.91000366211 -37 callgsubr
        </CharString>
        <CharString name="thorn">
          -35 294.5 481 rmoveto
          56.9299926758 vlineto
          29.6900024414 0.850006103516 24.3099975586 22.4499969482 29.9199981689 hhcurveto
          10.8800048828 -15 callsubr
          10 rlineto
          -323.580001831 -15 callsubr
          -10 rlineto
          10.8800048828 hlineto
          29.9799957275 24.3500061035 -22.5399932861 -29.7799987793 0.75 hvcurveto
          -475.089996338 vlineto
          -29.9600067139 -0.570007324219 -24.4199981689 -22.7299957275 -30.1000061035 hhcurveto
          -10.8800048828 hlineto
          -0.139999389648 -10 rlineto
          323.61000061 hlineto
          -0.139999389648 10 rlineto
          -10.8800048828 hlineto
          -30.1000061035 -24.4199981689 22.7299957275 29.9600067139 -0.559997558594 hvcurveto
          373.190002441 14.3800048828 vlineto
          65.1199951172 38.0599975586 -43.3699951172 -68.4799957275 2.92999267578 hvcurveto
          0.600006103516 -14.0800018311 -1.41999816895 -20.0399932861 -4.17999267578 -17.8800048828 rrcurveto
          -22.4199981689 -95.8200073242 -71.1300048828 -6.83000183105 0 vvcurveto
          0.100006103516 -8.13000488281 135.289993286 -100.679992676 174.210006714 93.4799957275 -10.0500030518 162.990005493 rlinecurve
          86.3999938965 -5.33000183105 -62.1999969482 77.6000061035 -178.419998169 hhcurveto
          endchar
        </CharString>
        <CharString name="three">
          -33 87.3500061035 467.770004272 rmoveto
          10 hlineto
          -3.44000244141 125.229995728 31 62 80 7 60 6 55 -29 7 -74 9 -97 -80 -77 -92.2200012207 3.36999511719 -1.82000732422 -10 rcurveline
          86.0399932861 -1.36999511719 99 -45 -122 vvcurveto
          -146 -142 -96 -164 4 vhcurveto
          -2 -10 221 -99 302 96 0.360000610352 235.210006714 rlinecurve
          -0.300003051758 128.479995728 -88.9299926758 51.4600067139 -75.4100036621 14.4900054932 rrcurveto
          67.4299926758 3.41000366211 67.8500061035 50.1499938965 91.8000030518 vvcurveto
          109 -95 63 -159 -108 -90 -29 -42.0299987793 -50.9100036621 vhcurveto
          endchar
        </CharString>
        <CharString name="threequarters">
          204 666.350006104 -54 callgsubr
          -123.529998779 553.869995117 -79 callsubr
          774.539993286 -584.009994507 -68 callsubr
        </CharString>
        <CharString name="threesuperior">
          -262 59.8500061035 564.949996948 -79 callsubr
          endchar
        </CharString>
        <CharString name="tilde">
          -35 478.009994507 798.520004272 -98 callsubr
          endchar
        </CharString>
        <CharString name="trademark">
          -123 207.190002441 642.979995728 rmoveto
          2.99000549316 62.9799957275 hlineto
          -2 -5.35000610352 -16.3399963379 -3.03999328613 -12.0200042725 hhcurveto
          -132.759994507 hlineto
          -12.0200042725 -16.3399963379 3.03999328613 2 -5.35000610352 hvcurveto
          -62.9799957275 2.63000488281 1.80000305176 vlineto
          25.3000030518 14.6799926758 14.9700012207 25.6000061035 0.350006103516 vhcurveto
          24.4299926758 -164.449996948 hlineto
          -10.1100006104 -0.350006103516 -7.66000366211 -8.08999633789 -9.67999267578 hhcurveto
          -3.32000732422 0.360000610352 rlineto
          -3.00999450684 107.539993286 3.00999450684 vlineto
          -3.33000183105 -0.360000610352 rlineto
          -9.67999267578 -8.02000427246 8.08999633789 10.1100006104 hvcurveto
          164.449996948 24.4700012207 vlineto
          25.5599975586 -0.350006103516 14.6799926758 -14.9700012207 -0.360000610352 -25.3000030518 rrcurveto
          291.210006714 -142.039993286 rmoveto
          -9.58000183105 -8.32000732422 6.05999755859 10.3899993896 -2.61000061035 hvcurveto
          -26.8500061035 185.410003662 rlineto
          -2.7799987793 hlineto
          -89.2299957275 -125.350006104 -99.8999938965 125.339996338 rlineto
          -2.41999816895 hlineto
          -26.3699951172 -186.460006714 rlineto
          -9.74000549316 -2.67999267578 -8.41000366211 -5.64999389648 -9.74000549316 hhcurveto
          -4.33999633789 0.360000610352 rlineto
          -3.00999450684 64.1600036621 2.66000366211 -4.52000427246 vlineto
          -5.60000610352 -4.97999572754 5.42999267578 5.69999694824 -0.509994506836 hvcurveto
          9.36999511719 72.4799957275 75.0899963379 -93.6199951172 rlineto
          2.7799987793 hlineto
          -1.10000610352 15.7299957275 13.3000030518 18.0500030518 0 vvcurveto
          46.2599945068 64.3099975586 11.2100067139 -76.4299926758 rlineto
          -5.88999938965 -0.240005493164 -5.11000061035 -5.75999450684 -5.77000427246 hhcurveto
          -4.52000427246 -2.66000366211 17.3899993896 2.41999816895 hlineto
          0.350006103516 -2.41999816895 rlineto
          90.1999969482 3.00999450684 hlineto
          endchar
        </CharString>
        <CharString name="two">
          23 107.350006104 455.5 rmoveto
          -0.580001831055 130.5 44 71 84 7 rrcurveto
          79 6 49 -54 -86 vvcurveto
          -166 -185 -177 -142 -177 vhcurveto
          -10 520.5 vlineto
          67.7100067139 281.130004883 rlineto
          -10 hlineto
          -72.5899963379 -35.1799926758 -42.5099945068 -32.1900024414 -59.4299926758 hhcurveto
          -190.13999939 hlineto
          99.0399932861 63.6499938965 192 108 161 vvcurveto
          129 -124 76 -162 -97 -106 -27 -51.3000030518 -58.7700042725 vhcurveto
          67.3500061035 -180.199996948 rlineto
          endchar
        </CharString>
        <CharString name="twosuperior">
          -216 84.6399993896 559.259994507 -73 callgsubr
        </CharString>
        <CharString name="u">
          73 504.059997559 600.070007324 -104 callgsubr
        </CharString>
        <CharString name="uacute">
          73 380.679992676 661 -107 callgsubr
          130.380004883 -67.9299926758 -104 callgsubr
        </CharString>
        <CharString name="ucircumflex">
          73 390.429992676 831.759994507 -92 callsubr
          282.490005493 -56.2700042725 -104 callgsubr
        </CharString>
        <CharString name="udieresis">
          73 262.839996338 655.490005493 -105 callgsubr
          -21.3800048828 -55.4199981689 -104 callgsubr
        </CharString>
        <CharString name="ugrave">
          73 424.589996338 670.910003662 -99 callgsubr
          86.4700012207 -63.8399963379 -104 callgsubr
        </CharString>
        <CharString name="uhungarumlaut">
          73 273.199996948 664 -107 callgsubr
          217 -7 -107 callgsubr
          27.8600006104 -70.9299926758 -104 callgsubr
        </CharString>
        <CharString name="umacron">
          73 255.5 695.36000061 -40 callgsubr
          248.559997559 -180.289993286 -104 callgsubr
        </CharString>
        <CharString name="underscore">
          -135 -110 50 hstem
          0 500 vstem
          -110 vmoveto
          500 50 -500 hlineto
          endchar
        </CharString>
        <CharString name="uni021A">
          -78 callgsubr
          -279.619995117 -974 -97 callgsubr
        </CharString>
        <CharString name="uni021B">
          -23 106.949996948 600.929992676 -84 callgsubr
          -9.91999816895 -54 callsubr
          -249.279998779 -872.929992676 -97 callgsubr
        </CharString>
        <CharString name="uogonek">
          73 696.990005493 -6 callgsubr
          -192.929992676 -7.92999267578 12.9900054932 hlineto
          24.0500030518 19.0099945068 -18.1300048828 -25.2400054932 1.03999328613 hvcurveto
          -336.949996948 vlineto
          -111.190002441 -1.05999755859 -51.7599945068 -64.8800048828 -90.4400024414 hhcurveto
          -92.3000030518 -53.3300018311 68.8999938965 118.259994507 hvcurveto
          326.580001831 vlineto
          24.8600006104 0.320007324219 18.8699951172 17.7799987793 23.8200073242 hhcurveto
          14.0700073242 7.92999267578 -310.339996338 -7.92999267578 12.9900054932 hlineto
          23.9900054932 20.0399932861 -18.0299987793 -25.1399993896 hvcurveto
          -328.410003662 0 callgsubr
          -139.229995728 85.5399932861 -85.3200073242 196.86000061 -7 -37.2700042725 -12 -32.7799987793 -26 -6.83000183105 -49 -58 callsubr
          -6 6 rcurveline
          -35 callgsubr
          -2.86000061035 33 11.6999969482 30 48.4700012207 14 rrcurveto
          139.479995728 12.6399993896 75.4799957275 85.1699981689 134.800003052 vvcurveto
          326.160003662 vlineto
          25.2400054932 20.0899963379 18.1300048828 24.0500030518 vhcurveto
          12.9900054932 hlineto
          endchar
        </CharString>
        <CharString name="uring">
          73 397.529998779 841.630004883 -88 callgsubr
          107.630004883 -211.789993286 -104 callgsubr
        </CharString>
        <CharString name="v">
          -15 457.940002441 -6 callgsubr
          -8.80999755859 8.4700012207 vlineto
          22.25 25.4700012207 -19.1199951172 -33.8899993896 -14.8800048828 hvcurveto
          -116.449996948 -257.460006714 -115.669998169 257.460006714 rlineto
          33.8899993896 -13.5399932861 25.3600006104 19.1199951172 22.25 hhcurveto
          7.41999816895 8.80999755859 -350.619995117 -10 7 hlineto
          25 29.1100006104 -12.3600006104 -33.1499938965 19.1799926758 hvcurveto
          280.619995117 -556.570007324 rlineto
          8.47999572754 hlineto
          3.16999816895 30.5700073242 37.0599975586 78.7899932861 11.5599975586 24.8000030518 201.38999939 421.589996338 rcurveline
          33.7599945068 18.5099945068 30.8500061035 12.5599975586 25.1699981689 hhcurveto
          7.41999816895 10 hlineto
          endchar
        </CharString>
        <CharString name="w">
          216 691.75 599.949996948 -100 callgsubr
        </CharString>
        <CharString name="wacute">
          216 470.740005493 661 -107 callgsubr
          228.009994507 -68.0500030518 -100 callgsubr
        </CharString>
        <CharString name="wcircumflex">
          216 480.490005493 831.759994507 -92 callsubr
          380.130004883 -56.3800048828 -100 callgsubr
        </CharString>
        <CharString name="wdieresis">
          216 352.899993896 655.490005493 -105 callgsubr
          76.2599945068 -55.5299987793 -100 callgsubr
        </CharString>
        <CharString name="wgrave">
          216 514.649993896 670.910003662 -99 callgsubr
          184.11000061 -63.9499969482 -100 callgsubr
        </CharString>
        <CharString name="x">
          31 679.729995728 10 rmoveto
          -34.1300048828 -31.2700042725 20.3600006104 24.6900024414 -16.3699951172 hvcurveto
          -168.36000061 274.660003662 144.970001221 218.279998779 rlineto
          24.0500030518 17.4900054932 30.6900024414 19.5899963379 32.5200042725 hhcurveto
          12 10 -216.550003052 -10 10 hlineto
          23 20 -26.3200073242 -23.5700073242 -15 hvcurveto
          -96.5099945068 -151.039993286 -92.5800018311 151.029998779 rlineto
          23.5700073242 -13.9100036621 20 26.3300018311 23 hhcurveto
          10 10 -354.710006714 -10 11 hlineto
          32.1100006104 31.3500061035 -19.2799987793 -23.7799987793 16.7899932861 hvcurveto
          163.050003052 -267.449996948 -171.100006104 -229.339996338 rlineto
          -23.1999969482 -19.7599945068 -27.3699951172 -18.5899963379 -32.0700073242 hhcurveto
          -12 -10 220.570007324 10 -10 hlineto
          -23 -22 26.3200073242 23.5700073242 17 hvcurveto
          116.419998169 161.070007324 98.1900024414 -161.070007324 rlineto
          -23.5700073242 13.9400024414 -20 -26.3300018311 -23 hhcurveto
          -10 -10 356.61000061 10 hlineto
          endchar
        </CharString>
        <CharString name="y">
          -2 466.5 -6 callgsubr
          -10 10.3999938965 vlineto
          23.8800048828 19.8399963379 -27.3200073242 -24.0500030518 -13.5200042725 hvcurveto
          -121.449996948 -209.710006714 -123.960006714 209.679992676 rlineto
          24.1799926758 -13.5299987793 18.8300018311 27.2299957275 24.9400024414 hhcurveto
          10.3999938965 10 -350.330001831 -10 12 hlineto
          35 32.8200073242 -21.6699981689 -25.3300018311 16.8800048828 hvcurveto
          172.669998169 -265.479995728 rlineto
          -215.320007324 vlineto
          -30.1999969482 -0.789993286133 -24.9600067139 -22.0700073242 -29.0899963379 hhcurveto
          -11.4600067139 -10 327.75 10 -10.9299926758 hlineto
          -30.1900024414 -23.9299926758 22.1300048828 30.2599945068 -1.05999755859 hvcurveto
          216.369995117 vlineto
          168.800003052 263.949996948 rlineto
          25.7599945068 17.8300018311 31.9199981689 21.5899963379 35.9900054932 hhcurveto
          12.5 10 hlineto
          endchar
        </CharString>
        <CharString name="yacute">
          -2 356.399993896 661 -107 callgsubr
          117.100006104 -67.9299926758 -88 callsubr
        </CharString>
        <CharString name="ycircumflex">
          -2 366.149993896 831.759994507 -92 callsubr
          269.210006714 -56.2700042725 rmoveto
          -10 10.3999938965 vlineto
          23.8800048828 19.8399963379 -27.3200073242 -24.0500030518 -13.5200042725 hvcurveto
          -121.449996948 -209.710006714 -123.960006714 209.679992676 rlineto
          24.1900024414 -13.5299987793 18.8300018311 27.2299957275 24.9400024414 hhcurveto
          10.3999938965 10 -350.330001831 -10 12 hlineto
          35 32.8200073242 -21.6699981689 -25.3300018311 16.8800048828 hvcurveto
          172.669998169 -265.479995728 rlineto
          -215.320007324 vlineto
          -30.1999969482 -0.789993286133 -24.9600067139 -22.0700073242 -29.0899963379 hhcurveto
          -11.4600067139 -10 327.75 10 -10.9299926758 hlineto
          -30.1900024414 -23.9299926758 22.1300048828 30.2599945068 -1.05999755859 hvcurveto
          216.369995117 vlineto
          168.800003052 263.949996948 rlineto
          25.7700042725 17.8300018311 31.9199981689 21.5899963379 35.9900054932 hhcurveto
          12.5 10 hlineto
          endchar
        </CharString>
        <CharString name="ydieresis">
          -2 238.559997559 655.490005493 -105 callgsubr
          -34.6600036621 -55.4199981689 -88 callsubr
        </CharString>
        <CharString name="yen">
          94 525.509994507 700.020004272 rmoveto
          -10.0200042725 12.6000061035 vlineto
          27.2299957275 23.4199981689 -33.5599975586 -28.3600006104 -15.5899963379 hvcurveto
          -142.080001831 -247.320007324 -137.460006714 247.380004883 rlineto
          28.3500061035 -14.5399932861 20.4299926758 33.5500030518 29.2100067139 hhcurveto
          12.6000061035 9.9700012207 -386.339996338 -9.9700012207 14 hlineto
          40.9199981689 38.8800048828 -27.0099945068 -30.2400054932 19.6199951172 hvcurveto
          127.309997559 -207.869995117 rlineto
          -98.2400054932 -50 128.86000061 hlineto
          32.2299957275 -52.6300048828 rlineto
          -7.36999511719 -161.089996338 -50 161.089996338 -192.630004883 vlineto
          -34.5599975586 -0.960006713867 -28.2700042725 -27.7400054932 -34.8099975586 hhcurveto
          -12.6499938965 -80 callgsubr
          -10 rlineto
          358.75 -75 callsubr
          192.039993286 159.13999939 50 -159.149993896 6.83999633789 vlineto
          33.7100067139 53.1499938965 rlineto
          125.440002441 50 -93.7299957275 hlineto
          130.839996338 206.309997559 rlineto
          30.8699951172 20.2899932861 38.5200042725 27.8999938965 42 hhcurveto
          14 10.0200042725 hlineto
          endchar
        </CharString>
        <CharString name="ygrave">
          -2 400.300003052 670.910003662 -99 callgsubr
          73.1900024414 -63.8399963379 -88 callsubr
        </CharString>
        <CharString name="z">
          -29 598.309997559 210.070007324 -87 callgsubr
          536.88999939 vlineto
          endchar
        </CharString>
        <CharString name="zacute">
          -29 301 661 -107 callgsubr
          304.309997559 -457.929992676 -87 callgsubr
          536.880004883 vlineto
          endchar
        </CharString>
        <CharString name="zcaron">
          -29 324.830001831 663.970001221 -95 callsubr
          114.179992676 -629.330001831 -87 callgsubr
          536.880004883 vlineto
          endchar
        </CharString>
        <CharString name="zdotaccent">
          -29 318 664 rmoveto
          -107 callsubr
          280.309997559 -453.929992676 -87 callgsubr
          536.880004883 vlineto
          endchar
        </CharString>
        <CharString name="zero">
          55 345.089996338 714 rmoveto
          -194.910003662 -115.179992676 -145.199996948 -218.800003052 -218.800003052 115.179992676 -145.199996948 194.910003662 194.910003662 115.179992676 145.199996948 218.800003052 218.800003052 -115.179992676 145.199996948 -194.910003662 hvcurveto
          -50 vmoveto
          68.6300048828 31.4600067139 -98.6900024414 -215.309997559 -215.309997559 -31.4600067139 -98.6900024414 -68.6300048828 -68.6300048828 -31.4600067139 98.6900024414 215.309997559 215.309997559 31.4600067139 98.6900024414 68.6300048828 hvcurveto
          endchar
        </CharString>
      <CharString index="0">
        rmoveto
        73.3000030518 8.97999572754 96.3000030518 41.9799957275 63.3000030518 41.9799957275 -13.3800048828 46.2400054932 -23.3800048828 33.2400054932 -48.3800048828 20.2400054932 -44.25 -37.8800048828 -82.25 -81.8899993896 -28.25 -65.8899993896 rrcurveto
        return
      </CharString>
      <CharString index="1">
        -104 callsubr
        -442.580001831 -90 callsubr
        return
      </CharString>
      <CharString index="2">
        rmoveto
        40.6999969482 32.9900054932 32.9900054932 40.6999969482 40.6999969482 -32.9900054932 32.9900054932 -40.6999969482 -40.6999969482 -32.9900054932 -32.9900054932 -40.6999969482 -40.6999969482 32.9900054932 -55 callgsubr
        return
      </CharString>
      <CharString index="3">
        rmoveto
        -7.92999267578 12.9900054932 vlineto
        24.0500030518 19.0099945068 -18.1300048828 -25.2400054932 1.03999328613 hvcurveto
        -336.949996948 vlineto
        -111.190002441 -1.05999755859 -51.7599945068 -64.8800048828 -90.4400024414 hhcurveto
        -92.3000030518 -53.3300018311 68.8999938965 118.259994507 hvcurveto
        326.580001831 vlineto
        24.8600006104 0.320007324219 18.8699951172 17.7799987793 23.8200073242 hhcurveto
        14.0700073242 7.92999267578 -310.339996338 -7.92999267578 12.9900054932 hlineto
        23.9900054932 20.0399932861 -18.0299987793 -25.1399993896 hvcurveto
        -328.410003662 vlineto
        -145.679992676 93.6399993896 -86.8800048828 216.809997559 163.970001221 89.3800048828 87.9199981689 146.690002441 vhcurveto
        326.160003662 vlineto
        25.2400054932 20.0899963379 18.1300048828 24.0500030518 vhcurveto
        12.9900054932 7.92999267578 hlineto
        endchar
      </CharString>
      <CharString index="4">
        rmoveto
        -9.00999450684 hlineto
        -4 -33.7200012207 -41.3000030518 -90.3600006104 -11.75 -25.0599975586 -233.339996338 -510.830001831 rcurveline
        -38.0700073242 -21.6199951172 -33.4100036621 -15.9700012207 -28 hhcurveto
        -9 -10 223.279998779 9.91000366211 -8.78999328613 hlineto
        -35 callsubr
        -30.1799926758 22.7599945068 40.0200042725 17.6000061035 hvcurveto
        40.1600036621 93.3200073242 rlineto
        213.490005493 hlineto
        39 -93.3200073242 rlineto
        -40.0200042725 16 -28.9299926758 -22.75 -35 callsubr
        hhcurveto
        -8.78999328613 -9.91000366211 379.059997559 10 -8.36000061035 hlineto
        -28.7799987793 -32.6300048828 16.2799987793 38.8800048828 -22.2599945068 hvcurveto
        -470.179992676 150.839996338 rmoveto
        87.1900024414 200.009994507 83.6000061035 -200.009994507 rlineto
        endchar
      </CharString>
      <CharString index="5">
        rmoveto
        -10 -57 callsubr
        vlineto
        28.4199981689 23.1499938965 -20.1000061035 -28.0399932861 1.25 hvcurveto
        -394.479995728 vlineto
        -131.940002441 -0.309997558594 -67.8399963379 -77.9600067139 -114.729995728 hhcurveto
        -114.61000061 -67.7200012207 82.75 140.039993286 hvcurveto
        381.699996948 vlineto
        27.9799957275 1.2200012207 23.1199951172 20.0500030518 28.3800048828 -31 callsubr
        -343.11000061 -26 callgsubr
        28.8899993896 23.4400024414 -20.7599945068 -28.7599945068 0.539993286133 hvcurveto
        -384.899993896 vlineto
        -168.009994507 -34 callsubr
        -11 callsubr
        -101.589996338 245.059997559 hhcurveto
        191.690002441 107.850006104 102.130004883 169.210006714 hvcurveto
        385.449996948 vlineto
        27.5599975586 1.74000549316 22.9499969482 19.6699981689 28.1100006104 -31 callsubr
        hlineto
        endchar
      </CharString>
      <CharString index="6">
        rmoveto
        -227.789993286 -136.179992676 -114.029998779 -198.460006714 -197.380004883 136.179992676 -114.070007324 227.789993286 228.850006104 136.179992676 114.070007324 197.380004883 198.460006714 -136.179992676 114.029998779 -228.850006104 hvcurveto
        -578.529998779 vmoveto
        -104.440002441 -55.1499938965 97.6900024414 168.350006104 169.419998169 55.1499938965 97.6900024414 104.440002441 105.5 54.0899963379 -39 callgsubr
        -169.419998169 -168.350006104 -54.0899963379 -39 callgsubr
        -105.5 hvcurveto
        endchar
      </CharString>
      <CharString index="7">
        rmoveto
        -10 7.30000305176 vlineto
        24.0599975586 17.6900024414 -17.2100067139 -33.6799926758 -8.2799987793 hvcurveto
        -61.4900054932 -213.770004272 -171.690002441 287.61000061 rlineto
        -7.2799987793 hlineto
        -145.470001221 -278.300003052 -91.5 208.410003662 rlineto
        30.4299926758 -9.38000488281 21.7200012207 16.5200042725 20.8099975586 hhcurveto
        8.36000061035 10 -328.600006104 -9.99000549316 7 hlineto
        25.1699981689 31.9100036621 -12.3999938965 -35.1300048828 16.3999938965 hvcurveto
        215.089996338 -552.429992676 rlineto
        8.33999633789 hlineto
        47.3200073242 24.0800018311 46.3699951172 0 vhcurveto
        134.369995117 253.940002441 205.410003662 -347.630004883 rlineto
        8.33999633789 hlineto
        -4.03999328613 48.0599975586 16.5700073242 49.3800048828 0 vvcurveto
        147.279998779 461.119995117 rlineto
        30.4499969482 15.4299926758 33.0200042725 10.9400024414 23.3699951172 hhcurveto
        7.30000305176 9.99000549316 hlineto
        endchar
      </CharString>
      <CharString index="8">
        rmoveto
        -28.25 65.8899993896 -82.25 81.8899993896 -44.25 37.8800048828 -48.3800048828 -20.2400054932 -23.3800048828 -33.2400054932 -13.3800048828 -46.2400054932 63.3000030518 -41.9799957275 96.3000030518 -41.9799957275 73.3000030518 -8.97999572754 rrcurveto
        return
      </CharString>
      <CharString index="9">
        vlineto
        -34.8300018311 -0.660003662109 -28.3999938965 -28.0500030518 -35 hhcurveto
        -12.6499938965 -80 callgsubr
        -10 rlineto
        return
      </CharString>
      <CharString index="10">
        rmoveto
        85.4600067139 -17 70.3600006104 101 -38.3800048828 84 -17.7700042725 39 -51.1699981689 14 -31.9799957275 -24 -27.7200012207 -20 -4.32000732422 -49 25.6399993896 -29 37.6699981689 -42 -24.8699951172 -37 -25.6499938965 -11 rrcurveto
        endchar
      </CharString>
      <CharString index="11">
        rmoveto
        -10 17.1499938965 vlineto
        30.0399932861 23.6300048828 -21.1199951172 -29.2599945068 hvcurveto
        -280.210006714 vlineto
        -419.210006714 353.580001831 rlineto
        -8.61999511719 hlineto
        0 11.7400054932 -38.1199951172 -67.5099945068 vvcurveto
        -446.919998169 vlineto
        -29.2599945068 -24.6699981689 -21.1199951172 -30.0399932861 vhcurveto
        -16.1000061035 -10 338.38999939 10 -16.6300048828 hlineto
        -30.0399932861 -23.6300048828 21.1199951172 29.2599945068 -1.05999755859 hvcurveto
        280.470001221 vlineto
        420.270004272 -352.850006104 rlineto
        8.61000061035 hlineto
        0 -11.7400054932 35.5399932861 73.1699981689 vvcurveto
        443.839996338 vlineto
        28.75 24.9799957275 20.6499938965 29.7100067139 vhcurveto
        17.1499938965 10 hlineto
        return
      </CharString>
      <CharString index="12">
        rmoveto
        25.1799926758 15.1600036621 14.1199951172 27.3200073242 vhcurveto
        12.1000061035 7.92999267578 -305.270004272 -7.92999267578 14.2200012207 hlineto
        26.25 16.1699981689 -14.1100006104 -25.2100067139 hvcurveto
        -112.619995117 vlineto
        -61.5500030518 9.08000183105 -52.6799926758 -32.7899932861 -49.9900054932 hhcurveto
        -103.949996948 -44.5899963379 98.1999969482 160.36000061 176.479995728 55.3699951172 98.1799926758 131.929992676 67.1399993896 81.4100036621 -27.4499969482 -133.149993896 37 hvcurveto
        7.00999450684 hlineto
        14.1600036621 170.279998779 rlineto
        18.7100067139 -48.75 -116.059997559 16.9900054932 -92.4499969482 hhcurveto
        -216.38999939 -124.61000061 -115.729995728 -194.600006104 -197.899993896 129.679992676 -115.699996948 201.320007324 141.210006714 128.979995728 57.7200012207 51.9900054932 39.2100067139 hvcurveto
        return
      </CharString>
      <CharString index="13">
        -69 callgsubr
        10.8600006104 hlineto
        27.1699981689 23.4600067139 -21.7599945068 -29.8699951172 0.350006103516 hvcurveto
        -476.029998779 -48 callsubr
        -23.6399993896 -22.1399993896 -27.4100036621 vhcurveto
        -10.8699951172 -10 320.949996948 10 -10.8600006104 hlineto
        -28.5 -22.5500030518 4 callsubr
        -1.0299987793 hvcurveto
        endchar
      </CharString>
      <CharString index="14">
        rmoveto
        -10.0700073242 12 vlineto
        27 23 -22 -30.4400024414 hvcurveto
        -475.149993896 vlineto
        -30.4100036621 -24 -22 -27 vhcurveto
        -11 -10 321.119995117 10 -9.14999389648 hlineto
        -22.8300018311 -29.7299957275 16.75 34.8800048828 -0.210006713867 hvcurveto
        490.369995117 19.7700042725 vlineto
        5 78 5 -114 6 hvcurveto
        1 -18 -2 -10 -4 vvcurveto
        -84 -9 -34.5500030518 -25.0800018311 -32.4499969482 hhcurveto
        -5.07000732422 -7.53999328613 hlineto
        4.75 -2.46000671387 18.3200073242 -7.91999816895 10 -47 10 -49 8 -37 29 -50 rrcurveto
        -99 58 56 -2 107.300003052 hhcurveto
        117.699996948 10.0099945068 hlineto
        -32 -0.00999450683594 -19 5 -38 58 -31 47 -18 41 -14 25 -17 31 -41 45 -51.1199951172 13.4600067139 rrcurveto
        104.11000061 17.5399932861 24 81 61 vvcurveto
        140 -127 25 -100.990005493 vhcurveto
        return
      </CharString>
      <CharString index="15">
        9.63000488281 hlineto
        21.5800018311 162.710006714 rlineto
        -77.8099975586 hlineto
        5.78999328613 -58.0299987793 -74.7599945068 4.4700012207 -36.0099945068 hhcurveto
        -134 -85 -63 -116 -14 hvcurveto
        -12 -95 43 -78 91.5700073242 -42.3899993896 163.050003052 -75.3200073242 rcurveline
        76.3800048828 -35.2799987793 30 -33 -34 callsubr
        -41.5200042725 rrcurveto
        -51.4799957275 0.100006103516 -45 -47 -96 hhcurveto
        -140 -84 99 105.050003052 6.69999694824 hvcurveto
        -8.78999328613 hlineto
        -33.2299957275 -42.8399963379 -20.7799987793 -97.6999969482 22.4499969482 -48.8699951172 return
      </CharString>
      <CharString index="16">
        -33.75 -162.240005493 -29.7200012207 -54.2700042725 -138.490005493 -0.119995117188 rrcurveto
        -113.380004883 4.24000549316 -62.7100067139 104.88999939 161.320007324 vvcurveto
        154.619995117 56.3000030518 108.179992676 136.970001221 82.9299926758 61.9199981689 -37.5500030518 -123.050003052 36.0099945068 vhcurveto
        7.07000732422 hlineto
        12.8399963379 170.279998779 rlineto
        17.8800048828 -45.2299957275 -76.0399932861 17.8099975586 -96.6699981689 hhcurveto
        -240.880004883 -139.520004272 -114.649993896 -196.759994507 return
      </CharString>
      <CharString index="17">
        rmoveto
        -77 callsubr
        -67.5500030518 -95.9600067139 hhcurveto
        -141.279998779 hlineto
        335.550003052 655.520004272 rlineto
        8.66999816895 vlineto
        -6.17999267578 -11.8000030518 -53.9499969482 -6.7200012207 -40.2200012207 hhcurveto
        -344.36000061 hlineto
        -43.2700042725 -23 callsubr
        -58.8500061035 10.1199951172 -18.8000030518 7.92999267578 rrcurveto
        -205.759994507 -14 callgsubr
        0.149993896484 rlineto
        7.82000732422 vlineto
        -0.190002441406 79.5599975586 47.3600006104 49.1499938965 80.3999938965 0.899993896484 rrcurveto
        180.25 hlineto
        -332.059997559 -641.529998779 -0.179992675781 -9.32000732422 rlineto
        570.559997559 -47 callsubr
      </CharString>
      <CharString index="18">
        rmoveto
        -191.339996338 -36.5700073242 -50.7599945068 -64.5800018311 -161.550003052 hhcurveto
        -136.479995728 3.94000244141 -80.6499938965 118.13999939 195.990005493 vvcurveto
        194.839996338 87.1600036621 115.169998169 147.5 vhcurveto
        103.330001831 -0.0700073242188 78 -46 40.3800048828 -140.740005493 rrcurveto
        8.32000732422 hlineto
        9.82000732422 191.240005493 rlineto
        23.5299987793 -55.5299987793 -89 22 -112 hhcurveto
        -276 -162 -135 -228 -233 168 -131 269.130004883 -1 hvcurveto
        158.86000061 82.4499969482 57.8000030518 66.1399993896 39.6999969482 hvcurveto
        -23.8099975586 181.949996948 rlineto
        endchar
      </CharString>
      <CharString index="19">
        rmoveto
        -68.0399932861 -51.0299987793 -38.2700042725 -51.0299987793 -51.0299987793 50.5599975586 -38.2700042725 67.4199981689 67.3899993896 50.5599975586 39.2200012207 52.2799987793 49.7700042725 -50.0800018311 37.3300018311 -66.8000030518 hvcurveto
        -1.10000610352 -29.7700042725 rmoveto
        29.6100006104 22.2100067139 -25.5099945068 -34.0299987793 -33.3800048828 -22.2100067139 -25.0399932861 -29.6000061035 -28.9900054932 -21.7299957275 25.0399932861 33.3999938965 34.0099945068 21.7400054932 25.5099945068 28.9799957275 hvcurveto
        return
      </CharString>
      <CharString index="20">
        rmoveto
        -10 hlineto
        -29.0700073242 -104.36000061 -75.1499938965 -60.4100036621 -88.6499938965 0.0700073242188 rrcurveto
        -108 hlineto
        289.770004272 559.580001831 rlineto
        6.94999694824 vlineto
        -4.96000671387 -10.8399963379 -48.7899932861 -6 -35.8000030518 hhcurveto
        -337.449996948 hlineto
        -37.6900024414 0.169998168945 -52.6499938965 7.96000671387 -15.9799957275 6.9700012207 rrcurveto
        -188.449996948 10 4.32000732422 vlineto
        76.7799987793 43.1199951172 45.8699951172 77.1000061035 vhcurveto
        157.539993286 hlineto
        -300.759994507 -546.520004272 rlineto
        -7.97999572754 return
      </CharString>
      <CharString index="21">
        544.059997559 709 rmoveto
        -32.8899993896 -16 -47 -32 -55 4 -60 4 -15 46 -103.690002441 -1 rrcurveto
        -1 hlineto
        -114.270004272 -76.6300048828 -62.0299987793 -104.970001221 -15.4100036621 hvcurveto
        -116.910003662 -17.1600036621 53.2299957275 -69.0899963379 107.240005493 hhcurveto
        120.339996338 78.2599945068 65.3699951172 110.630004883 12.1000061035 hvcurveto
        4.58000183105 41.8399963379 -4.89999389648 35.3999938965 -13.4799957275 27.8899993896 13.4400024414 -4.7799987793 14.6900024414 -4.0299987793 16.6699981689 -2.32000732422 31 -4 36.7700042725 2.80000305176 35.9700012207 23.6600036621 -345.660003662 -653.449996948 rcurveline
        44.6999969482 -19 372.350006104 711 rlineto
        -334.220001221 -156 rmoveto
        -9.9700012207 -84.1100006104 -24.6000061035 -50.1699981689 -31.6499938965 -0.800003051758 -25.7400054932 0.0800018310547 -8.08000183105 50.5399932861 12.0599975586 85.4600067139 rrcurveto
        86.1100006104 12.2700042725 23.6600036621 50.8899993896 27.7700042725 hhcurveto
        25.3699951172 9.02000427246 -51.2599945068 -86.7400054932 -10.1000061035 hvcurveto
        341.039993286 -197 rmoveto
        -113.75 -76.4900054932 -62.0299987793 -104.970001221 -15.6999969482 hvcurveto
        -116.910003662 -17.4799957275 53.0899963379 -69.0899963379 107.330001831 hhcurveto
        123.009994507 78.3899993896 65.3699951172 110.630004883 9.66000366211 hvcurveto
        111.259994507 9.71000671387 -54.9900054932 65.7400054932 -102.779998779 hhcurveto
        return
      </CharString>
</ttFont>
